<mxfile host="app.diagrams.net" modified="2023-03-28T11:02:09.908Z" agent="Mozilla/5.0 (Windows NT 10.0; Win64; x64) AppleWebKit/537.36 (KHTML, like Gecko) Chrome/111.0.0.0 Safari/537.36" etag="QLd6Hb08XManT4o5QQ_e" version="21.1.1" type="device" pages="4">
  <diagram name="首页" id="gOFPxuX6lhfoQc4MW7KE">
    <mxGraphModel dx="1434" dy="806" grid="1" gridSize="10" guides="1" tooltips="1" connect="1" arrows="1" fold="1" page="1" pageScale="1" pageWidth="827" pageHeight="1169" math="0" shadow="0">
      <root>
        <mxCell id="0" />
        <mxCell id="1" parent="0" />
        <mxCell id="F9MA599rn3OXDoZQGkIe-1" value="" style="rounded=0;whiteSpace=wrap;html=1;strokeColor=#EDEDED;strokeWidth=0;" parent="1" vertex="1">
          <mxGeometry x="230" y="100" width="410" height="630" as="geometry" />
        </mxCell>
        <mxCell id="F9MA599rn3OXDoZQGkIe-2" value="" style="endArrow=none;html=1;rounded=0;exitX=0.002;exitY=0.868;exitDx=0;exitDy=0;exitPerimeter=0;entryX=1;entryY=0.868;entryDx=0;entryDy=0;entryPerimeter=0;" parent="1" source="F9MA599rn3OXDoZQGkIe-1" target="F9MA599rn3OXDoZQGkIe-1" edge="1">
          <mxGeometry width="50" height="50" relative="1" as="geometry">
            <mxPoint x="390" y="440" as="sourcePoint" />
            <mxPoint x="440" y="390" as="targetPoint" />
            <Array as="points">
              <mxPoint x="430" y="647" />
            </Array>
          </mxGeometry>
        </mxCell>
        <mxCell id="F9MA599rn3OXDoZQGkIe-4" value="" style="endArrow=none;html=1;rounded=0;" parent="1" edge="1">
          <mxGeometry width="50" height="50" relative="1" as="geometry">
            <mxPoint x="430" y="730" as="sourcePoint" />
            <mxPoint x="430" y="650" as="targetPoint" />
          </mxGeometry>
        </mxCell>
        <mxCell id="F9MA599rn3OXDoZQGkIe-5" value="用车" style="text;html=1;strokeColor=none;fillColor=none;align=center;verticalAlign=middle;whiteSpace=wrap;rounded=0;" parent="1" vertex="1">
          <mxGeometry x="280" y="680" width="60" height="30" as="geometry" />
        </mxCell>
        <mxCell id="F9MA599rn3OXDoZQGkIe-6" value="我的" style="text;html=1;strokeColor=#6c8ebf;fillColor=#dae8fc;align=center;verticalAlign=middle;whiteSpace=wrap;rounded=0;" parent="1" vertex="1">
          <mxGeometry x="510" y="680" width="60" height="30" as="geometry" />
        </mxCell>
        <mxCell id="jycPQwL0NXMfZbdB-UQm-21" value="点击后下拉选择/切换车辆&lt;br&gt;切换使用ion-alert radio弹窗选择" style="text;html=1;strokeColor=none;fillColor=none;align=center;verticalAlign=middle;whiteSpace=wrap;rounded=0;" parent="1" vertex="1">
          <mxGeometry x="640" y="120" width="370" height="50" as="geometry" />
        </mxCell>
        <mxCell id="Frh8cE9C2xZXRnHZwvkW-5" value="我的小车" style="text;html=1;strokeColor=none;fillColor=none;align=center;verticalAlign=middle;whiteSpace=wrap;rounded=0;" parent="1" vertex="1">
          <mxGeometry x="250" y="120" width="60" height="30" as="geometry" />
        </mxCell>
        <mxCell id="Frh8cE9C2xZXRnHZwvkW-7" value="" style="shape=partialRectangle;whiteSpace=wrap;html=1;top=0;left=0;fillColor=none;rotation=45;" parent="1" vertex="1">
          <mxGeometry x="590" y="125" width="20" height="20" as="geometry" />
        </mxCell>
        <mxCell id="Frh8cE9C2xZXRnHZwvkW-8" value="背景色参考小鹏汽车app&amp;nbsp;&lt;br&gt;" style="text;html=1;strokeColor=none;fillColor=none;align=center;verticalAlign=middle;whiteSpace=wrap;rounded=0;" parent="1" vertex="1">
          <mxGeometry x="354" y="40" width="346" height="30" as="geometry" />
        </mxCell>
        <mxCell id="Frh8cE9C2xZXRnHZwvkW-10" value="&lt;img height=&quot;520&quot; width=&quot;252&quot; src=&quot;data:image/jpeg;base64,/9j/4AAQSkZJRgABAQEASABIAAD/2wBDAAQDAwQDAwQEAwQFBAQFBgoHBgYGBg0JCggKDw0QEA8NDw4RExgUERIXEg4PFRwVFxkZGxsbEBQdHx0aHxgaGxr/2wBDAQQFBQYFBgwHBwwaEQ8RGhoaGhoaGhoaGhoaGhoaGhoaGhoaGhoaGhoaGhoaGhoaGhoaGhoaGhoaGhoaGhoaGhr/wAARCAM4AZADASIAAhEBAxEB/8QAHQABAAEFAQEBAAAAAAAAAAAAAAECAwUGBwQICf/EAGEQAAEDAwIDBAUJAwYICgULBQEAAgMEBREGEgchMRMVQVEiYXGRkggUMlJTgaGxwSNC0RYXM2JysiQ0dIKTotLhJUNEVGODlcLT8BgmNldzNUVVVmRllJaks/E3RnWEw//EABsBAQEBAQEBAQEAAAAAAAAAAAABAgMEBQYH/8QAOBEBAAIBAwQBAgMGBAUFAAAAAAERAgMSIQQTMVEFMkEUImEVcYGRofAGQrHRFiNSU8EkNEOC4f/aAAwDAQACEQMRAD8A+5ERF6nGMZERFJmYdFTVUVS1VFWORbREVoEREBERcZ8giIoxlah2eeFZcx2AvRhNq6Y5UxOO55NhVOF6nNVpzORx1XaJtjbS0inaR1UFaKEREQRER1jwIiAE9Oal0oinafIqEtBERWyhEPJEKEREKERESY4EREYqRERG4jgREQoREQoREQoUO6KVDuiJPhQVSqiqUSGUREXm3OsZTP2ERFZnhqJtU1VK2gWsZ4URVk4VC0CIiTwCIi4TyCIiiCIiKgrkXEnU+t6DUtNbtDNpDA2CB07poDI4PlfKA44BwwCLmfDPiuvLk/EzhtqPVN/pbnpe8UtvbHFE2Rk7D/SRPkcx4Iaenau5fmukS5zPLxcNdYavu+pGUWq6m2VlHPRukaaOJzXwyhsTw12QOeyZvTI9fJZea66tOpWU3dlbFQtubmGQNYWPgJYGnO12Ghu9x6HJxkcgvJw84cam03fmXDVF6o6+ngo3QQw00WwkkMbucdrckNjaMnJwAF0Cvo7g5tY+11jIaiSOQQmYF7WPLRtJHkCMrdsyw2stY0ukLfJLM0TVnZGWGmJLe0a17GuO7BAx2jV5dKX6tuGmqyvrZGyzQ3Ctj3FnJsUc72jk0ZOGtHrK1698J7lepq6We7wF9TLVPBdG4hglNOQAM9B2DuX9YLdtJ6bfp22y0k0zZy+tqakOaCOUszngfcHYWoytmYaq3X9TvL5Lfdo6cDcZDRxnDfrGEP7YNxzztzjwWT1/rCfRujZryKdks7XRxtHNzGl7gN5xzwM5xy8AvRJoaH+Ukt1p4qCJhb2kYbRtEzakuO+Uy9TlpxhZqstcF0tklvvLGVsEzS2Zrm4a8eWFbItxvh5x0fcphBrl1LSCcE09RDDI1oOfov6gDaWu3EjGRnqCqONlZq2TVlotui7zJag63S1E22Qsa4h4aOgPMkgD2rL3v5O+mbteG19NNU26IbN9JFgxODQBgeLQQMcivJxl4Xal1rerRX6RrKWi+Z0zonmaVzHc3hwxhp8gvJ1cZZaUxjcz+j9P/hzV0dL5HHLWyxxip5zi8YmuLipcqtN34lUNxt1Vd9UVMlG27QUs0PzguMgdI1p8MY54XTeN3GK66KutPZdNsiiqHQCeaplj34BJAa0Hl4HJOVqlu4J8STd7ZNfL3QVlHT10NTK105c4hjw7kSzPngZwuq8UOFFNxHktshmjoKineRLVBhdIYuuwDIHXnk9PvXDo8coxndEx++X1f8Wa/Ta+ej2c9PKYu+3FR9qviOfLTuC3Ga7axvb7HqVkU0zoXTQ1MMew+jjIcBy9hGOizOquIt4qdTXy0acuFvsNPYxEZqitjD3VA9B07mhxxtjY8HAGScea2TQHCaw8PZJZ7WJ6mtlZsfU1LwXbc5LQAAAMge5Uax4YwairZK63PtdNUVBJqRXWv50HEta07SHsIyGNyDkHC9mpGUxWL8r0Gpo6epM6sfbi+Yv939P4s7o68XW6W+uh1HSwwXGgrHwGWnI7Opi5FkrRk7dwOcZWwrHWS0iz28QOm+c1Di10sjYhEzIY1ga1gJ2tAaMDJ8VkV007jGpebVyxy1JnGOGv6p1DJY4GMo4WTVcsUswMpIjiijAL5HY5kDI5DmSQOXUaNpTipWXKurork2mngoXxtqzDD2b4A8hrX8pHh4DuThkFvrXRL5YKa/U7I6h0kEsRLoZ4SA+MkYOMggggkFpBBHULVtMcKLXpqd8jJe1jMrZuwjhbFG57ebXPAyXFpOQMhoPPbla+7kxvEHVNztusbTaqW4TW6gntlZUzvp4WSSbo2EtIDgc4x08Vrlh13qZ2qdH2+43WCtirJ6ulq3QwtDJxG0PZIOQLXYeARy6YIzlbvrLh/Uao1HbLpDWR08UFFU0c7CDuLZoy3cwjxGc4Kwtn4ZXuO96auF9uNBO+yzVEj5aeNzX1XaMa0OeDy3ejzOefLx5qoyfEfVV406+iiommnZV1kTKWoijE3aO2uzA9hxjcQ3BB6E8xjnn71crxQWUXJpoaTsaXtamCaN8zhJj6DS1zc8+Q5cysdrXQQ1VJFOypaKkSsG6pb2jIYdrg8Rs6bjnOT4gZ5DCzs9gZUU9ppX1ErqWgljkc153um7MehucfJ213rLQls2xNyuepKCnt0h7sM9XJBCKbsZC7tHAb8O39GgPdnHRqrt2qK2W7y0FZQua50pbF+zdHtaHvDnEu5OAa1jst5ZkaPHKzc9qFReaW4yybm0sL2QwlvJr3kbn589owPLJ81itRaQivznSmfs5yQMyxiVgaGPbtDcjHN5cDnk4A88AKtQu6ku9RbaimipiGiSN73HaCcgsAHP8AtLQL5xhp7Bc6W11VRLLcKp7GxwQQtc4bjgZ8Auh3qwvuTqV0UwaYI3RntATuB2nOQevo/itWn4U0NTeo7zPHTSXGJmyOVwcdvrAzjPrRWUvWp6jTVhbe6x7qynawukhaxrXEbHHkfPIWR1Te62y2xldb6WGoYHsE3bTFm1rntaMANO4+l5jorNdpU3q2stV6dDLbg3D2RBzXvG0txuzy+ln7lk73Z2Xm1S0BkMLZCw7w3dja9run+bj70GCvmq623Vd1dSQUz6KzxQyVfaF2+TfkkMxyGGjPPOSccuq9GotQ1Vtpn1EDqS30sJkEtTcSWtLm42taAQTu54Pq6HKXjSLrpWVr463sKS5RxR18PY7jKIycbXZGwkHaeTuQGMHmvVc7Tc6w7oLqyLJkYY30gfGY3YwC3cMubg4OcczkIMTWalvdPQ01yNBT09K9tL+wleTNM+UgOYzH0S3OOYOSD0HNbmforT2aPrqaotrqG6Q/N7bSMp6WKqozNsIG0vyHt9IjAzjkMgdTnbgCGYPNGZ5hBVKqKpRIimUREXkdhERankiKERFLlRERbiQREUykERFzZkRERiIyERF0iIamZgRESYc75USeCoVb/BUKx4UREVBQWgjopRBbLAByVsjBXoUEBWxYRVub5KnaqIREW4gERFQREQERESRERGBERG48CIiKIiICIiAiIgtnxVKqPUqlFhlERFxRSVI6rFamu1RYrHW3Cht012qadm6OjgcGvmOQNrSeWea4KflA6yvFPquW06LpbRBpunmNfLX3ESvilbE5zG9m0N3Zc0A4J9qtW6x4fSCLj3DrjBc9Q3ay2rVFjNGb1aILhbq+kJkgmJiY6Vr/ALMhzjgH1DPQnVddfKYptN8Q6W1UkNT3Ha5Z4dQzOoTIWvA9ARkEDqOZPmkRSvotF82j5U1rpuIV5irXVD9IU1FEKd9NQmWR1QQ1zy5wOAACWkeYXSdQ8cNL6c0pZNQTmtq2X1rXWuipqfdU1OccmsJ9Yzk+IWYipHSUXNNDcarRrS/T6eqLXdtN36KHtxQ3emEL5I/FzOZzj7vHyK1ys+U9pimqKmaGz6grNPUlT82qL5BQ7qRkmQPpbskc/LPTAOQtTFpbtyKzSVUNdSw1VHI2annY2SKRpyHNIyCPaCry5Oc+RERKpqZ4ERFuGBQ7oVKh30StCh3QKlVO6BUqAiIgIiICFEKClERBS5uTyVBaQrqgjKsTQte1FcLAVQRjK6RNiERFRQXEJvVJb15lU7fWUFzeq1YAI8Srm7aEFfRW+3j7Qxh7TIBktyM49i5bxP4nXfTj7ratJWZtyuFFZZLnVVMtSImUsXptY4NwTI7LHHby6dea47cNKaksmhBqWm0dTUd+oqVtxdqJt/dJWPeAHuc9pZ6QcMgxk4wcIPrhFoWhte3DUFzrbLqWyNsd4pqWCsDI6oVEc0EuQ14cAMHc1wII8lvReQgrRUbz5JvPkgrRaJxTvtysemoDYaltFXV9ypKBlSYhIYRNKGF4aeRIBOMrJ6W0/d7E+q751PXaiEoaGCqghjEWM5I7NoznI6+SDaAcqly5DxFi1Roy3XHVdv1jWzwU1THILVPRwGAxvla0x7g0PwA7kc55LrZcSBkY5IIKIiLDKIiLijSuLFLb6zQtzhvdiuGpaImMvt1u3dvMRI3bt2kHkcE8+gK+L9N6Gpr1c9b50XFbrNRVLmSz3W8up32hpY7a0tLh2js8+eemF953+gqrpZq2jt1fJaqueIsirImhzoXeDgDyOPWuP2f5MmnRUzVutLncNV19RWurKl1Q/sYp3kADfE04OME/efDktRNNRNOF8DNNafu930Zf6ygisFrtszKV1ZVVMmbrdM7o2RDdtaG7QfInI55GPbqyXVrKPjm2wwWqTTpu8neUlS54qGnIx2YB2+XVdut/ydrba9d0t7oLvUQ6epbgbpBYBEOwirC3G9pzyA6gY5YA6LH3P5MlDfr3qevu2qb1DTXysdUOoqCYQQ4P7r2kODz6+XsS27hpNNpe+8ONEangs1L880RqHSklwe/c0G31nzUBw5nLmvzy6+Hkc+C29latffJ7q7w5sNsfp2NkMkpwwTmI45nkDl8fvC7HrbgxX6spaS20etrtZbFFbo6Ce3wMa5tQxuQXOJxzIwDyxyW0XbhXpfUGj7bpa+21twtltgihpTI4iSMRsDQ4Pbgg4HPHVLouHM6rWd6ouPmn7Fq3T2mjJVRVL6C5wNfJVQ0rWyloLifRJDTkDlzKwXHarqtTcPbleNE6js9Tw/gMIuNvpGtjlne2UF7Wy7Tg82cseHj0XWNGcDtEaCunelgtTjc2tLGVVVUPnewEYIbuJDeRI5DPVY2r+Tjw4rru+5VFiIdLN20tNHVStp3vzncYg7b93T1KWlw3zRlVR1ukbDU2qnfSUE1vgfTwPOXRxmNpa0+wYCziohijgiZFAxscTGhrGNGA0DoAPJVrNcsiIioIiKRFJIqXEYIzzUnqrPRy0io9AoRFAREQERD0QEVKICIpHVAwmFKLe0UqCB44Uk56Kl3gtRFCNoPiqXDBVbVOAqLJHLorZB8l6iBhWiEFlQ4+iVdLfJWy0kYQcl+dCLiVxFrTWw235jY7fEKqaPtGRZ7Z+XN5ZHMcs5OeXNYOXizrN2laGtn01BQfOKnsZrlJTVT6eGLLf25g2B4aQSRuIHLqtruWmNY2XWV7vmjmWS4017jp/nEFzmlhdC+FpaNhY1wLSDnnggqt1ZxWBObPpD/tOp/8JBZt0u3jXE7t21Yq9IRkVDQMS7Kk+kMcufaZ5ea6eVzbTmmdU1GtWam1l3TRvpra+gpqW2SyShwfI17nOc9rcY2gAALozT1ygqRUl2TyUOPNBiNS322WGjpZ70wyQz10FNEBEH4mkeGsOPDDiOfgsFfbFretu1RLYtYUdrt7sdlTSWRs7o+QBy8yDPPJ6eKyGt9K/wAsLEaCOtfbqqKohqqWpbGJOzmieHtJaeThkcwp0rbtTW59SdWX+lvbXhvYiC3CmMZGckne7dnl5Ywgxr5q7RWl7jcOI96h1BSxSRu3w2tsOxpc1oaWbnB3pEHK3jOcH1Lm2p9Can1fJU0F31ZA3TVRUtkfRQWprZTE14eI+2Lz9UAuwuj7ggqRRuCbgisqio3HyKlpz15LiiT1UIeqICIiAiIgIiIGVUqURVSIiKgnAKo3n1Kt3Qq3g+SMqgc81QeqnnjGFGD1VBERQEREBD0RQeiCEREBSOqhThAynXkVCZx1XaAKgjKnqiCAMKURAVEngq84VDznCChERBSWAq26P0uRV5MIPO4cs+KpzywrxbnwVLoz4BBbRV9m5RsKClFJGFCAg9aIgnl5qETljqlDLIiLiCIiAiIgIiICIiAiIgKQoTKCoqlSOfJSW4QUqHdFJUO6LSqEVMkjIY3yTODI2NLnOccAAdSSvmTiN8oCvr6ua3aJlNHQscWGsDf2k3mW5+i3y8fYkYzl4R9O/eh9S+J6fTGvb9H3hFbr3Vsf6QneH5d6wTzP3L12LibrHh/cWwVc1Y9keBLQXDcRj1B3NvtCbZH2Wi1vQ+tbfruxxXO2HY7OyeBxy6F/i0/mD4hZS+3ui05aKu6XaYQ0lLHvkd4nyAHiScAD1rIyCZGcL5A1lxq1Fq6rfBa55rVb3O2xU9K4iR/lucObifIcvUsI/TeuKSnFwktd+jYBvMvZS5A8z4j2rrGE+ZH22D4eSlfJuguPN30/Ww0upZ5brai7Y50vpTQjzDjzOPIr6qoayG40kFXSStmp542yRSMOQ5pGQfcrU48SPQoIyF5LrcobPbKu4Ve7saWJ0r9oySAM4HrXyJcOL+uqqtqainuNVSQSSufHC2BuI2k8mjLc8giT4fYhHkVK+VOG/FHVd61zZKC5XmaopKioDZYyxgDhg8uQX1VnllOYnlmItKLAXDVMVu1La7LNCS6vp55xPvAbGIgCc/cV63alszGtc+7UDWuAc0mpYAQTgEc/Eg+5EZJyoKtU1xo6180dHVQVEkLtsrYpWuMZ8nAHkfavTtCli0iu7QreEibEIpIwoVBERAVBbgKtCMoLDm5VB5L0bAVSYh1Rq1lQVVg+SpcMIs+EIiKsMzhMKUXB0RhMKUQRhMKUQRhMKUQRhRhVIeaClEPJEBThMKUEYKlEQFDvolVBuRlTtUjL7SrjvyidST6f4fugpXuiludQ2lc5pwRHtLnDPrDcewlc2+TboOjv9TW6ju8LKiGhlENJE8Zb2uA5zyPHALces+pfTV20/ar9FHFfLdR3KKN25jKqBsoaemQHA4Krtdkt1jpjTWWgpbfTl5eYqaFsTS49ThoAzyHuW4yiIpHpDQ0AAcgtE4raAo9c6Yq2GBvelNE6SinAAc14GdpP1TjBH3+C33C17XGpqXR2lLpeK97Wx00DiwE/TeeTWj1kkBdB8sfJ01RLa+IEVsc4/N7pE+F7M8t7QXNP4Efeuk/KlutRR6ZstHEXNgqqx7pSOh2N5A/e7P3epcY+T1b5rxxWtUsLSWUbZamY/VGwgf6zgF9QcbdBS6+0VPTW5odc6N/zmkb9dwBBZ94Jx68LOU8wOV/Jf07b7h3tfqmNk9bTSNgp9wz2QLclw9Z5DPqPmvpbafJfBPDXihdOFN8qD82MtPK7sq6hl/ZklpPwuHPw8wV3uf5WWlGURkp7XdX1e3lC9sbW58t248vuVyi5GifKT09b9P6qoK63RspzdIHvniYMN7RrgN+PWCM+sE+JXXfk6XOa48NadlQS4UlVLBGT9Tk4e4uIXyrqnVt94vayjlNO6arqCIKKjhGRGzPJo95JJ9ZX2xw20c3Q2jLZZtwfPCwvqHjo6Vx3OI9WTgeoBJmYiBtS8V3aDaq7IGPm8nh/VK9+1eG8DFouH+Tyf3Ss2PiLg9Pv4n6aA8asf3SvuctwMDovgfgrNu4p6YHnWD+6V99O6rec1KRFORcWtD3vV97s4se+KCKhq2zTbgGlxDS2J3MHDy3BI8MrD3TRlz1C6+VlRpdtK+bS8VLR072xnsalrnZYzmcY5YPLlhd0CnK52U5lorSlXYdXMqG2xtDQv07SwSuja1rXVLXekCB1cB4/iul4KqRZ8ylIwreCrqpW8SlsgqMKt3gqVspGFCqUFCkIiIUIiIUowfJQWZ6hXEQpZLDg8laLSOoXrPMKgx5VhaZTaE2hSi8tSqNoTaFKj7lrbPsNoTaE+5PuTbPsNoTaFKKiNoTaFKIKHAZUYVTgSeSjBQQiIgKWjKhSDjopPhVY5DCloyVClpwVz+6q9jfJUkAFXAc9FYrK2nt1JPV188dNSwMMkssjg1rGgZJJPQLpMDyXS40dlt1TcLpUR0tHTRmSaWR2GsaOpK+EOMXGKv4sahit1kjmFlhn2UFKxpL6h55CRw8XHwHgDjqSquPnHmo4lXTuTTTpYdNU8mGNAIdWyZ5PcOuPqt+88+Q7d8nbgINI01NqnWEAdqCZm6lpnjIo2HxI+0I+Hp1yuscRcsts4DcJ3cN9OvqLuGuv9yDX1eOYhaPoxA+rPM+fsC8HyheMTuHFngtljkaNQXJpMbuvzeIcjJjzJ5D15Phg9rwfEL87vlGXqa78Y9QMnecUkkdJE0/utaxvL4i4/epEbpHr4dcKNTcX6+proJTBRdqTVXOrJcHSHmQPF7ueT7eZC7PL8j2mNIBDqyf52B9J9ENhPs35/Fd+0Ppyk0npKz2e2xtjgpaVjeQ+k7GXOPrJJJ9qz+EnKh+eWsNIau4JakpJ55XU0ocX0NxpSezkx1APng82nwPiF9hcFOKMXE/SoqZwyK70RENfE3kN2OUgH1XYPsII8Fe46aZpdT8LtRw1UbXS0tI+sp3nrHJG0uBB8MgEewlfLfyQb3NScTqm3Me409wt0naNzy3MIc0/d6Q+9W90D7nGfFeC9k9zXHH/ADeT+6VkcLH3xp7muR8qSX+6ViPI+AOBs5fxZ0q08waz/uuX6FHmV+cfASffxg0kPOt/7jl+jxYSeS3n5ENAVW0IGkdVK5i2inaUII6oITCkAlMELpAocAo2hVFMLQp2hUuA5K5hUuaT0QUYTCq2HyUbT5IKSoVRBVOEsEREBERBkFUOapCqWJbkREUYCMoiKX9lsREUQREQEPQoizOUQLaKvaFS4YKboEIiJMwqsHIUhUAkKQTlZvlFU1RFSQSz1UjIYIml8kj3BrWtAySSegXwP8o35Q8vEGsl05pGZ8el6eTEsrCQ6ueD1P8A0YPQePU+GO0/K3drO4WOy2TRlDca231zpjcm0NM+QuDdmxry0HDTlxx449S+PWcLddxStki0lqBkjHBzXNt0wII6EHavRjEeZV9T/Jl+TybYyl1pryk/w9wElsoZW/0A6iV4P7/1R4devT6sLefIL81xT8cB0brz7jVqPm/HA9Y9ff8A6tScZmfI/Sc8uvJfnt8rDStTpzizV3ENc2lvUUdVC8Dlua0Me32gtB/zgsxweg4tt4naZ/lIzWItPzwfOvnnznsdm0537uWPavrbixwutXFbTElpuv7CpiJkoqxrcup5cdfW09CPEesAiXsnlGM4IcTaDiXoigqIZ2d7UcLILjTZ9OORoxux9V2Mg+vHUFdKX5q6g0RxD4G381TGV1skjJENzoS4wSt/tDlg/Vd7llZvlS8UZaT5t3/GwkbTMyhhEh+/bj3BWcbWKfUHyn+J9v0foKvsUNQx99vcJgigacujhdyfI4eAxkDzJ9RXGfkX6Tqa3V141NNGRR2+k+axOI5OmkIJAPqa05/tBc60Pwe11xnvhuFYKxlJO/dVXi47sEf1d3N58gOXrC+/NCaItXDzTNFYdPxFlLTN9J7vpyyH6T3HzJ/gOQV4wxRsixuoCRYbpj/mkv8AcKySxuoATYrpgEn5pLyHj6BXLdEj84Pk+uP88ujwT/y7/uOX6YjoF+bPAG110PGPSL5qGpjYyty5zoXAAbHeOF+k3sW9SeYWEFQqlBXLzyUhUuVSgjK2iGnwUu6KhVn6K1EihERdAREQEPRFBUmaFDlSVU5UlYqxSiIugIiIMjhByUovPvlbERFZypBERZsERFN0giItWCIixIKh3VVqh3VQQiIgIihzg1pc44A5kqx5EotGn4u6Up53xGve8sOC5kDyPuOFntOattOqo5n2Wp7fsCBI0sLXNz05Hw5Fe3Ppeo08d+eExHuYebDq+n1MtmOcTLPhVtI5rF3q/WvTlEa6/wBwpbZRhwaZ6qZsbAT0GTyytJh476Cl1HJZRqO3NLaQVTa11ZF82f6W0sD92N45HaccuYyvNT1Om9VRIMtXgsl+tmoqEVthuFLc6MucwT0szZGFw6jcCRkLWNT8XtF6ViebnqC3yTR1TKWWngq45Jo3uftO5m7IDSfSJ6AFJixtz42vaWSNDmuGCCMgrEM0nYIqn5zFY7YypzntW0UYef8AOxlXbRqax6j7U6evNvu3Y47X5nVMm2ZzjO0nGcH3L3TVMNPgTzRxE9N7w3PvSuBcDQOQGAOgUrWtK66s+sKGestcxjihrJqMictY4yRu2uIGTyz0K2VZqfBIpGPFa83WdpOsJNKSTPhvIpBVxxyRlrZoySD2bjycW45gdM+3GwZTbwTPtGFK8k1wihODklW+9YvFrgs0Y1D3qMhW4pmTs3RnIVa3EU3xIo3BSqXLceWKQeZUkjCpRdK5QREVBERAVJKqVDui55SIPPoqMqc4GFT4rWMicKFJKhaBERBkkRF5IBERJBERQEUbgm4IJRRuCbgglD0UbgoLhhBGT5qOqIgIiIC89d/iVT/8J35FehQ5oc0tIyCMFWOJZyiZiYh8zcOnWlnfj7x2sL2UT9tU0NPYsPJ2AernZDR7Stn4DYFwvpjzt7OLGeuNzlvE3CHSk00kpoJGGQ5LWTva0ewZWe05pK06VimZZabsO2IMji8uLsdOZ9pX63rPldDX0dWMIyvPb58RT810nxfUaWrp5ZVWN8/ebU63t1dd9L3ClsrLY+5PYPmxucPa07HZHpObg9BnHLrhfGNm01qC52G3WWhbplvfmp56Vl7bTyunlqIMyGYOyG9kdpaGhuOXTxX2bq/SlFrOyyWm7TVkNHK9rpRSVLoXSNB5scW8y0jkQsTeeFulr7YbTZZaGSjoLRIJKBtDUPpnwO2kZa9hB5gnPPnnK/MRxD9T5X+GFcKvScUchtfeNFLJSXEWqMsgbVMdiQAFrcHoTyxk8iV8b68iqG1mryKer7M6zkIc3TUdQw5nbj/Cj6RP/RdHch+8vtrSWk7Xom0C16fhkhpe1fM7tZXSvfI85c9znEkknxKuar0radaWSez3+ndPQzOY8tZI6NzXtcHNc1zSCCCAchWJHBuAtcLRxG1TRXiCtoqm901M+2/OrB3WKgQNf2u2Jo2Dbvbk555ysrxs0zJfOI+k56nRdZrS1Q22rbNTQOEbWyFzNpMjnNaDyPInmui6Z4Uac0rem3mhFxq7kyF0Ec1fcZqoxscQXBvaOIbnA6Ld8p5lPD4UsOkBctKPms/DSvFxi1KQLtDM2X5vGyqGYTG15cdrQWk7SPHOOa+seMV8udi0BdJNNMnfeqvZR0JgYXOZLK8MD+XTAJOTy5LO6V0rbtGUFRRWcSiCorJqx/av3HtJXbnY9WT0Wbe9pPPorMo+adF2eyUukdWX/Wk1XLVaV1VcZ2XGneRUMeGsY5wIxnJOdvQ4HhyXUOC96vV00c+j1Syqfc7VUSUjqyojc357GOccwJ+luY5uT5g5Vi7cBtCXu5VtfX0NWZK+c1FVDHcJ2QzSE5cXRhwackc+S6XF2cMbIogGsY0Na0DoB0Ck1KNfcSXZcefiub8Kjeu0v/zn56dM/PXdzd55+d7cntM59Ls92dm70serC7BNTQSPLjuBPXCtC3Q5yXvPuWomKopbte4b/qrKK1EyOFu2LkFc3BZlvHhKpcp3BUucFcaanwhFGUytuaUUFwHVR2g8kFSgqO0HkoLwpPgQXEHqqC4lVOcMdFQsYxP3EjmoKIugIiICJ0VO8IMoioyfNMnzXkiLFaKjJ80yfNWYoVoVRk+aZPmsiEREBERAREQEREBERWpkEUFQtxitJKhEXaIikmZgIyFAGFKKTDQiKlz2saXOcGtAySTgAK8JMxHMqkWDdrHTzXEG+W8Ecj/hLP4qG6x0+5wDb5byT0Hzln8VjfhH3eOes6af/kj+cM4TgKg81Ie2SMOYQ5ruYIOQQoXSoenHwg8hlW96l2efXCtqTis+FRdkoXkDkqUUmKSJGyHPNV7z5KjGESItpXvPko7QqlFKFRefNRuPmoRaixJJPVQiK8giInIIiJAIiFUU7k3KlEEk5VGQOqkqh3RBlkRF5cSBERayi2hERc2RERAREWoiwRESloREW9sIIiLcR6WEEJhSh6K1SqURFYZnkRFIGUlpC0DjHUS02hK7sHuj7SSNji04y0uGQugYXPeNLc6Eqsfbxf3l4uon/lZV6l8X5uZj4zXmP+mXzNHG6V22Jpe7mcNbnkOvRZa46Yr7VbxXVzWxN7dsOzOXZMYkB5csbXBZ/Rl3s1qpN9wcIqwVE2H9mS7szTvaBkDpvI5etX9bamtt4svzehnMkxq4ZS3YR6LaZjD1H1gQvzUaeHa3ZZcv4dpdD0v4LLXz1bzq4i3XuDlTNVaFoxPI6QxyyMYXHOGh3Ifit92laBwUb/6iU/8AlMv95dCK/UdJlM6ON+n9w+Gyyy+N0Jn/AKY/0WywnKp7J3qV5F6Zyl9l5zER5KnYfJekjKjLR4Jcs08+w+SbD5L0Zb5JlvktR4aefYfJNh8l6Mt8ky3yVHn2HyTYfJenLU9H1IPNsd5Jsd5FenAPqUbR5/ig82131Sm131Sr2P634qRjxcgsbXfVKbXfVK9HL6wTl9YIPPtd9Uptd9Ur0cvrJ6P1kHk7N31SpDCPpDC9Xo/WVt23PMoLJaFac09F6v2fmqTt8Cg9iKMpleaIISijKZXSpaSijKZU2WiURFYwoERFqIIERFqlEUZTKolUqcqEBERS4BEUhZnKuIRKAeQRXGDkVmqFIYTzwsdqPTtJqez1NsuDXdjOB6TD6TSDkEewrMN6KVymIyuJc9TSw1cJwzi4ny4efk6sJOy/uAzyzR8/76j/ANHVgOX6gJHj/gfh8a7jvDeq875S5x8l5PwXT/8AS/N/8LfD/wDZj+c/7sTp2wUumLRT2y35MMIPpO6vcTkuPrKyZUIvbhEY+H6LS0sNHCMMIqI4iFBJyeaZPmh6lQtOqtvRUnqVU3oqT1K0IREW48AiIqCpVSoJwuczfgQ7wVKlzgVTlbjwIREVBERAREQEwiIGB5JgeSIg9iIi4giItxLQiIrYqRUotMblSKlENypD0VKIbhEUEgdSibkooyPNMjzRbSijI81XyWJ8qgBSOoCK7GMgLM1HINYMqvaFDeqvMwuc5TINYMBUyeiCVLpmtJC8UspeeRSImVXJXZ6K0qQ4+JUly6RwJUEZCZHmgcCoihEJGSqc+aC404CpPVU5wpyFoSiZCZC1ErQoKnoqSQeiT4KFQ9Vq07qucQiERF1jwCIioIitoLiKlqqQEVtEFxFbRBkEVveU3lcVpcRW95TeUFxFb3lN5Vs5XFBOFRvKpc8rcTbNQublLnbRlWN5U7i481oqFztAnaBUIiUr7QKlxDjlQiJSpFGVKNpAyqwoaFdDQpMxAp68leZ6ICo2jKuhowFyy58AG4Kl0gjHNWp6lkAJcQAOZJOMLSb9xLsdpDu1qxUSM6th5ge13RYiPurcHP3uJ6Ky+RkTS6R7WNHUuOAvnrVHyiXQxym0Mgp4WcnTyuG1v+ccNz6uvqXFr3xnuGopH9nPXXgkn+i9GEf578N9zSt7oH2Xcdf6ctjnNnukUr29WU4Mzv8AVBx961Su432eBxbR0ssrh07aaOL8Ml34L4/dedQXDAkmoaBh8Njqp4+552D7mq5FSVk4xWXq7zsPVsc/zdh+6MNSJtY5l9Ty8aayXJprfTwjwJZPMPwY0fivG7jFcXB2+soISPA0Dm/3pQvmlunrU85mou3d5zzvkJ+JxXivlJZbbaqsstNCyQMIa75uwkE8s5x61LmWph9NycY6qJzGz3qkj3nAJp4QOhPjNy6KpvF95fs/lLQh3l2UBP4Sr4gFYN8bc8m5I/L9VvujrdQXS3TzVtuo6yQT7Q6oha8gBjeQyPWpcpc3T6sj4o1bjll+opPbQbv7si9jeJF2eMtuFE8eGbRUD8Q5fNLtOWcjHcltx/UpYx+QVo6WsvPbaImefZ5Z+RW2uIfULeJVzYMvnsx9cvaw/wB4Feqn4lXCYjZT2Sod5RXXn7ixfKrLFbqYA0zbhRkdHQ3CdhHueq/m8jBiK/XuMeTq0yD3PBUjlOJfXUevLngb9OSyt8TT1kT/AMyFfbxBbHk1divEI/q04k/ukr5EiqrxSkGk1C446dtQQOPxNa134rLUuuNZ27+guNJUkcwTNURfgXvb+Cs8QTEPqn+c2wt/xh1ZSf5RRyMx95C9dPrrTlWf2N5oy4+BlDT+K+ULf8pW6UrmtuVM+Qxv2zMlMb9ozgkENbjHXoei36n45WG4NAutnglHiXRNcsxkxUfZ9Dw3GkqcfN6mGXP1JAfyXpyPNcEpNa8OLiR2lvho3nq6LMR97SF7pdQaMoD21Nq+utsLxyZFcDI9p9UbtxcPYM/pqMinbkXKRcNRmB0unbjcqqna3eZ7rRRQxNb1ySXNfj/NKzWjqnXFbcZH6rit0FpEX7F0AcJZXee082txnqAfUFvdBMU3lzvAKnKHqoWkVB2FJfnoqEQTlMqEQTlSqVOUHq3BNwKtKQcLMwtwuqNwVO/l0VOUjEtc3BNwVvKZSi1zcEyFbymVaLXMhMhW8plKLVOPPqoz61SeaKoqwqmjxVAOVcAwEEhSSoCkN3HyWMhdZ0Cu56cl4K24UtqpTUXCpip4W9XyOwueXripNUEwaVpS8Zx86qG4b/mt8fvUnmGoi3Sq24UlshM9wqI6aJo+nI7AXN9Q8Z6SljkZp+m+dloO6pmOyJnv6/guI6y4hU1LVf8AClZLfrq47WU7HEtDvAcuX3BYm5cOdeaptRuN2mpLJTEZipZy4BgPi5rR+GQVjx5bio4erWvGuepbK6quHzlreR9PsqeP1f1v/PIrhl84o1V0mc23/tyeXbTgsib/AGYxzd9/L1LU+JGjtSaeldW1k7b3QROw6eBjmxwZ6eiQA0esfetbpKw0roxVwvZM9m9m76Lm+bSORXSeIS4nhubRLc5GzXSd1wlH0TMcMZ/ZYOQ+4LYIKuKING/JbyAacD3LQBe3Dx5eWFPfbvDIK58yzE06Wy7tZjBx96vC+H6y5d36/PUq6NQO8ys1Ldw6cL4T++tP1VfzUMMYfydJ5+S1+TUghje95Ia1pJWm1mofnRa8vwASQukcFw2VteDIOf8A5yul6NuvYWRmHHDpXnkfXj9FwVt3YSB2hBJ8lv1hvAgtcA38juPvJKMzy64L5g/TPvVxt85c3n3rmgvYP76uC9jxdhCpdLjveT9M+9Vm9NPU59q5sy9Y5h+Vcbe8nm/CzdJtb5cbvGyBrwQ127GVi+/yej849a0e96gayGKMv5l2Vi238AfSxlWmuWXvVW3vWpc08pMOI9ZHNealvMwj2Olflh2nLvDw/Ba1XXQzVbnDnyCogmqDKCyORwkGOTT1HT9VmcS5bnFd3uIzK848yslTXcswQ7C1antV5qGB1Paa+Vp6FlK8j8lnaTROr6lm+HS19kb5stsxHv2qUscui02vb5X6fjsdJf6q2RxzsnhLXkhr2HLRnqBnnyPUA4OF3vhvx/MkkFl4hsFHXYAiruXZzDzJHL7x94C+W7dw7125wMGlL3y586GRv5hbzaNDa2q4RRXfStbNASCGyNDHNPm0kgg+tPDMw+6I5GzMbJG4PY8Za5pyCPMFVL5o0re9c8I6bOorfPXaUY3ce3qIRNTjOMNbvy48+jQc+QX0VbbrSXamE9DMyVvLIa9rtvLPVpI8fNdYlh63KlSTlQugIiZwgIoymUS4etERGY8iIiNiIiAiIgIqXPA8Vhrrqq02cHvCup4HD910g3H/ADRz/BSZoZtFzC6carLRhzaOOprXeGxgY33u5/gtOuXHS9SbhaLPDEPrS75T+G0fgs7m4xfQLeZ5KuSQRMc93MNGcDqV8m3PifxCuDSGVz6Nh6NhjZF+OMrSrjJrC8hxuV9nLT1ElW8j3KTlNeDa+sNR8R4rNTy/NbfLJU7TsNTIyCIOwcbnEkgZA6NPULn1Dx/qY7VKy+mxU12bIWh9LXdtFt5YIaMuyMkY9S+eRoS41pw2saWu5GTBOB7T1PsWUg4YDAaa521o5BsQH6qXZtqW93virZ6qoNTcrnNd6jwAjdtb7AQAFy7XfGGulopxS7LXbGDDnGTD3+rkPwC2aDhnSNbmasm/1R+iw174S6avzuwuldUGCAjawVDWB0hHPOBzwCMe0qxR4l86M4oXOivkNztdwdRSwOLoxFHufnGAS48s+Ix0P3LP1XyhdTV5Mdyvd1q2jGGyVbse7otn1jwMs1JGZNMVJkfG3JppZd5P9k+HsWFsduo7bRNgk0hbKmdhwZ6puc+92FZjH7tVzbwHiVqTVdvrrPZaOvuD6mlkEsUAdK7Zj0iQBnGFrNLZ9RPjooKyz1zIKHtOy3wFp9PHI5xyGPxX1xwp1hZLLZ5aeupLbZ3PcQWUbQwPHrDeq2SfV+j7dzoqGlYDzzFTNH6LO6Ihna+OI7HdZv6OhAcfB9XTxn3OkBXup9D6mqecVsDh6qmN/wDcLl9Wv4t2mmJ+bQu5/VjwrEvGWBp/ZUr3NPjjBWNzVQ+a4OFesKkAxWqQD/Jql392ErKU/AjXFQwP+aRNB8OwqQ73PiaPxXdpeM8u4tjo5CzwK8dRxpq4cOdA2KM8g6R239Vdxw5C75N+s66mkikpp4g8Y5Qw9P8AOqB+SiH5IeoZmtEklTHtHR7Kcf3Z3LqUfGa4VkxZSCGTlna1+Sqaridf2Nc8R9m0AnDs/wAFbmmcqpzyz/I9utZSRz1dbTRPJJw6t7MfSIHSJ/kttovkmTQxMZPeGMa0Y9C47gP/ANMD+K9VPr7UkdLBFHIGtZG1uHNz0Hqwpk1pqSXBNSW+poI/VTcsRT1U3yUKADNZqAg/23P/AC2LK0vyWNNRtIrLwJz4HZUN/KoC1t2pNS1P/KpvYwkfkpFZquqG1stW8f1Wf7k3NN6pvk16FhAFRUGYjx3Tf96Vyy1NwB4eU+C5odj60MLv7zHLmgtespwGsguTweuIX/wVirseprc3fWx3CnZ1Lnse0e8p5SXZaThHw2o3lxo6WU+UlHS8vdEFkaXR3DegeXRUVDG4ddoij/uAL5tnlqaYuMtU+LHMvc8gD1nGVVSwyXSH5225VklMHFgfTUEk7cjqN+cZ5jljxQfUkTNDW52+Lsonf1a54/Jyou1+0k62VDop4zNCwyw7qx5xI3m083eYC+X3XyxW14guFVdJ5T0BpNhH3YVZvFJUU1QaaOZkLmkM7Zoa45HiM+aRZMvqyTXei/RbKaCTH14xIfxBSXihoylbhzqEtA5NbT5P3DC+aY7lSMbyaMnyCofWUknPb1UmVh9V2/iPZakNFvpoduM4EQbj8FsFLrxjWjsaeFnkd/L3ABfD8pqoMus10qqF2cgCTe32bT0HqCx1Zd9ZxYMGq6gEnAGzH6rjM5+HsjHppjmZffFw1HV3ehfDTPtmXtw5lXTOkY73PC+b9ZUHE3QF3kvWj6eifaQd0tPQQPIA8wwvdy9QXAqm9a8LhjVtaAfFsro/yXnn1BraGJwfrS5kYOW/O5cH8VIjP7OmE9LjlzdPuPhTxet/EegbHIwUN4jbmWnJ5Px1cz1eY6j8V0lfL3yStBzNoq/Wt4rnVdRUSOpqePe4hhGN7znq48gD5Z819QZC9enu2/meHqO13J7XhKgpvHmrb3AnkutS8szFKz0VG4qnKhajG2LZDd6k3epUosNR5VbvUqlbVxGxCQOpwoJwtW1vr206HoI5rrI+SpqCWUlHCN01Q/ya3y8ycAeJCDZpJmQsL5HNYxoyXOOAAtTvOsXwMf3RSuqGt5OqJ3iGFvr3OxlfP+qOLt4nfG6+Vz6LcDsttrDI3eP0p5CfDH0AMH94rm1fxJ1TV1Xaac0nRB7jhtVXyGtmH/WEuI/JSbrhYfSNde5b0XMuesaOGPnmntJdOQPEHs8k/itUuV44a6ebvulwraqVuC5skMkP95rfzXB68cSr5MP5Waplp6Ael82oat0DHE+BwG4HsB5chjOVdtmmqCikZM/NdUR5MY2l0cZ8SG8+fm5xJPmuc3Hkdwi1tpuooGVFitEULJBlpqYXbyPPDsFYOv1JNVAiOpZTNP7sTGtH5FaJBT19wY6SlYYYMf0k7tjT/Z8/yXhq7jYLXyul2lqpxydHGduD5YGT9+U8tYy3F72SuzJUtefHe5xz/rYXhq6k03p09RC148WxMz7yCVpUuvdOwjFPQOkx4uJP95ysjiDaJTg25ob/AGW/oVqZ+zflmK7Vd4ZuMVa4nIGdreXuCx79Q3qoAa+6VH3bR+itsvtiryQ1ogc7yeW/ichZWy2GG6V7KeCvpYDIfRNW4xt9Q3AEE+5c5nlmpYlr7pV1EcLayple/JDQ45OMeXtXrotCaouFOJWUVwlZMS8HY/BBPI59mF3LTmnqLRUZrKh1NJWMicztInl+clpJyWjH0RyHmefgMI/iP8xttFEx4cY4I25z/VCsfozEcuZx8G9S1RybbI0n7SRo/MrIUnAi/E/tIKeE+O6dv6ErZpuKlS4nbnHtXgl4k3B5JYSPvUr21uheo+BdxjwZa2gi9srv0Cy8XBfIxVXmkaPJrXO/gtWl1/dJBjtdo9RXmk1lcpByqHn2FSYi1ibb0zg1a4/6e+jHjtg/i5eiLhXpiAYlusz/AOy1rf4rmjtSXGX6U8h+8qy6717hznefvKtRBbqcnD7SEUbwK6q7QtIa4uYQD54xzWizaFqYXzOGo6F5HKDbQiMj28ysA+vq39ZX/Eqe2lcPSe7P9pZ4tnJmabTNzMzhcNWRU0GMZp6ZrnfiB+az9NQ2CzW24OudzrNQTvpnxwtq3ARRuIxuaxoA3ZxzOVopc49XH3rzVxJhaMnHaxZ5/wBcLczwzdu5fyp0lAcRWm34HnTtP6IeIlhp+UFvomj+rTtH6LiDuqjJxjwRbl3A8WaGIfsoY2D+qwD9F55OMjekbXepcXPPqmFKhN0u3UnFd9TKGkkBb/aLzFd6YsnDZY5BhwcAQR7F8rwymJwLSQV1DRepuxY0PdjHmq3HMctb4h6TfZr1UQMiIppHF8Dsci0+GfV0+5aXT6brXbmUsc+Dz2xg8/cvpKt13boIf8L7ORrRnDgCtHu/GWobuisdNHGOglkGPcEmJ+yR7c1puHN6mwYLRWOLurvm7jlVXHQN9pI4mT2+eHtJWsG5m3Pjjn6gVXfuJtxlc4Xa/wAzM9Yo5S0fC1aTU60oJqhr3Onn2AnJbzLunifIlK9pdy2qTT9dTuc18L+XgOePcvHLb6qEZfHK0esELADWNA7kIpmj+yP4r20uqaJ2OzqHxHycCPyXNqeHpLXt+kXD7153yEy4JJaBnmfFZ2G4UtbH/hDWStI+m08/eP1WPuFuNNGZo3b43+9vqKLHLFTygrC3GTOQMr3VLwBjmT6l7dN6F1DruvFFpq3TVsx6kDDWjzLjyCK+ufkzRfNuEVtyDmeqqJf9YN/T8F17fyXLuCVDPp7TDNM3inNJfLMXxVMW4EOje8vY4eYySMrpy9WnFw8+pNSqUHn4qEXWXKk49aYUBVLMTRMW9SKncm5Yd1SKncpDvNBJOBlfEfH7Vd2bxNu1KKqCWClDYqciGN5jYWglm7BI9LORnqvtpwz4+C+COKVril1nqSqlmIkfeatgZy+iH9feSg0r+U14yAK6VjR0DMMA9ypmvFwqGkvrKmUgZwZXHKuRUdLF4F59ZWQp3wxOaGtDOfUDmuEZT4aiFt9TTSU8D4GYdLG1xJcXHmPWtjtENDarY686gc3sWDMUTuYd5Ejx9QWgW1rzDCx+csaGH7uX6LB8RtWSPeaUOd82omgdnnrJgcvu6e9MYaiWR1zxaqa9zmdq6mpj/R08R9Jw9ZH5dFoFrOptYVvzTTNtnqpifowR7tv9p3Qfesjw34fHV89RfNSzuotO0hJqag8jKQM9mz9T4e1bzW8S529hp3hpSw2O3PkbDE9oAkmeTgHJ8T5n8EnKIaY6m+T/AK7q2B92utttJPVk1dlw+5gI/FU1nyeta07A+03u13R3URw1xa4n1bgAfert90fPaWUtRr7Uj6OarqpacB3aTmNzME78HkMOaRjPJwXj1JYG6KsdDf7TqCSrp6mrNPC+DewucG7i4ZPMDp4c1y3yxdzw066x6s0TWCm1RQVNG7PIzxna7+y8citr0vr1zi0EufGPpxk8wPMLK2Di3PWURturYodQ2WX0ZWzMy5nhnzBGeoWra50MzSph1Jo6Z1Zpydw8cup3H9x3mPI/cV0xyiVyt3yg1JVVNvibDVvmpXN9A5JwPJY2GR1RTQO5kdk38lo/Dy+NqGCnL8xTt3xAno7xHu/JbxQN/wAEjbnnHmM+1px+iZWRPC41g/eVWAOilwwOSmOGaQ4jY5x9Qys1wxETKnA8kxhZOm05d6v+gttU/wAsQlZSLh/qCQZdQOhHnK5rPzKeV2y1oEAKdwW0/wAgayP/ABu4Wum8w+sbkfcFcbougb/jOpKJvmIY3yn8ArRtlqG/B59FVuGMjPuW8waNsh63KvrD/wDZ7e79VkYdG2gD9lZ9R1h8N0AjB+/mpUrGLmoOegPuXmrSSyPH2sefiC683SsEI/YaLrZD51FYWj7xgLzXO01FNBCY9K2qm/wiIZmqA7mXgDOXjkrHPBMU5htJ9SrFPI44Yxzj6guqvfcoPoRaYoP8+D9XFeeS8XeMY/lFYqfz7OWD/utK1ykRH3c5Zaa6T6FJO7+zGSqpLNcIRmWjqGD1xOH6LeJL9Xc+01vSNH/Rzv5fCxW4dUVFO4OfrVsgHhtmkB+4swq1thoBicCQ4FpHgRzV+mrJackRuLThdNn1PpK5W9zL88VtYPozUtEYyR6845rmlf8ANhUyG3l7qcn0TKAHfmueXlYilituDtj5aqXaxoJc5x5Bc31PrVkDJAZnQRkcmM5Pf7fJerX9+NHtpIn7Wtb2spH4D8z7lo+h9Ez8QrlUXO8zuoNO0Ts1VSTguxz2M9ePHwViNvMksdQ1181XW/M9J2qetqHeEUReR6yeg+9bvR8BNf10YfeLnbbSDglk9aC4fcwEfislcOJbLVFHYeGVLDZ7fuEQnOA+ZxOAcnqfWfwXhvujq21wR1vEHUElHJPW/NCHmSdzH7N+XAEADBByM9Qm+U5U1XyedZRDNuvdpuj/AAjirnMcfiAH4rQr7Z9W6JqBFf6SsoHE4b27N0b/AOy/mD71ud805DpTTcOpLRqF1bTvrBSxupw+Muft35GTzAC9Wn+LtW6lfQ6lEeoLNL6MsM7A5zQfHB/NJzmCp+7VdN64lbUNbkRVAIy0n0JMeC7HaLzDe6ASRjBI2yxH90rkfETh9TW2kZqbRMjqiwSOBczdl9I8+BP1fI+Hir+gNSH53C5xwyf9lMD0DvA/+fNWonmFq/LpEsTaeQ4ja71u5rYrRxJ1RpyldDp+7vtcZHMU0LGE/wCdjP4rA1Z3HLhgnwWIuNR2MGIwHSP9Fg9aVBDY6fU2t7nfO9bJf523jt42PrKmoLnPOeTOZ5jn06c1+gbc4G7G7HPHTK/NvT1WWan0zbYNzi+50xlPi79q3n78lfpL5L0abhqRylERacxERBeRFBWXWUoqURLVL4v+Vze7VbdaWi326jhhrvmzqm4TRANc8yOwzdjqcMJyeeHBfaDV+a3G+tqbpxa1JVaqp6m1SuqS2GCojI/YsG1hB6EENByDjmi2x1HOKpjXU7xIHdOa2q22CWpYHSyBoK4/UVNRbbkKiwzU9TSyNG+EzAYI9p6rYaXVdKY2/OGywSfvNxux94PNcdtOra6qmdaKqqZMG7YpHyAjmC0ku/Iri10hmv8AeKKhgOZ62oyT7T1XQ6zUlDPRVEMEj3TSxuYwCJ2SSPYtS0swx6zbLO0tdSUrpAHDmD/5KRMxEs1y3fU00lxqLPoPSjR81pw2HaDtEkh8Xffklc21fpXUGjbr821FQTUcoOYX4/ZvHgWO6Eez71uekLRe9R1OpKvTMIq7tBTmSJhkDDzkaHEEkc9pcMLJ2zjpfbcybTnFHT7NV2tpDZKevZsqYT/VkxnPPkTk9MELz+Za2r3EuCv19w20trGHMk1HK63XiED6FTsbsnP/AMRjAPazCx+v7JUfzf8ADe10bC+RlsfWyRgZJfPM7aMee1jfiW2af1ZpeAXu320XCLS99puwNLVwky004G6I5xtcWyDAIOS0kciVkbPrnSeixTyirluGo42Np6TdTl4ogAGhwD8N7Ty3Hawc+Z+jlKmOIYbSnBq3WOzzQ6vnhi1NXwg9i+fYLaw8wXjq6Q8vQ8uuOqwWmaoWC73DSt+LKm01u6B4Bywg9HNPsII+5blcGPuUExpbzYtOS1D90lbcrzDLUHJyTsYXcz5l2Vz7XENBQVFsNv1FRaiqYm7Z56TJa30iRknqcH8Fqmr5phLMyXSWoai3yPLu76vk4fvRk9fvH5rtdNM1jp4+rRJuHscAfzJXE79JJLqGKUZLqmkbuPrby/JdOpLm1kVAZd3a1UAY1hGN0jRnAPTPpH3LtPMcJToNs1barQxpfp6KumHV89SfyAXsquL9YBtttvpbcwdGwhv5luVyqvqrix7msgp4SPtqloI+4HKxMhusnP57Qx58GknH4KxF+ZWYdUqeJt6qciSZ7werX1EuPcHALGnWtWHZNLSFx8XNc/8ANxXNnQ3F4ObxRg+78wrTaascfTvdKzH/AErUiI9q6cdfXRh/YtoYyfFlDCfxLSqjxK1G3lFdHwj/AKKNkf5ALljqSTP7W+049YnH8VQKKEn9pqKH/TD/AGldo6hLxD1LKP2l+uJHl85cB+a8E2r7xP8A4xdq6T+1UvP6rnrqCiJ9LUNMfbL/AL1Q6jtLR6eoYCfIPylQzMW3l16mld+2qpHn+tISvHWXCMsbumHKWM83f1gtONNY8+ne4nD1Oz+i8t0bYoaCaSluhqJ2AOZE0YLyDnAOE2lU34XKHl/hEfL+sEN0pgcmpiH+eFosM2nJYmvlr5YjjmxzSXN9XIFXO30q0c6+d3sB/wBlKS+W7C8Uo/5TCf8APC9dNcYZMbJmOJ6Ycuemt0ozpUTvPqB/gqRedMA+iak+wkfolLMy6xHNnqrpkxzJwuZ0GrLBSvAE9yY3za8OHuIH5rJ12vrSIHC11NRLJg7e1hAGfDopONpdQ0bV9RPerrJT02XTV1Z2UfPwzgfgAtz1LM+OCzaC0w0mKLayTZy7aVx6n2nmVp9k7GTVFtc0l5p4pJvS8x0WwaUtV31TedQzaejbU3aCkklgjdIGbvSawgE+O1zsLOflftw03W2jb/o65dhqOgfSB39BI0bonj+o8cj+fnhdH1rHceIXCGyakje6Sss1Q2gvEXUuy09hUH+0A5pPmArFu436m08ZtN8S7G3U9radktHcmbZ2f2ZMZz5E59RC2LTesNKUlXcorRFcKTTF8pTRVVFVxOdJTudzYQ76L9sga5pznlg9Vzjyk3w1PVtnmi4S8PbdTg75Y6u4ysb4l0zom/hE73rYtF8HLfZra+TW0kUN/uFPmCjln7L5hG7pLL4l58Gcz6upblrLrPSOiY6eepq33C907GxUET6dzhSeIkLXYaX88tB9FudxycBV3F0t2ZUzQ3azWGrqjvkr7peoJJ8k8zsY5+XH1nkqzN3bTbFW/wAj9SV2nruY6y0VmYJAObHsd0c3yyMf+QtBFqfprVVytETjK2KTfA4c9zc5afcQtw13TUFFHa+79TUGpK2MvE0tGSRGzILQSepJc85WtamrJW6gtNfC90cz4Ozc5pweXL8it4+WomodOZcWTwRve7Y9zAXNPLBxzCw9dcaeGXtJJWEtGA0EE+wBaDPLJPIXzOe9xOSS88167TbK+818NDZaKaurZnBscFPGXvcfUAukxa7my2O5v73gfTQunuM0zWQMZ9LeThoHr6BfqBQR1EdBSsrniSqbCwTPb0c/Ayfevmz5OXydZtLyDU3EOgY29MeHW+kfIHimGP6RwGRv8uZxjz6fUBHJdMeHLLlQiItOdCIipS7lCcqEWWrERERIOFgdUaL09rWj+Z6qs9HdYP3RURBzmetrurT6wQs7kJuA5kjCD4+1b8htks802itUmnjc4mOmuEBdsB8O0acn4Vyi9/JF4oWYn5pb6G9RjJ3UdY3J+6TaV+iMtxp4Rl7m49qx9Vqq30bSZJQfYlW1GUw/MC48IuIFneRXaNvkZb4toJHt97QQt7sHBaWg4VXTXtyjuVHeYa9tG6jqIDExlOQAX4cNxJc5vPoMFfdVVxLtMIwC48lqWrdfWjUlgudmq6dzqaup3wvOebcjk4esHB+5ScJmF3PgLSmsanQlVda232y33KdzdgZXQdo1gJB3AZHPljr4q7Lxf1/qmsit1lmjp6iodthp7Zb4o3OPkCG7vxXm1HaKjT15miq4y7s3GOQY5PafEfmFvVuvtm4d8Om1/D2iqKrUVaS25XWQNcaGPPRg5kA8uZwM5BOcBeOnW7i2m3rTl3GrLbZNYajqr1cC01Fxp/nL5G0jGtMjmFxP0trT0AwsDpcw1FvZHfrS24WyWWRsUsbhFO1zQ0uDJB1IDmna8Fp9XMrc9H6RvENg1jre9xysZNY6l9PJNnfIZ3dmJDnwd+0APjtKxPBanZqKvrtIzPaya4s+c2x7jjZWQguaPY5u5p8xySoN0E/BusvtFNcOHVYzUMMXOagc0RVsA/rR5w72tJz5LUaa1VFup3w18EtLVST7HQysLHt29cg8wea7XoXVJ03V3Kt1DY30MEDJY3EyGFzqlnJpj/eBDshxBwBkHJIadAqKyt1nqKpude9889RIXb34yc/vHHIewdE/RnGLeVmktRaprnz6btFbcqe2Uu+rfTxF4jBOADjqenIc8c/Aq5/N1rOtADdK6gmwct222b3/AEV9g6E4hR6W01b7NYhTtgpowCREQXuP0nO58yTlbS3i3c3nG6D4D/FezHCXKdTl8MfzQa/k5t0VqV2T1Ntm5/6qut4I8RJR6Oh7/wDfRSD8wvub+dO6np2H+jP8VI4p3jrup/8ARn+Kvbk7r4YHAviKT6OiL999I8KscCuI3hoi9n20j19yfzpXg/vU/wDo/wDepHFC7nq6Af8AV/707cndfDQ4D8R3Hloe8j20rlUOAvEnw0Necf5KV9wnifd8n04AP/h/71QeJl4P/Gwf6P8A3p217kviL+YXiSTy0Pd/vpiq/wCYLiT/APUe7f8A4ZfbX85l5+2h/wBGo/nLvGP6WH/Rq9s7kviX+YPiWBy0Pdj/AP6yDgLxL8ND3Un/ACZfbI4mXkcu3i/0YUDiXec854/gCnb/AFO5L4n/AJhOJgP/ALEXYE//AGdVfzCcTR//AGRd/vp19qniReSf8ZZ/own8415/5yz4B/BO3+pvl8VDgPxM6fyJu49lOn8xHExpydFXgD/J19pfziXh3SqAH9hv8FB4h3nn/huPYxv8FY0zuS+KpeDHEOnBMuir7jH7tA935ArzjhXrmMZfo3UDQBzzapv9lfbn84F5cMfPXfc1v8Fbdru7eNfICfYrsr7m+Xwu3T960zqKhffrTX2tlVE+OE1dM+IPI6gbgMr36W1TU6Hulzr6K3UFxn7JzRHXQ9owAkHdjI5jH4r671Rfxf7ZLb9Qyitp5OfZyMa7DscnDI5EeBXyFqe0z2G7SF8e4RktcMf0jP8A+F59XGuW8Mrmlyp41a+1FVx0Nnkp6OWoeGRU9st8cbnOPQAhpd+Krvumr5/KexWXWmo6q53Wtkjkq6MVT5BSRE7jvcTjdtBOB0656LbdP3mx6B4fz3bQtunuGq6ovZV10zWu+YQ56sb15g8yRjPU4LQcToTSl6qI9Sa8vYldALNcKqmqJyS+aQt7Pfk+BMhwfEg46LhTp7aNpkskpZWXWzx3G0y1Do43b+zlY8NBIZKOYO3Bw4FpweXUrYX8HpdR0stZw4rRe+yG6a2T4hrYR/Yzh49bT9y83BlsN5v1TpOueImXtm2jlJ/oaxmXQu+85b692F0TRF/m0ze7jUansDqOnoTNBVl0hh3zMyG9kfpB4f1cPognP0gDpicolxaOz1dngqo7lSTUdYZhE6GZhY9uOZyDzHgvpXgj8ne1cXbDX3XVFRXUcdLNHDQS0r2tO4AmTIcCCObB71xusrrhr/U8lbUukqqiokAYXDm89B+AHsAC+5OGVyptF6UtlipthFNHl7/rSOOXH3n8l008ZmWJmlix/JM4bWgtfV0Fbd5B41lY7B+6PaF1TTeh9N6PjMel7HQWoEYc6np2tc72u6n7yrdLqaOfGXNyfBZOOv7QZBC7RhMpbIg4TcV5WVG/PNXmuzjnlKmGlaIi1CVAiIqUuIqdxTcVlhUqXnDSU3FS4ZGEHhqaoRNxgrUr1qCWmDgx5AC3g08bhh7c+1eOeyUNRnt6dr8+a1E0OHXnVdQXOAkc0LS63UMshdvlJ+9fRlVoGwVee2oW8/JxCxE3CDS8+d1LKzP1ZitboR87SXgnmXEq13q3PX2rvM3AzTTi/YKxmen7f/cvC/gLYXj0Zqwf9cP4LRT5s1hZ6PUdPuc5kdWxvoSHGD6iuOPp7ppevdJb5H08jTnAecH15H6L7sm+T3Y3nlPW9PtR/BY6o+TLpyqGJp69w8jKP9lcc9KMuY8t45bXyjeONuotQaZuNg1DFHV09fFBDLKIG9o2OF25jWlu0YyTnIJOTzWk2eup7FX0txslJUxXCklbLBPuDOzeDkHqV9nzfJG0nKctq7rGf6szT+bVNP8AJG0nCfTq7pN/bmaPyauHaydJyieXx5VT3zWtxfUXirkqp5H7nb3l2fWXHmfvK6Bp2wW+10zXVRjmkk/e3YA9i+lqf5L+l6blFJXgHymx+i90Pyb9NQkECsef60xP6LtjpRjNyxOT5/ifT0cgdA0ADn16rOwV8MrGyR/mu3/zBaeyN7ap2POZy9VPwJ07T52xTkHwMzl3YqHEBcsDG4J3n/WXdm8E9PjP+DyH/rnfxVY4L6fAx81d/pXfxRna4N3n/WTvL+uu9jg1p5v/ACPPtkd/FVDg9p4f8hafa938UNrgBuoBxuUm54/eK+g28IdOBozQNz/acqxwk06Dyt8X35RafPIuRPiVPeXrK+iRwm063/5uh9xU/wA1Gnf/AKNp/hQp8695esp3mfNfRX81Gnf/AKNg+4YVLuEmnXf/ADfEPehT52NyJ8VHeZPRy+hH8HNOSf8AIw3+y8j9V538E9OEejBI0+qV38UKcD7yI/eTvA+a7k/gbYXZx27f+uK87+BNnIO2WqH/AFo/ghTineJHiVaqbz83j3bvSPQZXa3cBbSf+PrB7JR/BeOX5PlpkeXOq7gf+sby/wBVCnCe8iSXzvLnHmsPqO2U2ooI45S1k55RyeHsPqX0aPk+WfBDqitdnze3/ZVofJzswcC2suDcHI/at/gpMRlFSPiCShuWlq101vlfTytdkFrvRJ8wR+Y5rbqzjhqS56budgvkcdZSV9HFRPf2DS+OGNxc1rC3bjm52S7cTnryX1RUfJmsFVkTVVe4YxgyNx/dWNk+SPpeU8qu6Rk/Vmb+rV5Z0Zjw67/b4rt1TS2yspq21UVRHXU8rZYZshhY9pyD1PiAVlLpW37WtyfVXurlqppXZO55dk+snn/DwX2FF8kXSsZBfV3SX1Gdo/JqytL8mHS9HjsvnuB4GcfwSNGZnlLh896IsFBp5gqZpGTVzhyIPKP2etdBp7w4PBaS4HyXX6PgFpymA9Cckecqz9JwmsFJjbTbsdMuyvTGMRFQxMW5dYbrVPkG0OIz5rpFprql7RuDsLaKLSFqowOzpWcvUsnFbqWL6ELR9yTMMzEwxVK95bk5WSic7xXqFPGPotA9ir7No6BWrhYmlpjnK8EAA6IThZmGtyUUZTKjUTaURFKlgVe7nhXqWhlq3gRjDPF3gFmY7FA0ftHOefbhc5zxx8txjMtfdnwUZPmtl7lpPqu+JR3HRn9x3xFY7uJslrSLZO5KP6jviKdyUf1HfEVO9ivbya2o5LZe5aP6jviKdy0f1HfErGtidvJraYWydy0f1HfEU7ko/qO+IrXfxO3k1vCYWydyUf1HfEU7ko/qO+Ip38Dt5Nbwi2TuSj+o74inctH9R3xFSdfFO1n7a3yRbJ3LR/Ud8Sdy0f1HfEp3sTtZ+2tplbJ3LR/Ud8Sdy0f1HfEU72J2s2t4RbJ3LR/Zu+Iqe5aL7N3xFXv4naz9taUFbL3LR/Zu+IqRZKMn+jd8RV7+J2s/bWOanmto7jovs3fEVHcVH4Md8ZTvx6Xt5NYwUwfWtn7ipPqu+Mp3FSfVd8ZWe9B28msYKYK2fuKk+q74yo7io/qu+Mp3oO3k1nafIqNv9X8Fs/cVH9R3xlO4qP6jvjKveg7eTWeYUErZzY6MfuO+IqO5aP6jviWvxGJ28msjqqlsnctH9R3xJ3LR/Ud8Sk6+Nnbya2o8VsvctH9R3xJ3LR/Ud8SfiMfR28mtFQtm7lo/qO+JO5aP6jviSOoxg7eTWUWzdy0f1HfEpFkoz0a74ir+IxO3k1lB16H3LZ+4qT6rvjKjuKk+q74is93EnTylrWEPLqtkNjox+674ynctH9R/xFa7+MJ2smtqCthlsELgexe5jvDPMLD1lDNRkdqPRPRw6LUauOXDM4TDyoiLa4ynKvUsLqqojib+8eZ8grCy9gZmeV58Gge8/wC5NSduMytXLNwUzKeMRx5AC9GFSrVXVMo4HTTb9jcZ2Ruefc0Er53MvRwvFRla9Q6yoa2N8nZ1bWB5DC2jmfvaDgO5M6HmrtRqingr5qNtPUyyxRNkO2MgEHP7zsNHTxPq6pMSXDObR4Jha/btX0txjlkEE1NBEwOfJM6PDcta4Z2uJ6OHgrEGtqOqgpZaWCpqe1DHSCCB8nZBzc8yBgkHkQm2TdDZsKFr9ZrGhpGUj2sqJm1Ia5uyFx2tLwzLhjI6nAI57SOq9jL/AE09XBTQiRz5XY9Jhbt9Au5g4PQFSYlYyiWVAyqtoRvRSsqjaE2hSiIjaE2hSiCNoTaFKII2hNoUogjaE2hSiCNoQABSiAiIgIiICIiAiIggjKbQpRBG0JtClEEbQm0KUQRtCbQpRBG0IBhSiAiIggjKjaqkQArc8DKiJ0crQ5pCuJlWPI0uqgNNUSRHntPI+YVlZjUEbWzRyDq4YP3f/wArDr6OnlGWMPJlE45CzNg+lUewfqsMszYOtR7G/qs630umP1M+F4buySW3TxQQyTOkaWbYpBG7B5Ehx6Fe4KrC8VutW51bqK40t2qo6emr2NipqdrYxUwjABfgZxjHs6c/NWdTW2smvRnpqKQunZGXskmBY4iWEAYAPIeOSPE+HPpW0eSjY3yW9/Npt4pzWx2iay3CrZUTRwltG/MsUHpMAMTG55Fp3NjDvaSqY4H0VFbGM3yvkpoYJ21Numn7JpZlxBBAA5DkOfTyXTOzb5J2bfJN9sxhTnl+tTqiioOxc90UbIQ6V8Mhc49swAbS7Pi44OT6/FXrPTTR3i29szZK79o+MMcDGBE9uXZzjJI5ZW+7G+SktCm/il282hueSqRFydBERAREQEREBERAREQEREBERAREQEREBERAREQEREBERAREQEREBERAREQFBUphWBr2oj6dOPb+iwyzWowA6A+39FhgvdpR+WHmz+pCzVg61Hsb+qwqzVg61Hsb+qut9LePlnh4KpUjwVS8LrAiIiiIiAiIpIIiKAiIgIiICIiAiIgIiICIiAiIgIiICIiAiIgIiICIiAiIgIiICIiAiIgIiICIiQNf1H9KD7/0WGCzOo/pQff+iwwX0NL6YefU8oWasHWo9jf1WFWasHWo9jf1TW+lrHyzw8FUqR4KpeF1gRERRa3rTW9t0LbYKy7Mqqh9TUMpaSlo4DNPUTOzhjGDqcAnwHJbIuR8bbjR2i7cNa26VUNFRwanY6WeeQMYxvzebmXHkArHI9n885/93+u/+xh/tqWccrRTSxfyksGp9MUkjxGK662oxU7XHkA6RpcG58zgetZ5vFjQeB/656e/7Uh/2lq/ETiroaq0hdbfTXq26iq7jTSUtNbaCdlVLVSPaWtYGMJPMkc/Dqlfojq7HtkaHMIc0jII8QqlrfD+111k0Rp223l/aXCjt1PBUuzn9o2Nodz8eY6rZFFEREBERAREQYzUV/oNLWSuvN6l7CgoYXTTyBpcQ0eQHMn1LQGca2yta+HQWupI3AOa4WUYcD0P01c4saw0MLdW6Q1rdKiB9xpgZYKKnlmmZGXcnfs2O25LeWRzVmP5QPD+GJjW3C47WgAf8DVf/hKxH6DbdF67tuuKatfboa2iqqCo+b1lHX05hngk2hwDmHzaQQQSCCtnXzvw34q6VZxH1xJVV81HHqC60ndslVRTQsnIpo48bnMAad4IAOMr6HBBAI6FTKKkSiIsgiIgIiKwC1TV/EfTmh3QRX+vLK2p/wAXoqeF89RN/YiYC4j14x616deapj0Vo+836dnatt9K+VrM43vAw1v3uIH3rXOGOgTp6gN81E5tw1ld2Ce6V8gy4Odz7GP6sbM7Q0YHLKvA8R46Wilb21705q6yUPjWVtjlETR5uLdxaPaAug2e92/UFuguNkrIK+hnbuingkD2OHqIWPsNdPcKy+RVbxJHTVpiiGAMM7Nhx6+ZK4Dqmn13oviDXUfDTS1TaLbqSX5s6ohLZ6KKUubiuDAP2Lw3dua4bXYByStbfszE2+nsplWoGOZDG17zI4NALiMEnzVxZE5TKhEE5TKhEE5WH1BquyaUpo6nU12orRTyP2Mkq52xNc7yBceZWXXJtbUdNcONXD6C4U8VVT92XV/ZzMD27gIBnB5ZwfxSIsbVDxX0LUf0OstPvPkLnDn3blsVsvVuvUJms9wpbhEDgvpp2ygHyy0lYqfQulKrPzrTdlm8+0t8TvzatP1Fwet8M0d54ZtptH6mpucU9JAGU9SPGKeJuA9h88ZHIg8lagdSypytJ4ea6k1bDcaC80BtGpLNK2C6UJduaxzhlskbv3o3gEtPqOei3VShOUyoRBOUChSEVgNR/Sg+/wDRYYLM6j+lB9/6LDBe7S+mHDU8oWasHWo9jf1WFWasHWo9jf1TW+lrHyzw8FUqR4KpeF1gRERRcm4z0VPcL1wypq6CKqp5NUMD4pWB7HD5tPyIPIrrK0biBpi4ahvGiKq2tjdFZ742tq979pEQhlZkeZy8cvWrHAyU+jNI0sEs9Rp2yRRRtLnvdb4gGgdT9Fc9bqq22iqr6vTVo0/SMgkLIuzpDHPOwAcwWtxg88LqGpqGa56euVHSAOnnp3sjBOAXEcgsNBfLrDBFGdK1xLWAHE0Pl/aXTCvvy5ZzMeGz2y4091ooquhlbNBKMtc08vWPevWtf0ZQ1NusbYq6HsJ3zzSmPcCWh8hcASOWcELYFzniXSPAiIooiIgIiIOW6M58ZuJ5PUQ2oA+Q7GRenVGsNR2jVdPabfQ0ksNVt+bF5O6Tpuyc4GDlY662vWOk+IGodQaRsFHqWiv0FK2SOS5Ckkp5IGub+81wc0hwPLphS/VPEuSVksnC2gdLHnY86liJbnrg9lyXTCYibmLZmLXvlCNH8091JA3CroCPUfnkK6k1cR1XTcRuJNo/k5ddHUGnLfU1VNJU1xvbakxxxzMkO2NsYJcdmBzxzXbWZxzXOfDSpERZBERAREVgc+432qqvHCzUtNbonT1LKdtSyNoyX9i9su0eshmPvWeotSMvOkqO+aaiFybW0zJ6VjXhodvA6k9MZ5+wrYnNDgQ4ZBGFyM6N1Vw3r6qo4YMpLtp+rmdPNp6tnMJgkccuNNNghoJOSxw256EZWhnLxd4OGmi7zfL/AHGnjrZd87pJOUb6lzMMjaBzPNoAHU8yuIaX481FHc9G1mouIlFdKS6crzQyWgUzbdugc/Pagc8SBrMnlzXR9Zu1XrHTlnrm6KrKK5WPUdJXPtstbTufUwxg7jG8P2/vdHY6FeHXV91frHRt80/R8LrxRz3SikpY55q2j2Rue3Ac7EhOBnwVu5Zqnc2PbIxr2ODmuGQQcghVLxWelfQ2mgpZsdpBTxxuwcjLWgH8l7VkEREBERAXFeKOlrRrDi5oG26jom3CiNtuknYue5oLm9hg5aQV2paNrvQddqW52W96bvfcF+tAmZT1D6VtTE+KUNEjHxkjOdjSCCCMKxNJLmenuDml7leG0134Yw2+jO7M5q5ztwOX7/PJ8vNbsPk78Mx00rT/AP4ib/bT+SvFT/3hWf8A/LY/8ZP5LcVP/eFZ/wD8tj/xlrKb8cLVMFw90lZtE8btW2vS9E23UD9P0E7oWPc4GQzTgu9Ik9AF2xaJonQdxsN9u2otU3wX+/XKCGldLFRiliigiLi1jWAnxe4kkn7lvazPIIiKApChSEIYDUf0oPv/AEWGCzOo/pQff+iwwXu0vphx1PKFmrB1qPY39VhVmrB1qPY39U1vpax8s8PBVKkeCqXhdYEREURFyjiDri82TW9ktdvebfb5KOaaeeW3S1Lah2QMNMYOzsmguduLQd7fAFB1bCYXDNGcUb9etT0FFdmupaavqYmskfb5msk/wPtNkZLRs3uY+TMhyGtwAcgjy6m4q6ntevKih+daZpLZaJYaeoZJXyA1E9U9rIGO/Z5aWNLXu28h2jefIhI5Hfgi13Sd2ul3pJprs6zSASbY32msdURkY57nOa3B5jl61sSAiIgIiICIoccDIQSi+Y38fL+NY3u3ztFHSbq2OCmNLDLNSyQCUMG4T8w/5rO9xczDPRG7B3LPDiFrOm4f6ru1fNFNLRxRU8NdT0bXtppgXsqp+zjfIXxREZGRk7TyVod+RfP1w4sanpLjBFHEa0xTZmZDaamIMcaGaQQyBzS4gO7CT0fSALstw3J7bpquN009aa81Laz53Rwz9u2ExCXcwO3BhJLc5zgnksykTbKIiKKIiICIisAoK1/XF9n01pmrudGyOSaF8TWtkBLTvlaw5wR4OK4dLxd1ZBJR1ENXao6SjkngrBc3iM1Jkq3xskjY0hzmQsjAcW9S88iWFaq0mX0gi45qXiTdaS66bslDWUEl5mttXeK59BC6pgfTxxP7JjQXAntHkEYcCeydg81iuH/EXVt31XBRXR5fSXOoMuJbG6JtKxsQzGHioO3JaSC4OO5+OmAojvCIiAiIgIiICIuf8XNZXfQ+nGXCxRWqWaaZlLG24VLot08jg2MNw0g8yS7JaA1pOUHQcqFyHh/rnUV3io6GpuWlLnJSVDqGsnZcnioqHxHbJIyIRgHJaSMYH3LVtT8V9Wx6kvFoiqKe00lHdGU0c8Vhnq5cEsexvozYdljg5+WswwktycK1Y+h0XK+Euu9R6tul8o9TwUbG2+KAsfTUUlODI8v3D9pI5xbgMLSWsP0uXRdUUBERAUhQpCEMBqP6UH3/AKLDBZnUf0oPv/RYYL3aX0w46nlKzFh+lUewLDZWWsUje2lYT6Tm8k1o/KmPEthCqVIVS8T0QIiKKLk/Ffh9WakvlivNntFuuU1BDPFUtqXbZXsft2tjPQO+mdzjhuc4d0PWEVhJ5cU0/wANNT2e82m63CShrofn0NRPQwvLHUXZ0rqWMslc39sBE70mlrMuyWkfRM6+4T6j1DTQSQ3i3V9UbrQzydpYqdrxHHURuc4vLsu2saTt/eAx4rtSKK1rSWm67TkNRDWXKnrYZHB0bKe2x0jWHnk4YcEnl7lsqIgIiICIiAof9E45qUQfNMvAW9XbVdPcblI+GkuNVVVNe1skLxTiQ157Pbsy/Iq4h1IP7TPLaFsFv4IT0vDrWVjkZQT1l4Ne2mifRQU8bXOmlMEjnxMzyD2u2nO3OAB0XdkSxwOh4XatklM9Iyz6e+ZVMlTFTtDpoqyc05pvojnDF2Rdjm9+524gY2HsOj6KW2aWs1BU0popKOiipzCZhNs2NDcbwAHdOuB7B0WbxyUAYQSiIgIiICIiDAa0sEup9OVVrp5mwSTPicHuBIGyRr/D+zhcboeF2r4LlBUQ26yyRxSRTEV1W5pLmVlbLtGyN/IsqWHPLny54X0GmEHHqbhbNcNP6CtOoqKGSG2Wh1JdGskB9MRRhoBx6Q3sPUY8xgrz6C4PQ094qrtqG3fNRS18c1ppyylD4msYz03vgiaSe0DyBuxtIBHgu0ogpwiqKIGEREBERBBWr6t05ctQiCOgu1NQ0zMmSGotkdW17vB3pkYxz962gqEZcZ0Bwq1Bp+WsqKq62+kebzVVLAyx05fJE6UkEPByzc09P3c4WC1nwn1PqXVN+mhoaA2uoubKumqJK4iYYpaeIlkbo5ImnMTwXOY5xB5Y6r6DUhCHM+Euj7tpN90ivFDSUUJpqKnphTVBla9sTHNLjloIJyM+vnldNREaEREBR4qU8UGv6i+nB9/6LDBZfUD2umjYD6TRkrEBezT4xh5c/qlCu007qadkrOZaenmPJWkXpmLimm40tUyrhEkR5eI8j5L0rS6armpHl0D9ueo8CszBqBhb+3jLT5t5grw5aOUTxy6RnH3ZtFie/qbyk9yd/U3lJ7ljt5+mt0MsixPf1N5Se5O/qbyk9ydvP0boZZFie/qbyk9yd/U3lJ7k7efo3QyyLE9/U3lJ7k7+pvKT3J28/RuhlkWJ7+pvKT3J39TeUnuTt5+jdDLIsT39TeUnuTv6m8pPcnbz9G6GWRYnv6m8pPcnf1N5Se5O3n6N0MsixPf1N5Se5O/qbyk9ydvP0boZZFie/qbyk9yd/U3lJ7k7efo3QyyLE9/U3lJ7k7+pvKT3J28/RuhlkWJ7+pvKT3J39TeUnuTt5+jdDLIsT39TeUnuTv6m8pPcnbz9G6GWRYnv6m8pPcnf1N5Se5O3n6N0MsixPf1N5Se5O/qbyk9ydvP0boZZFie/qbyk9yd/U3lJ7k7efo3QyyLE9/U3lJ7k7+pvKT3J28/RuhlkWJ7+pvKT3J39TeUnuTt5+jdDKlQsX39TeUnuTv6m+rJ7k7efpN0MopCxXf1N9WT3J39TeUnuTt5+jdDLIsT39TeUnuTv6m8pPcnbz9LuhlkWJ7+pvKT3J39TeUnuTt5+jdDLKzU1LKaJ0khwAPf6liZtQN2kQRu3eBcViKirmqnZmeXY6DwC3jo5T5ZnUhRUTOqJnyvGC85x5KgKEXrjCnnnkRFWwbjgAknkAFuZqLdFIBPTmvXDa6qYZEW3+0cLNW21spWB8g3Snz8FkhyXky15+yxjflrPcdX5M+JO46vyZ8S2ZFz7+bezFrPcdX5M+JO46vyZ8S2ZE7+Zsxaz3HV+TPiTuOr8mfEtmRO/mbMWs9x1fkz4k7jq/JnxLZkTv5mzFrPcdX5M+JO46vyZ8S2ZE7+Zsxaz3HV+TPiTuOr8mfEtmRO/mbMWs9x1fkz4k7jq/JnxLZkTv5mzFrPcdX5M+JO46vyZ8S2ZE7+Zsxaz3HV+TPiTuOr8mfEtmRO/mbMWs9x1fkz4k7jq/JnxLZkTv5mzFrPcdX5M+JO46vyZ8S2ZE7+Zsxaz3HV+TPiTuOr8mfEtmRO/mbMWs9x1fkz4k7jq/JnxLZkTv5mzFrPcdX5M+JO46vyZ8S2ZE7+Zsxaz3HV+TPiTuOr8mfEtmRO/mbMWs9x1fkz4k7jq/JnxLZkTv5mzFrPcdX5M+JO46vyZ8S2ZE7+Zsxaz3HV+TPiTuOr8mfEtmRO/mbMWs9x1fkz4k7jq/JnxLZkTv5mzFrPcdX5M+JO46vyZ8S2ZE7+Zsxaz3HV+TPiTuOr8mfEtmRO/mbMWpy2uqhGXREj+qcryEEHB5FbvhY65W1tWzfFhszf9ZdMdeb/MzOn6awilzSxxa4YcDghQvXE25TFCydkpxLVb3DIjGfvWMWb0+PTmPqC4a0/lbx5lnQj5GxNL5HBjQMkk4AQLC6vGdP1hc2R7GM3vawjm0cznPhy59eWeRXiiLl38QzXaNPQgqDMwODS8BzgSATzOFx+ma40sVLO5k0j43QMke5zQHybA2QYbnIPLn0ys1qWpfFqUNZUTMexlO1pbK0bQ5/7oLCcZAJ588YW9nNM7uHRmSNeAWuBB6EFO1Zv2B7d+M7c88ea53YY31FLUxUcznudSSxh8cr95cXAABzhtYW8+TSeZ5qyIYiRvgrRdCNwj21h/ZZ5t35z1wd2MepZ2rudL3tHLIym8eY960C8skp6Ogpq5rS80D2Nc+QmRzg5gLXHOHg7s9OoXk0xE1l9pnRtiBdO8gsj2YYYnYH0G5GRnxHJXbxZM8umIob5qVyaEREBERAREQEREBERAREQEREBERAREQEREBERAREQEREBERAREQEREBF5q+Oeajmjo5/m1Q5pEcu3dtd4HHisPpO/yXukqG1UbW1VHMYJnRndG9w8WO8R+S1ETMWNhREQaxfKfsaveOkoz96xizeov6SD2H9FhF9DRm8HCfIs3p/rP7G/qsIs3p/rP7B+qzrfSmP1M6FZrqSOvo56WbPZzRujdg4OCMFXkXhd2BdpC3EwkmozE9j25ncRlpBGQfWAvXV6fpK6d003aB7nRucWuxnYSWj2ZKyaK3PtOGJp9N0dK4mF1QP2bo2Azu/ZtcQTt58ugVH8lqLtu27av7Xbs3fPpc4znH0lmUS5VjaqwUVY2lFUx0ppiDE97y5w9JruZPM82jKpp9OUFJXNq6aLsXtBw1mGtJwRkgdTgn3rKIlycKgMIqUWaLVIqUSi1SKlEotUipRKLVIqUSi1SKlEotUipRKLVIqUSi1SKlEotUipRKLVIqUSi1SKApSlERQSlCUytdvus7Rp8EVtU1032MfpPP3eH3rQbjxkle0ttVuazyfO/P4D+K+b1HyPS9NNamfL6PTfHdX1UXp4TXvxDsCL53qeIepbg/lWviGfo07A3/f8AivOblqqs/aRT3ebzLDIR+C+XPz2jP0YZS+pHwGvEXnqY4/xfSCL5w7TVn1r17pU7TVnnevdKp+3Y/wCzk3+wZ/72L6PRfOHa6tHQ3ofdKjdXaot7h2ldWs2HpNkj79wT9vacfVpZRCfsDUn6NXGX0PXUjK+jmppHyRsmYWF0btrgD5HwUW+301rpIqSgibBTxN2sY3w/8+a5FaOL9XC5rLzSMqI/GSH0Xe48j+C3q2cQtP3N7WR1zYJHdGzjZ92Ty/FfU6f5TpOoisc+fU8Pl6/xnV9NP58OPccw2xFajlZK0OjcHNPQg5yrmQvp3b5jA6i/pIPYf0WEWb1F9OD2H9FhF9DR+h58pqRZvT/Wf2D9VhFm9P8AWf2D9VNb6Vx+pnURF4XUREQEREBERAREQEREBERAREQEREBERAREQERUOmjbIyNz2iR+drSeZx1wEFaIiAiIgIiIJClQFEj2xtLnHaB1JUma5ahRPOyCN8kzmsjYC5znHAAXHNYcUZ6t8lHp1/Y059F1Rj0n/wBnyHrXh17rae/1clut0jm26N2zDOsxz19nkPFbBoPhx2RZctQRNc/O6GncM49bvX6l+W6jrNb5DWnpuk4iPOX9/wBy/U9P0eh8fox1PWczP04tR09w9u2ogKh7fmlLIcmWbO53rA6ldKtnCuxUIY6oZLWyN6mV+Af80Ld2tDRhoAA8lK9/S/EdN08XlG6fcvB1XzHV9RNRltx9Rw8lHaqKhbto6WCBvkyMBersx4Ae5VBTnC+zjjjhFYxT40zOU3M2p2BC0eSq69EVpFG0eStTUkNRGY54mSsPVrm5BXoRJiJ8kcTcOfaq4ZW+50z5LLDHQ1ucjGQx3qI8Fz2XhhqSJj3fM45A0Hk2ZpJ9i+gSOaEZ6r4vU/DdJ1Oe+Yqf04fa6b5nrOmx2RNx+vL5vtGob1pCvDB20O0/tKWYENI9h6e0Lrul+I1tv+2Go/wGsJwI5Hcnew+PsXv1hpWm1JapYzGxtYxuYJsc2nyz5FfO0kb4JXMkBZIxxaQeoIXwNXU6r4PUjCMt2nPi/wC+H3tLT6X5zTnKcdupHr++f9X0fqA5fBjpg/osKtH0dquurZ4rZcJHVLA0mJ7ubmYGcE+I5LeF+8+M6zT63p41cH4vr+k1Oi150s/7gWb0/wBZ/YP1WEWb0/1n9g/VezW+l5MfqZ1EReF1EREBFG4eYTcPNBIVSoDh4EKrcEWEoVAIPRSUVSiIjIiIgIiICIiAiIgIih3Tkg1nUdw1Jbr3YnWS2090ss8phuTd+yen3Y2TNJIa5jcHc3rzBHRaPqDjdwyt2sKSC6asgiuNtMsT2RwySxMc/AIfI1pa0jb58vFZ3iDLqpvDnWT6ZtNHcW2uc0JonPdJu2O58x9LHTHisDwbodEu4M2bu+K2S2qS3MdcnTBhDptn7btifHduznp7MLUDcm3++XTVVsh0/R0U2kn0fzqpuz5g/ty4EMjgDXdcgOLncschzW4D1rgfycnXD+b69jTQZJaY9Q1rLCaxzgw0W8YwRzxu34+9dzoDVGli7xEQqtv7TsSSzPqzzwosPSiIooiIggrl3FHWAp43WW3Sftnj/CnNP0Wn932nx9XtW/6gu0VktFVXT/RhYSB5u8B78LgumrVLrDUzW1ZL2SPM1S7+rnJH38h96/PfL9VnjGPS6P1Z/wBIfoPiOlwynLqtb6NPn98tq4X6ONRKy9XFn7NhPzdhH0j9Y+oeC7ABj2K3T08VLDHDTsbHFG0Na1owAB4K6vp9F0ePRaEaeP8AH9ZfN63q8+t1p1M/4fpArVTOylp5Z5d2yJhe7a0uOAMnAHMn1BXsK3OP2T85xjw6r3PC5VDxbp9fSXqy8L6yllvlLbYq6lmrGHsXkyFr4nsyHscNu05AI3g4OOeq8CL9rOt0tfrpqWKmpbXTVNw+bwvkM076j5xI5+X5wGMOYwMc8E8hhc/LtFTXe4RcOKfXDeK7ZXFz3yP+dNdy/wAYdITB2P0c58MK7wVh1VHQXOq1zLcBaoXXP5q6klibQ/OTNIycTMGHueZHO2dRjp0XWI4YmeLd+03PX012soqbhPWsutDJPKybBDHgMPoYAwPSxj1Lf1y7T9ycL1p1lcGwilhko2k5HpGCBwB/rElwx6l1EHIympFSzpTeIiIuTqIERBLhkLhfFWyNtl7iq4G7WVrS5w8A8EZ9+QV3TK59xbtnzvT8dW1uX0koOf6ruR/HC+N8x08a/R5TXMc/yfZ+G150Otw54y4n+P8A+vBpiCiksFvraekhhqpGOjmkYwAvLTjn+BWXWk8O7g59LVULzlsT+1Zz+tyP5D3rdl9f4XUx1eg08sYp4vldLLS63Uwyn7/0+ws3p/rP7B+qwizen+s/sH6r6Gt9L5mP1M6iIvC6itzx9tDJGDt3tLc+WQriBB8fn5FV7JJ/nNqBkk4+YSH/AP7LMaS+SLeNNaos15m4hzV8durYal9MaJ7RKGPDi3PbHGcY6FfVSLp3MqoqHFOOHAuu4uVdmnoNUSadFvjlY5rKd0va7y055PbjG319Vyf/ANCm95//AKmT4/8A8e//AMdfYaKRnljFQtRLnvBnhtU8K9IPsVdenX6V1ZJUCpdEY8BzWjbgud02+fiuhIizM3zKqUVSKJSlFUiFKUVSIUpRVIhSlFUeipRBOqIg1nUVNqatvVjisFXSW+zMlM10meztJpWtxthY0jADsnL85AHLqueX7gDwzrtVU7q3T72VFzfJLJFTVMkVPI5gBJfG1wHPPgF2lW3wRvlZK6NrpGZDXEc2564KsTMDUorNfLHqS1Q6bdbotGMpPm01t7IROpXNyWSRFo9IHIaWnpjI8VuQGFCKKqRUqQhaUPRFSUVy7jHduzo6K2Md/TPM0gHk3kB7z+C9PCS0Cls81xkb+0q5MNJHRjeX55Wn8V6h0mqjGekVOxrfvyf1XYNK0zaXTlrijGA2mZ+Iyvy3TR+J+W1c8v8AJxD9R1Mz03xOlp4/55uf7/kzCBSFK/VW/Lis1dMysppaebd2crCx21xacEYOCOY9oV5FBymLhHS6FF4uvCujo6G+1NuioKWOqJ+bxASFzpXEAve47y45JLixoyFo/CbSmsLbom5U9+lNxhhvk9XTwSU/YzPcyqk7XIPItfgSNPm4jphfRpTC3GUwzONw4HpvTVa65SQQuq5vnE8b3vlppIhCGSB+95eB6fLAAz9I813oDAHsU7U6LWec6k3LOnhsgRVAouTopRSVCAsHrGBtRpe7Md/zV7h7QMj8lnFiNU8tNXb/ACSX+6Vx14vSyj9JddGa1cZj3H+rh/D6QtvsjR0fA7I+8LqBC5boDlfh6oHfoupErwf4Ym+g/wDtL63+JP8A39/pCFm9P9Z/YP1WEWb0/wBZ/YP1X6PW+l+dx+pnURF4XUQIqXvbExz5XBjGjLnOOAB5koLiLTq7ifpm36pt2m5rjG+5XCCSoi7NwdGxjOpe8HDc+GeuFs9Nc6KseY6Wsp53gZ2xytcceeAVaaepFrurNc2PRVnfdr/WCKiZLHE50bTI7c94a30W5PUhZyKqgmx2UsbyRnAcCVBeJRc4qeO/D6ltrLjPqWlbSuqn0eWse9zZmZ3MLQ0kHAzzHMcwvZpPjFovXF2Nq0ve2V9eInTGEQSMOwEAn0mgeISpS4b2i1a98SdJaedWR3bUVqp6qkaXTUzq2MTDAzjYXZzjoPHIXh09xd0ZqWz0F0odQ2+GCuaHRR1NUyGUHONpY45ByMYRW7omcjKICIiAiIgHoqVJUIktO1jxMsGiLhbLfd6uH59cXPENMKiNspAje8ENc4Z3GPY3zc4BeXTHFW3apuNuo6W03mjNxgmnpZaqma1kjIiA85a8kAFzRzHUjzWkcbo62h1VpC9zV8lFb7fUTGljpGh8tRUmmndsc1wwQSyNjW+Pav6citO4eQQW3UukqO5VJ7stPato9QsllEFdUTNy+hDxiNzRNJI8HmHbI2tyWuAI7JfeLVpsFtvFZVW+7vfan1LKiGK3ySEGJofkuYC1rXsc1zXEgEO54wQMjbeIduuVlqLrFQ3lkEDI3PjdaKntHb+mxmzdJ69oOOp5L5n4kz2+9W7U1uprnKZY5a6SzVl8qo3U76V9LCx/ZGqDnTEzRytZ2WMHJ3NBGd94Zu07adGak7w1DT25kL4KqsrLNdKXYW9m1jNggYxzCdoaWuZku5Au6oOk27ixQ3Wipa+js93Zbqq4RUEFVUQNhbJK+UxHDXO3ja4HOWjpyyspq7iBb9FMnlvFJXmnio5Krt4YQ6I7Bl0ZeSAx2OY3loI6Hkccaj4dVFv4faLfcL1qOkqaq/0kz6Z9eR2PbVRkA245PAfz8nZWU4p1Vp07Uvtss1OZ5rVBSV1fdK6Ru9s9ZHFEJA17O0cGipeDkOaIzggEoN90nxfsesb8yy22KZlY+mkqAfndJO3YxzGuz2E0hacyNxkDPPyXQQvlrhDq2jqNeWd1XfLRXVNVFJSRsbcKqaWPfE2UhomqpRzdG1pw3JwOfgvqUIJVJ8VUoIRpwHin/wC19Qf+hj/JdssB/wCBLd/k0f8AdC45xbpTFqWObmBPTtP3gkLrGjqsV2mbXNnmadrT7QMH8l+X+O/L8l1ES/UfI/m+M6bKGdClAi/Tvy7nerOM+mtIXups9bUCqr6ahdWTU1LNE6ZrW4Jb2ZeHbgwl+PqglZbTuv6fUdwrrfDabrQVdHTRVMkdZAxmWSl4Zgh5GT2buRx0XEuMFBVM1/c5LpeG29l4sclso4Y3gRfNnuayV8pcORaHzSlwIw2Foz1B9/D2st7dQ3Ko1PU1NmDLI6jpKuSaem76pY+RrhnADmxRR424c3MjvouaTqEl0K6ca7Ja7PRXN9uvcsdVLTxbGWuZxjfLO2Esc4NLd7HkgtBJy3AySM++98VrTY7HTXee33iWColljbEKB0Uw7OJ8r3Fkuw7QyNxz445ZXy7rA0+pKK3F1yiobxSz0cFW/Uk1OJX0zbk6SLbHUMdNyjlD3vOGljcEP5432ppYKnh3pq26Xh7zrRdrkwQ2+upKhvzuSlqpAWvi2RdnueHBpDCGci3wVodVpeN+nay+VFsp4q6ZkVZBQNqoqV0sb6mT/iwWg428sk8uTvBpK9+quKtq0fNNFeaK4RmOaKKOQsjjim7QEhzZpHtjABa4EOcHAjpggngklmvcnEa3SXGmuNNdnw1r21TbNVPqWRR1EbWBkrKoDYWyOOGgM9P0mEkYznFvUVqtNde6akdbra8XKN7pKqumi7SpioJ6h8jGRzRlrjmniL2kZMmHAnASkdn0NxKtOvqq501njljltzIXzbp6eZpEpeG4dDLI3P7N2QSD05c1ui+f+BWoaKbVV9omXi1XSrnpgRJTVk80j2QVE8bR+2qJjtwd424/pPHkV9AZUlYQVCkqFFFq+v7vDatM1omIL6mN0Ebc8y5wx+AyVtBIAyeS4FxH1Cb7fTT0r+0paT9nHtOQ5/7x9fl9y+R8r1cdJ00zHmeI/i+t8V0k9Z1UYz4jmf4f7rPD6mfJd5pwP2cUJBPrJHL810teS0adbp2yUULgPnEuZZ3ebjjl93RetfQ+F6Wek6PHDLzPM/xeb5fqo6zrcs8fEcR/AWb0/wBZ/YP1WEWb0/1n9g/VfV1vpfLx+pnURF4XVIXku1tpLxbKy33OAVNHVQvhnicTh7HDBby58wV6srG6gsdHqezVlourZHUdZGY5RFK6Nxb6nNII+5Ft8Aak0PU6YdcrneOGNZbhX3+mioGl7H08NLu2/N2guJMkni4+PTC+peD2l7HQXS511u4X1mgqyOmETZ6qoEhqGPOXNaA92MFjSc+YWF138lXTt0tdHDpCOamq2XCCWd1bdal7TA12ZGgEu9IjocD2hdC0rwV0nou7Nu2n6eujrmRujaZrjNM3Dhg+i9xH4LrllEwzFvi+LTGmNS6CsNq0xY5NQcSrjXVFRVNhrJf2VJFNITvG/s2FzWtaOWeeeuM9S4SN0ZU8aLQeGVJPYGT6ZrGXCjmmkkmpKsStaWvErnYcOWPAruvBfhXFwy0sKWtp7e++zSSuq62lj5zNMr3MaXloccNcBz8lgdIcKNUUfFOo1vqqs0/2vzGalijtVG+F0xe5pEkpPVwDQM8/DyTfExQ+dOI7KSjAbeb3Z6jUFvv9RFNdaSiqoZq5sELd3bmFvoyM7YZc04PPJKz/AMnm50k3GShmnuonqJrfU0kMO2ueXPw2Q+nUZxhrc4BHUcua2uv+TBrGtooacapswcDcXzyPoZC6WStG2Z5O76oaB5Y8Vl9IfJ91tpnWtp1FPqay1PzOtlqJYmUMjS9ssbIpADu5HZGMeR5rW6Jxo+7hvGelo6jWnEardeKCnrY7/TCnoJ6SAvqAxjO0cJpBlobkZZnDs8wVPCO1xa94q0kcl2tVskNHiBhtNtl+cPY/tCxsMTdjTsDj2mNw24z0XZan5PGt75BebfertpqKmvF3lu9RcGUcs1ZDO52G9iSWhoDGtwc/vEcwMnL2LgNrPQurHai03qi16irqhrIJp9QUUjp4oQfSET2POMjPLAz4lN2NUzU2+iR0ClB0GeqLzy2IiKAiIgkdVKgdVKsLC3LBHNsMsbXlhy0uGdpxjI8uRVsUcLY2xNjYIm42sDRgY6YHTwC9CKqsvpYZGhskTHtHQOGQFbdbqNzdrqWEt3NdgxjGQcg+0HmF6kQW5YY5WtEsbXhrg5oc0HBHQ+1UPpopDl8bHH1tz/56q+eipRJWW0dO05bDGD5hoV4DAwEREFPVQgRYc04wWgzWyluUYJdTSbH4+q7ofeB704P3Y1FrqrdK/L6aTexv9R3+/PvW+X22x3i01VDN9GeMtB8j4H7jgrgmmLnNpDVDDVAtbHIYKlv9XOCfu6/cvyvWX0XyWHU/5cuJfq+j/wDXfGanTf5sOY/v+f8AN9FhSrcMrJo2PicHscAQR0IVxfqYmJi4flXnnooKhxM0EcpLdpL2A8vLn4clW+njkLTIxri3O3IzjIwfwKuoqLElJBMQZoY5COhc0FQ2hpmlhbTxB0bi5hDB6JIwSPI4JC9CILZgjdO2YsaZWNLWv28wDjIB8jge4Kh9HBIcvhY45zktHVX0QWI6SGI5iiYw9MtaAVdVSpQERa3rDVtPpa39o4CWrlyIYs9T5n1BctXVw0cJzzmoh00tLPWzjDCLmWv8UNWd10HdlHKW1dUPTLTzZH4+wnp71rHDTR3etQy7Vw/wOB/7JhH9I8ePsH5rXrPaq/XWoHdq90m92+pmI5Mb5foAvoK3UEFrooKSjYI4YWBrQvyvS4ZfLdV+K1I/Jj9MP1PV6mPxPS/hNOf+Zl9U+mK1AMGAe39FhlmdQ/Sg+/8AMLDL99o/Q/FZfWLN6f6z/d+qwizWnz6cw8cBTW+kj6meRSFC8LvIiIiCIiAiIgIiICIilAiIlAiIlAiIlAOqqVKKqqRUohapFSiFpPRQiIgiIgIEQIJIyOa4/wAWNNNp5WXmkacSkR1IA5A45O/T3LsK8N1tkN2oZ6OqG6GZha4fqvB13Sx1ehlpz5+3730eh6rLo+ox1Y8ff9zRuFWo2VttNrqZB85pf6Pc7m+P1ezp7l0dfON2tdy0NfmmN5Y+N2+mnA5Pb/56hdj0brSk1RSDJbDXxgCWAn8W+YXy/i+u4/C63GePH730/lehiJ/F6HOnlz+6W1ooBz0Ur9G/OiIiAiIgKk8lOVpGsuIlLp1xpKICquBGdufQj/tH9F59fqNPpsN+pNQ76OhqdRnGGnFyzGp9VUWmKTtat+6V4PZRNPpPP8PWuGyy3XXuogcGSeY7QB9CJn8AqqShvOu7u5xc6eVx9OV3JkbfyA9S7hpfStHpijEVI3fM4DtZnD0nn9B6l+X/AOf83qR/l0on+b9Reh8Hpz/m1p/lC/pzT9Lpy2x0lIwZAzJJjm93mVl1OFC/W6eGOlhGGMVEPyWeeWplOeU3MsBqH6UH3/mFhlmtQc3wDxwfzWFX09H6Hly+oWQs9QIKsB30X+isepadpyDgreeO6KTxNt4zhQsNbbuHgRVbgHDo8+PtWYDg4ZaQR5hfNnGcZqXaJiYSiIooiIgIiICIiAiIgIiICIiAiIgIiICIiAiIgIiICIiAgREFSIiNMTqCwUeobe+kr2ZaebHj6THeYK4bqDR920hVioiMj6drsxVUORt9uPolfRCpexkjS14DmkYIPivkdd8bpdb+aeMo8TD6vQ/Ja3QztjnGfMS4tYOLdbRgRXuIVsX2jAGvH6H8F0G18QrBcwNlcyneerJ/QI9/L8V5b3w0sl3e+Vkb6Od3V0BwD/mnktFuHB+6wOcbfU09UzPLdljv1H4r5mM/LdHxUamP9X1Jj4jrObnTy/p/t/o7G250bmhzaqBzT0IkH8VcZVwy57OaN/8AZcCuAHhtqcEhtsJA8e3jx/eVmTQeqKU//Js4J8Y3tP4tJWv2v1ePnpsv6/7M/sjpJ+nqcf6f7voaSqihYXySMY0dS52Atau3EOw2olr61tRI3qyAb+ftHL8VxwaG1PUvax1uqTnxkcAB95Kz9r4QXSocHXSpho2fVZ+0d/D8Un5Lr9aK0dCp/X+4I+N6DQ/Nr68THqP7la1JxTuF2a+ntcfd9Of32uzI4e3w+73rz6V4d1+oJ46q5NfS0Ljuc5/J8g9QPn5rpdi4d2ax7JOyNZVN6Szc8H1DoFtwAA5Jp/Fa3U6kavXZ3PqPBq/K6PTYTpdBhtj75T5l47ZaqS0UjKW3Qtghb4NHX1k+JXt6KApX6XHGMIrGKh+YymcsrmblUCoKgkDmTgeZWIul2axpipnbnHq4eC6Y4zlNQkzEMdeJxPVuA+iwbQsepJJ6nJ8SoX0sI2xTy3c2IiLU8Q1IrsVVNCMQyvYPIFXqO3y1h9H0GDq4/os3FZKWMDeHSH1lebLPGJ5IxmfDBd41f27/AHp3jV/bu962LuijP/Ej3lT3RRfYD3lc+5h6Xt5e2ud41f27veneNX9u73rY+6KL7Ae8p3RRfYD3lXuYejt5e2ud41f27veneNX9u73rY+6KL7Ae8p3RRfYD3lO5h6O3l7a53jV/bu96d41f27vetj7oovsB7yndFF9gPeU7mHo7eXtrneNX9u73p3jV/bu962Puii+wHvKd0UX2A95TuYejt5e2ud41f27veneNX9u73rY+6KL7Ae8p3RRfYD3lO5h6O3l7a53jV/bu96d41f27vetj7oovsB7yndFF9gPeU7mHo7eXtrneNX9u73p3jV/bu962Puii+wHvKd0UX2A95TuYejt5e2ud41f27veneNX9u73rY+6KL7Ae8p3RRfYD3lO5h6O3l7a53jV/bu96d41f27vetj7oovsB7yndFF9gPeU7mHo7eXtrneNX9u73p3jV/bu962Puii+wHvKd0UX2A95TuYejt5e2ud41f27veneNX9u73rY+6KL7Ae8p3RRfYD3lO5h6O3l7a53jV/bu96d41f27vetj7oovsB7yndFF9gPeU7mHo7eXtrneNX9u73p3jV/bu962Puii+wHvKd0UX2A95TuYejt5e2ud41f27veneNX9u73rY+6KL7Ae8p3RRfYD3lO5h6O3l7a53jV/bu96d41f27vetj7oovsB7yndFF9gPeU7mHo7eXtrneNX9u73p3jV/bu962Puii+wHvKd0UX2A95TuYejt5e2uC41XjO73qe86n7d3vWx90UX2A95Tuij+wHvKdzD0uzL21zvKq/5w/3p3jVnpO/3rZO6qP7Ee8qDaaM9YR7yp3MPRsy9tc7wq/t3e9O8az7d3vWx90UX2A95Tuii+wHvKncx9J28vbXe8az7d3vUG41f27vetj7oovsB7yndFH9gPeU7mPo7eXtrD55Zf6WV7v8AOVorZpbHSvB7MOjPgQcrC11uloyC/DmE4Dgu2OpjlLOWGUPEiIu0MRNCv0dOaqoZG3x6nyCsLMWBgMsz/JoCzqTWLrHM0zscbYmNYwABowFWiL5rtQiIq0IiICIiAiIgIiICIiAiIgIiICIiAiIgIiICIiAiIgIiICIiAiIgIiICIiAiIgIiICIiAqJI2SsLJAHNI5hVog0+tpvmtS+PwB5Z8l51mdQMAlieOpaQfuWGXvwndjEvHlFTQs3p/wD4/wC5e3uak+zPxK9T2+KnLuxDmZ64cuGepGUU7441NvUit9jz+k73qexH1n/EvM6q0VBiaOr3/EoEbT+8/wCJLFxFR2LfrP8AiTsR9Z/xIK0VPYj6z/iTsR9Z/wASCpFT2I+s/wCJR2I+s/4kFaKjsW/Wf8Sdi36z/iSxWio7Jv13/EnZN+u/4ksVoqexH1n/ABKOxH1n/ElitFR2LfrP+JOxb9Z/xIK0VHYt+s/4k7Fv1n/EgrRUdiPrP+JOxH1n/ElitFR2LfrP+JOxb9Z/xJYrRU9iPrP+JOxH1n/ElipFR2LfrP8AiTsW/Wf8SCtFR2LfrP8AiTsW/Wf8SCtFR2LfrP8AiTsW/Wf8SWK0VHZN+u/4lHZt+u/4ksXEVHZN+s/4k7Fv1n/ElitFR2LfrP8AiTsW/Wf8SCtFR2LfrP8AiTsR9Z/xIK0VPYj6z/iUdiPrP+JBWioMTfrP+JR2bfrP96WLiKjsW/Wf8SdiPrP+JBhNQnJg/wA79FhVt09vgqCO3Bfjpkq13NR/Zf6xXpw1IxxqXDLCcsre9SFCkLzusJXhu9yitFvnrajJjibnA6uPQAesnAXuWua1wyzxzSDMFPWU8s39hsrST93X7lYi5pZ8PNT2KtvDBVajrKiJ8npNo6aZ0UcIPgS0guPmScepUz2aqtDX1Gmq+eZ0POWhnnMrJB5AuJLHeRzj1K5rY3ie0MpdLscaqreGmdrg0RR9Sc+vpy81c0fp3+S9j7CqlE1W9zpambJO559Z54AAXWJ/Lcz/AAc/vUMxarlDd7fT1tISYp2Bzc9R5g+sHl9y9oWtaGGbCJWgiKepqJYQfs3SuLfwOVsoXPKKmYbhKIiy0IUQoKV47rcobPb6iuqyeygZuIHU+QHrJwPvXsWua29GxiVwzDBV08sw/qNlaXfhzVxi5iBYprNcL0wVV+r6qk7T0mUVJMYmxN8A5w9JzvPnhRV2y46ejdW2atqq6GMbpaGpkMu9o67HH0g7yySCvRNbrtNLdJaW8BkNVC0UTRCD83dj6WfHKqbSXKlqaSpq7uH0dNSFtVGYgBK8D6efD2epdOXFmrfXQ3Kigq6V2+Gdgew+or0Fa9odjmaZoiWlrZDJJG0+DHSOc0fCQthK4zFTTtCERFQREQSFgdXaop9I2p9xrYZpoWuDXCLbkZ8eZHs+9Z4Bcl4/SubpCkaCcPrmA+v0Hn9F7eh0Y6nqtPRnxlLx9bq5aHTZ6mPmIchu3FTVFyuFTPBd6mjp3yOMUMbw0MbnkOQ8l6NP8WdSWu6Us1wudTXUTHjtoZCHbmeOCfHHReWy3C0U+lqqDULoKuR5PzGBsBdNE7nlxeC3a0nngk+eFGrbhaau0ULNMup6alYf21IIDHNv54c5xc7ePYeXkv6VGl0meX4b8Nxe3dXH77q7/wDP3fzzHW6nGO/3ufNX/wCLfU+nb7FqS0U1ypoZYIagEsbLjdjOM8iR+Kyq51wRkdJw/oA4k7ZZmjP9sn9V0VfzDq9GOn6jPSjxjMx/KX9G6XUnW0MNTLzMRKkohRed6RERAWK1RPJS6duk9O90csdLI5j2nBaQ04IKyqwur+el7x/kcv8AdKsfVCT4liorDSMhohV3u6RzVLBsa65PaXuxk4Gea8F9t0NJYbnX2q9XKWWkjcQ4XBz2h7fAjOPaFnrjp6m1HYqSnqnOikZGx8M8Zw+J4Aw5pWP1BaKWx6BuVFQM2RR0r+ZOS4nq4nxJXeM7ny51LbICXQRuccktBJVxW6b/ABaL+yPyVxef7uoiIgKQoUhBK8F5ukVmts9ZOHObEOTG/Se4nDWj1kkD7171rWsyI6CiqJc9hT3Cnlm8gwPHM+oEg/crEXKTNQ81PZKi6PZLqW41AqJW720VPUGGOIeXokOcR4klRU2yrsfa1GnK2erNP6U1vqJzKHt64aXEljsdPA+SyFTZZKjU1vuzZWdjTU0sRb4kuLSCPDHL8lFBaHW293y6TTM7GtETmjmCwMYQcrpbkylur4bpQ09ZSu3QzsD2n2/qvWFruh2/+rsDwNsc0s0sYxjDHSuc38CFsa5zFTTpCCFCqUHqosoUhQpCJCVbqII6qGSGdgkikaWva4ZBB6hXFRLKyFm+V4Y3IGSccycBGmsQW6+afaKe0up7pb2/0UVVKY5Yh9UPAIcB4ZGVE9tvd/b2F4NPbbe7+lhpZTJJKPql5A2tPjgZ9a2FtwpXytibURGR5cGt3DJLTh2PYeqsvvVtiz2twpGYODunaMHy6rW6Wah64YY6eFkMDBHFG0NY1owAB0CuAq1BPFUxNlp5GSxO+i9jsg+whXFlaVZTKpRFVZUZUIgK3PDHUwvinYHxvaWua4ZBB8FcVqoqoKOIy1c0cEQOC+RwaPeUGpW6h1NZRPSUlNQ1dA2Q/NO2rHB8cfg0nYc/p0Xpkst4vpEeoJqamt+QX0lIXOMw8nvIHo+oAZWcZd6CSaOGKtp5JX7trWygk4xn3ZC9HzyDtjD2rO1DdxZu54zjK6bpn7MRELjGCJrWxtDWtGAB0AVXNA4OGQcqVzptGEwpRBGEwpRBHgtH4m6Lq9bWWnobfPDBLFUCXMucEBrhjl7VvKg8gu2hrZ9Pqxq4eY5hy1tLHW0508/EuEWf5O4MLzfbsRLn0RSN9HHrLgqLv8nd7RGbFdgevaCrb7sFoXdIaqGcyiGRrzG/Y/B+i7GcH3heF+pbRH2m650eY928du3LdvXIz4L7EfO/JznujUn+UV/J8j9j/HxjWz+N8sTw80vUaQ0zT2usljnmje9znx52+k7PitrVmnqY6qNssD2yRvGWuacgj1K8vi6ueWrqZZ5+Zm5fX0sMdLTjDDxClEKLm6iIiAvBe6F9ztFdRRODH1ED42uPQEgjK96tVFTBRwmarmjgiBAL5HhoGfWVY4lJ5hrUNgvdRDFHcb2aeJjQ3s6GERkgDxe7J92FYuumb5U26poKe8x1VNUMMZFZAN7QfJ7cZ+8LZI7xbppmQxV9LJM/6LGzNLjyzyGfLmpfdaKKofBNVwRzMALmOkAIB6cvuWt0sVD1RM7OJjM5LQAqkY5sjA5jg5p5gjmCEXN0ERFQUhQiCrKsVVPFWU8kFQxssMrS17HDIIPUK6iDVqe33+xtFPbDTXWgbyiZVSmOWNvg3cAQ4D1gFJ7Ver+BBenU9vtx/pKelkL3zD6rnkDDT4gDn5rYZrhSUr2sqaqGF7yA1skgaTnyBVdNWQVjN9LMyZnLmxwPUZH4EFa3MbYhXDEyCNkcTQyNjQ1rR0AHgriIstipKqUYQQpChSEZhKxOo5qWK1S/Po+2YS0Mj3Fpe/OWjI6cwDnwxlZZUSRslaWyND2kcwRkI05lpkMZcKSkq5oXCN73Pk7SQMlfnI7N5fh5JOTy5c1TXyvpZ6+aNz5HNnkkYxtOYi5hY0FzSeRADTk+r1rpj6eGRrWyRsc1pBAc0HBHQqTDE5xcWNLi3aTjmR5LpOUenOMZ9sbpt7DbS2N7ZGtnmw5hyMGRzhg+whZYqmONkTdsTQxo6ADAVRXNuEIiIoiIgLWdduxYJGh21znjHpBvQE9T6gVsytyRsk5SMDx5OGQtY8SkxcU5dZoXMrKaqJEjXTwNHpYGOXQ4x++OXUbeqm5CifdqqupqanfBIOyjhgpYpHnbk9s4OacMLnOBd5AHmF0wUsLS0tiYC3mMNHJVshjic4xxtaXdSBjK3OdzblGEw8en44Y7TStp308oDBufTNa2NzscyA3l1WTVuNjYgQxoaCckNGOaryuTslFGUyglFGUyglYbUoqJaBtNSb2GolayWVpx2UecvcT4eiCB6yFmMqHtEjS1wyDyIKsTU2zlG6JhoVvkmdUVFytT3VMLbs+ORsb9zXwvYxpd5Ha4A58g5c/jikq7pUMa/tWmpbIAH7stGXjoM9B92fFd5jp44YxHCxrGDo1owArHd1KM4p4hkYOGDp5L1YdRGF8PBqdLOpERbFaK/wDZ+kH1DIzO7O7D3DOcDrjK2JWYYmwtDIgGsAwABgBXcry5TumZe7DHbjGPpBREUbEREBYLVRcaGnZG4NkdUs2kvDOmXHng45A+CzqolhjmAErGvA8HDKsTU2zPMOXaalLa61wunbtBicASdrD2I688bjy25GevklTSSyVNe6QRCna3M5ilaIpX5J2uLiS44HPBBwQF01tLGwYZGxoznAGOfmo+Zw7GsMMexpy1u0YBXTdzbnETELVndI+2Uz5gwOdG1wayPYGgjkNuTjC9qgDAUrk6x4EREUREQEREGlauL2Xe2yNk7EMeXbu3DSB2b8kNDHO/jnCaHO18rHySCWOMRdlIBva1hIBdyBGfAHnjPmtyMMZf2hY3tMY3Y548so2JjHve1oDn43EDmVvdxTG3m1zKlUqcrDaUUZTKCnKB2FCIyq3KMqEQTlMqEQTlTuVKIJ3KdypRBO5NyhEEl+fBM5UIrCiZwsFftWUFhcyCTtKy4S/0NFTN3zSH+z4D1nAXh0pqS53i6Xegvluht09EIXtZHN2h2yBxAcemRt8OXP1KtRTbMplQiNUnKZUIhUJymVCIVCcoCoQnChMKtyjK0t2pbzf6ueHR1LSijp5HRSXCtc7s3vHIiNjebsHluyAjdSXmwVdPFrKmpDRVMjYo7hRF3ZxvPICRrubQTy3ZIyssNzU5UdeiIzKcplQiclJymVCJyUnKZUInInKZK1e/6mrqC7U1qstq7zrJqd9SQ6pbC1rGua3qQcnLgvJ39q7/AOqMH/a7P9lORueUytf0vqGa+tro62h7vrKGpME0XbCUZ2h2Q4AZ5OCz6CcplQiFpymVCIWnKZUIhacplQiFpymVCIWnKblCIWIiKgiIgIiICIiAiIgIiIC17WjL2+yOGlzir7RvabS0Sdn+9sLvR3eWVsKKwsNJ0G7TrGVEdpbLHdwf8NbW5+eF3iX7uZHrHLyV+xYOv9W/5PQ/3ZFk7/pO3ah2SVLHwVsXOCrp3dnNEfMOH5HIXh0vpq4We53Wuu1yZcZqxsMYeIRGdkYcAXAcsndzx5KzKtqREUtbkRESy5EREsuReS6NlfbaxtKcTmB4jP8AW2nH4r1olltV4eSwS6LsopeQZTNjkb4tlbyeD69wOU4hPp2aLvTasAiSmdHG09XSu5MA9e4jCprNH1FNX1FfpW6Ps81S7fUQmITQSP8ArbDja4+JBGVTSaOqKmvpq7VV1kvEtM7fBA2EQwRv8HbBnLh4Ek4URsdrZLHbaNtUczthYJOf72Bn8V60RZbmLERFbTbAiIlm2BERLNsNPn58TaEf/ck//wC9GtuDTla5ftMVdyu1LdLRdpLVWQwPp3OEDJQ9jnNdjDuhy0LyHTuqPHWMn/ZsKWkxEQnRh/4X1cf/AL2P/wC1GtvWB0xp2SwMrnVNc+41VbUGeaZ0bY8u2huA0chyaFnlWBERAREQEREBFKIIREQEUqEBERAREQEREBERAREQEREBERAREVlRERRRERAREQEREBERAREUWJEREWxERCxERCxERISZsREWmRERAREQEREBMoiAiIgIiIP/2Q==&quot;&gt;" style="whiteSpace=wrap;html=1;aspect=fixed;" parent="1" vertex="1">
          <mxGeometry x="770" y="390" width="80" height="80" as="geometry" />
        </mxCell>
        <mxCell id="Frh8cE9C2xZXRnHZwvkW-11" value="&lt;img height=&quot;520&quot; width=&quot;234&quot; src=&quot;https://img1.xcarimg.com/aikahao/96/1f/961f4d61c79e208d030e7a397c6bac4d.jpeg-w852wm0.jpg&quot;&gt;" style="whiteSpace=wrap;html=1;aspect=fixed;" parent="1" vertex="1">
          <mxGeometry x="990" y="260" width="80" height="80" as="geometry" />
        </mxCell>
        <mxCell id="Frh8cE9C2xZXRnHZwvkW-12" value="281KM，续航" style="text;html=1;strokeColor=none;fillColor=none;align=center;verticalAlign=middle;whiteSpace=wrap;rounded=0;" parent="1" vertex="1">
          <mxGeometry x="360" y="170" width="125" height="30" as="geometry" />
        </mxCell>
        <mxCell id="Frh8cE9C2xZXRnHZwvkW-13" value="车辆图片" style="rounded=0;whiteSpace=wrap;html=1;" parent="1" vertex="1">
          <mxGeometry x="363" y="220" width="120" height="60" as="geometry" />
        </mxCell>
        <mxCell id="Frh8cE9C2xZXRnHZwvkW-14" value="定位：东莞市松山湖" style="rounded=0;whiteSpace=wrap;html=1;" parent="1" vertex="1">
          <mxGeometry x="270" y="300" width="340" height="30" as="geometry" />
        </mxCell>
        <mxCell id="Frh8cE9C2xZXRnHZwvkW-15" value="" style="rounded=1;whiteSpace=wrap;html=1;" parent="1" vertex="1">
          <mxGeometry x="270" y="350" width="330" height="100" as="geometry" />
        </mxCell>
        <mxCell id="Frh8cE9C2xZXRnHZwvkW-16" value="车辆控制" style="text;html=1;strokeColor=none;fillColor=none;align=center;verticalAlign=middle;whiteSpace=wrap;rounded=0;" parent="1" vertex="1">
          <mxGeometry x="270" y="350" width="100" height="30" as="geometry" />
        </mxCell>
        <mxCell id="Frh8cE9C2xZXRnHZwvkW-17" value="电量98%" style="text;html=1;strokeColor=none;fillColor=none;align=center;verticalAlign=middle;whiteSpace=wrap;rounded=0;" parent="1" vertex="1">
          <mxGeometry x="358" y="200" width="125" height="10" as="geometry" />
        </mxCell>
        <mxCell id="Frh8cE9C2xZXRnHZwvkW-18" value="锁车" style="text;html=1;strokeColor=none;fillColor=none;align=center;verticalAlign=middle;whiteSpace=wrap;rounded=0;" parent="1" vertex="1">
          <mxGeometry x="290" y="400" width="60" height="30" as="geometry" />
        </mxCell>
        <mxCell id="Frh8cE9C2xZXRnHZwvkW-19" value="解锁" style="text;html=1;strokeColor=none;fillColor=none;align=center;verticalAlign=middle;whiteSpace=wrap;rounded=0;" parent="1" vertex="1">
          <mxGeometry x="390.5" y="400" width="60" height="30" as="geometry" />
        </mxCell>
        <mxCell id="Frh8cE9C2xZXRnHZwvkW-20" value="临停" style="text;html=1;strokeColor=none;fillColor=none;align=center;verticalAlign=middle;whiteSpace=wrap;rounded=0;" parent="1" vertex="1">
          <mxGeometry x="497" y="400" width="60" height="30" as="geometry" />
        </mxCell>
        <mxCell id="Frh8cE9C2xZXRnHZwvkW-21" value="" style="rounded=1;whiteSpace=wrap;html=1;" parent="1" vertex="1">
          <mxGeometry x="271" y="480" width="329" height="110" as="geometry" />
        </mxCell>
        <mxCell id="Frh8cE9C2xZXRnHZwvkW-22" value="车辆信息" style="text;html=1;strokeColor=none;fillColor=none;align=center;verticalAlign=middle;whiteSpace=wrap;rounded=0;" parent="1" vertex="1">
          <mxGeometry x="271" y="480" width="100" height="30" as="geometry" />
        </mxCell>
        <mxCell id="Frh8cE9C2xZXRnHZwvkW-23" value="电量" style="text;html=1;strokeColor=none;fillColor=none;align=center;verticalAlign=middle;whiteSpace=wrap;rounded=0;" parent="1" vertex="1">
          <mxGeometry x="291" y="540" width="60" height="30" as="geometry" />
        </mxCell>
        <mxCell id="Frh8cE9C2xZXRnHZwvkW-24" value="电压" style="text;html=1;strokeColor=none;fillColor=none;align=center;verticalAlign=middle;whiteSpace=wrap;rounded=0;" parent="1" vertex="1">
          <mxGeometry x="384" y="540" width="60" height="30" as="geometry" />
        </mxCell>
        <mxCell id="Frh8cE9C2xZXRnHZwvkW-25" value="电池健康" style="text;html=1;strokeColor=none;fillColor=none;align=center;verticalAlign=middle;whiteSpace=wrap;rounded=0;" parent="1" vertex="1">
          <mxGeometry x="497" y="540" width="60" height="30" as="geometry" />
        </mxCell>
        <mxCell id="Frh8cE9C2xZXRnHZwvkW-26" value="更多" style="text;html=1;strokeColor=none;fillColor=none;align=center;verticalAlign=middle;whiteSpace=wrap;rounded=0;" parent="1" vertex="1">
          <mxGeometry x="540" y="480" width="60" height="30" as="geometry" />
        </mxCell>
        <mxCell id="Frh8cE9C2xZXRnHZwvkW-27" value="更多：点击弹窗按行显示：车架号；电池序列号；电机序列号；控制器序列号" style="text;html=1;strokeColor=none;fillColor=none;align=center;verticalAlign=middle;whiteSpace=wrap;rounded=0;" parent="1" vertex="1">
          <mxGeometry x="30" y="480" width="200" height="120" as="geometry" />
        </mxCell>
        <mxCell id="GAD59fB1mC1DH4GOqqyn-1" value="文本使用ion-item -&amp;gt;ion-label&lt;br&gt;图片ion-img&lt;br&gt;图标ion-ico&lt;br&gt;块状区域用ion-item，可以自定义css" style="text;html=1;strokeColor=none;fillColor=none;align=center;verticalAlign=middle;whiteSpace=wrap;rounded=0;" vertex="1" parent="1">
          <mxGeometry x="640" y="40" width="200" height="30" as="geometry" />
        </mxCell>
      </root>
    </mxGraphModel>
  </diagram>
  <diagram id="cMFi6KULl5eRFJet6s1B" name="我的">
    <mxGraphModel dx="1434" dy="806" grid="1" gridSize="10" guides="1" tooltips="1" connect="1" arrows="1" fold="1" page="1" pageScale="1" pageWidth="827" pageHeight="1169" math="0" shadow="0">
      <root>
        <mxCell id="0" />
        <mxCell id="1" parent="0" />
        <mxCell id="vsUDVbjHXeEc45g363e0-1" value="" style="rounded=0;whiteSpace=wrap;html=1;strokeColor=#EDEDED;strokeWidth=0;" parent="1" vertex="1">
          <mxGeometry x="230" y="100" width="410" height="630" as="geometry" />
        </mxCell>
        <mxCell id="vsUDVbjHXeEc45g363e0-2" value="" style="endArrow=none;html=1;rounded=0;exitX=0.002;exitY=0.868;exitDx=0;exitDy=0;exitPerimeter=0;entryX=1;entryY=0.868;entryDx=0;entryDy=0;entryPerimeter=0;" parent="1" source="vsUDVbjHXeEc45g363e0-1" target="vsUDVbjHXeEc45g363e0-1" edge="1">
          <mxGeometry width="50" height="50" relative="1" as="geometry">
            <mxPoint x="390" y="440" as="sourcePoint" />
            <mxPoint x="440" y="390" as="targetPoint" />
            <Array as="points">
              <mxPoint x="430" y="647" />
            </Array>
          </mxGeometry>
        </mxCell>
        <mxCell id="vsUDVbjHXeEc45g363e0-3" value="" style="endArrow=none;html=1;rounded=0;" parent="1" edge="1">
          <mxGeometry width="50" height="50" relative="1" as="geometry">
            <mxPoint x="430" y="730" as="sourcePoint" />
            <mxPoint x="430" y="650" as="targetPoint" />
          </mxGeometry>
        </mxCell>
        <mxCell id="vsUDVbjHXeEc45g363e0-4" value="用车" style="text;html=1;strokeColor=none;fillColor=none;align=center;verticalAlign=middle;whiteSpace=wrap;rounded=0;" parent="1" vertex="1">
          <mxGeometry x="280" y="680" width="60" height="30" as="geometry" />
        </mxCell>
        <mxCell id="vsUDVbjHXeEc45g363e0-5" value="我的" style="text;html=1;strokeColor=#6c8ebf;fillColor=#dae8fc;align=center;verticalAlign=middle;whiteSpace=wrap;rounded=0;" parent="1" vertex="1">
          <mxGeometry x="510" y="680" width="60" height="30" as="geometry" />
        </mxCell>
        <mxCell id="vsUDVbjHXeEc45g363e0-6" value="" style="ellipse;whiteSpace=wrap;html=1;aspect=fixed;" parent="1" vertex="1">
          <mxGeometry x="260" y="120" width="80" height="80" as="geometry" />
        </mxCell>
        <mxCell id="vsUDVbjHXeEc45g363e0-7" value="BIn.liu" style="text;html=1;strokeColor=none;fillColor=none;align=center;verticalAlign=middle;whiteSpace=wrap;rounded=0;" parent="1" vertex="1">
          <mxGeometry x="370" y="150" width="60" height="30" as="geometry" />
        </mxCell>
        <mxCell id="vsUDVbjHXeEc45g363e0-8" value="" style="shape=partialRectangle;whiteSpace=wrap;html=1;top=0;left=0;fillColor=none;direction=south;rotation=-135;" parent="1" vertex="1">
          <mxGeometry x="580" y="150" width="30" height="30" as="geometry" />
        </mxCell>
        <mxCell id="vsUDVbjHXeEc45g363e0-9" value="" style="rounded=0;whiteSpace=wrap;html=1;fillColor=#EDEDED;strokeColor=#EDEDED;" parent="1" vertex="1">
          <mxGeometry x="230" y="220" width="410" height="10" as="geometry" />
        </mxCell>
        <mxCell id="vsUDVbjHXeEc45g363e0-10" value="" style="shape=partialRectangle;whiteSpace=wrap;html=1;top=0;left=0;fillColor=none;direction=south;rotation=-135;" parent="1" vertex="1">
          <mxGeometry x="580" y="250" width="30" height="30" as="geometry" />
        </mxCell>
        <mxCell id="vsUDVbjHXeEc45g363e0-11" value="" style="shape=partialRectangle;whiteSpace=wrap;html=1;top=0;left=0;fillColor=none;direction=south;rotation=-135;" parent="1" vertex="1">
          <mxGeometry x="580" y="360" width="30" height="30" as="geometry" />
        </mxCell>
        <mxCell id="vsUDVbjHXeEc45g363e0-12" value="" style="shape=partialRectangle;whiteSpace=wrap;html=1;top=0;left=0;fillColor=none;direction=south;rotation=-135;" parent="1" vertex="1">
          <mxGeometry x="580" y="470" width="30" height="30" as="geometry" />
        </mxCell>
        <mxCell id="vsUDVbjHXeEc45g363e0-13" value="" style="shape=partialRectangle;whiteSpace=wrap;html=1;top=0;left=0;fillColor=none;direction=south;rotation=-135;" parent="1" vertex="1">
          <mxGeometry x="580" y="580" width="30" height="30" as="geometry" />
        </mxCell>
        <mxCell id="vsUDVbjHXeEc45g363e0-14" value="语言" style="text;html=1;strokeColor=none;fillColor=none;align=center;verticalAlign=middle;whiteSpace=wrap;rounded=0;" parent="1" vertex="1">
          <mxGeometry x="270" y="250" width="60" height="30" as="geometry" />
        </mxCell>
        <mxCell id="vsUDVbjHXeEc45g363e0-15" value="版本" style="text;html=1;strokeColor=none;fillColor=none;align=center;verticalAlign=middle;whiteSpace=wrap;rounded=0;" parent="1" vertex="1">
          <mxGeometry x="270" y="360" width="60" height="30" as="geometry" />
        </mxCell>
        <mxCell id="vsUDVbjHXeEc45g363e0-16" value="联系我们" style="text;html=1;strokeColor=none;fillColor=none;align=center;verticalAlign=middle;whiteSpace=wrap;rounded=0;" parent="1" vertex="1">
          <mxGeometry x="270" y="470" width="60" height="30" as="geometry" />
        </mxCell>
        <mxCell id="vsUDVbjHXeEc45g363e0-17" value="故障上报" style="text;html=1;strokeColor=none;fillColor=none;align=center;verticalAlign=middle;whiteSpace=wrap;rounded=0;" parent="1" vertex="1">
          <mxGeometry x="270" y="580" width="60" height="30" as="geometry" />
        </mxCell>
        <mxCell id="vsUDVbjHXeEc45g363e0-18" value="切换语言：简体中文&lt;br&gt;英语&lt;br&gt;西班牙语&lt;br&gt;" style="text;html=1;strokeColor=none;fillColor=none;align=center;verticalAlign=middle;whiteSpace=wrap;rounded=0;" parent="1" vertex="1">
          <mxGeometry x="640" y="250" width="370" height="50" as="geometry" />
        </mxCell>
        <mxCell id="vsUDVbjHXeEc45g363e0-19" value="点击显示版本，并检查版本，如果最新版本提示是否升级" style="text;html=1;strokeColor=none;fillColor=none;align=center;verticalAlign=middle;whiteSpace=wrap;rounded=0;" parent="1" vertex="1">
          <mxGeometry x="650" y="360" width="370" height="50" as="geometry" />
        </mxCell>
        <mxCell id="vsUDVbjHXeEc45g363e0-20" value="点击进入联系我们的页面，展示相关信息" style="text;html=1;strokeColor=none;fillColor=none;align=center;verticalAlign=middle;whiteSpace=wrap;rounded=0;" parent="1" vertex="1">
          <mxGeometry x="650" y="460" width="370" height="50" as="geometry" />
        </mxCell>
        <mxCell id="vsUDVbjHXeEc45g363e0-21" value="点击进入故障上报页面，提交故障图文说明" style="text;html=1;strokeColor=none;fillColor=none;align=center;verticalAlign=middle;whiteSpace=wrap;rounded=0;" parent="1" vertex="1">
          <mxGeometry x="650" y="570" width="370" height="50" as="geometry" />
        </mxCell>
        <mxCell id="vsUDVbjHXeEc45g363e0-22" value="点击进入修改个人资料页面" style="text;html=1;strokeColor=none;fillColor=none;align=center;verticalAlign=middle;whiteSpace=wrap;rounded=0;" parent="1" vertex="1">
          <mxGeometry x="650" y="140" width="370" height="50" as="geometry" />
        </mxCell>
        <mxCell id="Y8cF8PR_SUGqtuTaYssa-1" value="增加一项退出登录，进入到登录页面" style="text;html=1;strokeColor=none;fillColor=none;align=center;verticalAlign=middle;whiteSpace=wrap;rounded=0;" parent="1" vertex="1">
          <mxGeometry x="640" y="640" width="370" height="50" as="geometry" />
        </mxCell>
        <mxCell id="MIvO-FneP0AIj5rSGFTP-1" value="用户头像这里使用ion-avatar" style="text;html=1;align=center;verticalAlign=middle;resizable=0;points=[];autosize=1;strokeColor=none;fillColor=none;" vertex="1" parent="1">
          <mxGeometry x="1075" y="155" width="170" height="30" as="geometry" />
        </mxCell>
      </root>
    </mxGraphModel>
  </diagram>
  <diagram id="J0UGavcBG8syGKRLjq5c" name="修改个人资料">
    <mxGraphModel dx="1434" dy="806" grid="1" gridSize="10" guides="1" tooltips="1" connect="1" arrows="1" fold="1" page="1" pageScale="1" pageWidth="827" pageHeight="1169" math="0" shadow="0">
      <root>
        <mxCell id="0" />
        <mxCell id="1" parent="0" />
        <mxCell id="n_ThEIUripITBvw28ukr-1" value="" style="rounded=0;whiteSpace=wrap;html=1;strokeColor=#EDEDED;strokeWidth=0;" vertex="1" parent="1">
          <mxGeometry x="230" y="100" width="410" height="630" as="geometry" />
        </mxCell>
        <mxCell id="n_ThEIUripITBvw28ukr-3" value="" style="html=1;shadow=0;dashed=0;align=center;verticalAlign=middle;shape=mxgraph.arrows2.arrow;dy=0.6;dx=40;flipH=1;notch=0;" vertex="1" parent="1">
          <mxGeometry x="250" y="120" width="60" height="20" as="geometry" />
        </mxCell>
        <mxCell id="n_ThEIUripITBvw28ukr-4" value="修改资料" style="text;html=1;strokeColor=none;fillColor=none;align=center;verticalAlign=middle;whiteSpace=wrap;rounded=0;" vertex="1" parent="1">
          <mxGeometry x="384" y="120" width="60" height="30" as="geometry" />
        </mxCell>
        <mxCell id="n_ThEIUripITBvw28ukr-5" value="用户头像" style="text;html=1;strokeColor=none;fillColor=none;align=center;verticalAlign=middle;whiteSpace=wrap;rounded=0;" vertex="1" parent="1">
          <mxGeometry x="250" y="220" width="60" height="30" as="geometry" />
        </mxCell>
        <mxCell id="n_ThEIUripITBvw28ukr-6" value="" style="ellipse;whiteSpace=wrap;html=1;aspect=fixed;" vertex="1" parent="1">
          <mxGeometry x="520" y="195" width="80" height="80" as="geometry" />
        </mxCell>
        <mxCell id="n_ThEIUripITBvw28ukr-7" value="" style="triangle;whiteSpace=wrap;html=1;" vertex="1" parent="1">
          <mxGeometry x="610" y="225" width="20" height="20" as="geometry" />
        </mxCell>
        <mxCell id="n_ThEIUripITBvw28ukr-9" value="点击进入各项的修改，参考酷安个人资料修改" style="text;html=1;strokeColor=none;fillColor=none;align=center;verticalAlign=middle;whiteSpace=wrap;rounded=0;" vertex="1" parent="1">
          <mxGeometry x="670" y="215" width="140" height="30" as="geometry" />
        </mxCell>
        <mxCell id="n_ThEIUripITBvw28ukr-10" value="用户名" style="text;html=1;strokeColor=none;fillColor=none;align=center;verticalAlign=middle;whiteSpace=wrap;rounded=0;" vertex="1" parent="1">
          <mxGeometry x="250" y="290" width="60" height="30" as="geometry" />
        </mxCell>
        <mxCell id="n_ThEIUripITBvw28ukr-11" value="Bin.liu" style="text;html=1;strokeColor=none;fillColor=none;align=center;verticalAlign=middle;whiteSpace=wrap;rounded=0;" vertex="1" parent="1">
          <mxGeometry x="530" y="290" width="60" height="30" as="geometry" />
        </mxCell>
        <mxCell id="n_ThEIUripITBvw28ukr-12" value="邮箱" style="text;html=1;strokeColor=none;fillColor=none;align=center;verticalAlign=middle;whiteSpace=wrap;rounded=0;" vertex="1" parent="1">
          <mxGeometry x="250" y="350" width="60" height="30" as="geometry" />
        </mxCell>
        <mxCell id="n_ThEIUripITBvw28ukr-13" value="13344@qq.com" style="text;html=1;strokeColor=none;fillColor=none;align=center;verticalAlign=middle;whiteSpace=wrap;rounded=0;" vertex="1" parent="1">
          <mxGeometry x="530" y="350" width="60" height="30" as="geometry" />
        </mxCell>
        <mxCell id="n_ThEIUripITBvw28ukr-14" value="" style="triangle;whiteSpace=wrap;html=1;" vertex="1" parent="1">
          <mxGeometry x="610" y="295" width="20" height="20" as="geometry" />
        </mxCell>
        <mxCell id="n_ThEIUripITBvw28ukr-15" value="" style="triangle;whiteSpace=wrap;html=1;" vertex="1" parent="1">
          <mxGeometry x="610" y="355" width="20" height="20" as="geometry" />
        </mxCell>
      </root>
    </mxGraphModel>
  </diagram>
  <diagram id="izIux6QsrxiKRW9a0Qgi" name="登录注册">
    <mxGraphModel dx="1434" dy="806" grid="1" gridSize="10" guides="1" tooltips="1" connect="1" arrows="1" fold="1" page="1" pageScale="1" pageWidth="827" pageHeight="1169" math="0" shadow="0">
      <root>
        <mxCell id="0" />
        <mxCell id="1" parent="0" />
        <mxCell id="DLbalJQPhRF_PF3FXGdx-1" value="" style="shape=image;verticalLabelPosition=bottom;labelBackgroundColor=default;verticalAlign=top;aspect=fixed;imageAspect=0;image=data:image/png,iVBORw0KGgoAAAANSUhEUgAAAOoAAAIICAYAAABgh3LuAAAAAXNSR0IArs4c6QAAIABJREFUeF7sXQd4VcW2/vc56b1DII2E3kEQlK4IoqCIIupVr92r2Lvi9dn7tWHvigL2iiBgAaV3KQmdQCrpPTk55X3/OmcfTkISkpCEhMzcxxOSvWfPrFn/arNmjZabV2SDaooCigKtmgKaAmqrXh81OEUBoYACqmIERYE2QAEF1DawSGqIigIKqIoHFAXaAAUUUNvAIqkhKgoooCoeUBRoAxRQQG0Di6SGqCiggKp4QFGgDVBAAbUNLJIaYlulgAagafKJFFDbKg+chOO2wQab1crtffk/8rhm0MD/nchmsxFsNmiaoV7DsNnscxCIagDfN2jHNw8F1HqRvu08tHDRQphMJmHu0NBQ+Pr6Ii0tDaNHj4afn1+ViXz66acYMWIEEhISUFRchNmzX8f9990Ho9FY64Q3b9mM5ORknH322fD08Kz1uczDmZg3dx6uuOJyhIaG1fjcqtWrsGHdevy5bBm+/vprXHTRRThj7FicMnQINm/egn379mHatGkYNmxYlfd//vlncJ7lZeXycw8PD0ycOBHnTj4X7m7uzmcLCwvx84KfsWXLFkR2jER2djZCQkNw1513OZ9JTUtF4o5EoQ/70duSpUvw448/yjesBB5RV4u88Pfzx9SpUzF27Fh53eoQNklJuejWKxwazAJUw3EInDYB1KysLKRnpCO+S7wwGxnsq6++wqxZD2H48NOcxK2oqMDFMy5GQnwCnnjiCfz0809YsGCB8/effvIpNO3ESufmgjy1Eed27rlno7S0VKR4p8go9O3XDxvWb8BLL7+E2JhY+XxpWamAyGAwYO3a1di9ZxdCQoLx739fjY0bNuP2229HQECAc6j5+fn4888/hZE/nfMx0tJS4e3lg19/XVLrdJKTD+DWW29D//79MHnKFAwfNvyoZytNJpgqKzF9+nQsXPgLusTHYdZD/0XPnj1RVl6GgQMH4u677sInn3wq72ZlZ+GtN9/Cxo0bce+996J3794yz6SkJLzzzjsilB544AHExEQLqnJzc/Hmm2+KoCJI77jzDoSHh6Nb127OscydOxefzvkU8+fPR1BgkPz810WLcCgzB0NOORelxWYA/KPzDYWYXcPC5gHNoxg9unhhz+7dsNqA4acNh81mQKnmjhdf3IkH706AgRoV1KqNX/1WD9QNGzZgxowZuOKKK4TQO5N24vZbb8Xc+fPwxONP4JnnnoWXl5cs0umnnY4/l/2JtWvW4OtvvsHs12YLZQjg+IR4pKenw0ZqnoSNDEsz8ayzxmH8+PE4a8IEzH7tdcTFxmPdunV4/fXXERdHoNq55dChQ3j22Wewdu0a+Pn7ori4CHFxcXjyyafQo0cvh2ulobCoUDTn+vXr8fsfvyM6qhO+/OoLUHi+8ML/MHrUWAGVm5ubU8MuXLgQwcHBmDNnDsaMGYOSkhKcd/55uO222/DJxx/DzaH1TJUm/PTTT0hLTcPMmTOxatUqFBQWYO3atSKQP5vzGV599VXpg43CYu++vZg8eTI++vAjLF68GAajAaNGjcJ1110nApy/69O7jwgh0qSiohxvvf02fvjhBzzyyCPyZ/Gvi7F06VIEhwSL1v7oo4/w/XffIyjIDtSVK1fg71WH0LHzObDZvGE15OD9j59Bh4hITDzzMiz94zv07zMcMdF94O2Vj2nnd8aCH75FWkoqrr32Onh4BmDdNuCrrzNx352x8PSwwMe7EkaNgG9ca/VA5bR++eUXJCYlymJ89ukc5BcU4Pobrsdrr76Grl27CrEvufQSxMTEwNvLWxZl+/btmPXwLKHKSy+9JIxz7TXXNo5KbeAtV6DSnI2M7IQucQlYtXo11q21AzU2NtZpUZCpZ89+DdCsmDdvHi699BJh7MmTp+D//u//QEONoL755pli0p067FS88MIL6NQpUrTvTz/9gBkzLsHEiefgww8+xCmnnCLmp96uv/567NixA5deeqms27p1a5Gbm4eY2BgMGjhIHluzdg3Wr1uPMWPHiHZ88MEHceYZZ4r2u/CiC2Xdbpl5C/z9/Z39pqSm4IP3PxDhO3bsGFgsVtGw1LZXXnGlaGE2AtVsMeOP3//Aps2bMGDAAHz44Yfo26cvOLbbbr9NAB4YEIAPqwDVhpUrVuDvlcnoGDMZVqsvyivSsGnLYjGrTRVGpKXvRb8+p6J719HwD8jDtPNj8dN33+D12a/g6WeewaBTRuOWu7eg3NQZsJow4cwATJ/mB3ejqXb7+Rg81jaAumABEpOScN311yEvLw/33nMvLr/icnz/7Xe44t9XYty4cc6Aw+Ili0U63nPPPaIh+PyMSy7G0qW/NVUArtXBlmavHnihRh0xYiS8vX3RoUNHFBYUiuZxBSqfn/PpHMye/Qqg2fDee+/j448/wooVKzBlynn4738fcdJz06YtAgoq4ldfeRm7du/GeVOmoGNkRzBocs45k0Uj0s+lWckHU1JSQK3K7xJwtHS8vL1A62jCWROcPjBBR/2+es0a8fG+/uprBAYGoGu3bkhNSRFg03ekr603i8WCvLxcbNy4SbQiLalBgwYhPj4emZmZYl0NPXUoPNw9GJqSn23ZvAX9+vXFnM8+E1+YWpza/VhA7RRzLixWX+QV7MaOxBXw9PRFZbkF3t5e2LR5HS69+G6EhZsw7fwu+PH7bzD38zn4v0ceRZeuQzHvizwUlRuxZ08hpp3viTEj/GHQGm/NtSmgUhIGBAZg6z9bsWbNGmzbvg0Pz3pY/CmaQDSd3n37Hdx6222yWPTZXnv1Vfj6+uHqq68WKXsytipAHX8GRo4aBaPBHdEx0bCYLfjyyy/x9ttvOzUqn5/7+ed4bfYrsFotGDhoEDpERAiwCJiHHqQlojtUBtFWjAf8888mWCxm8cHGjT0Tw087FcHBQTjjjDMAG5+3/9m3fx/++OMPAebAAQPh7eONkSNGyprRHzW6GUWwUNPt2rkLNIGvuPwKXHXVVaJZO3fujC/mz0e3bt1wz333SiDItVWaKzF/3nyHH22D1WqTgNOBAwfEzKYF4O5uDyqtWLkCTz35lPi0NN0X/rJQ4ha33nZrrUD9/bffsGV7JuJiJ6CszIaCshSUlRUAMAKVGowGC9IzM9Grx3AEBZXi/Cn9sGjRzziwbz+uuPxqePkFiBebdtiK+V9k47qrwxAcUHlc0es2AdQFvyxAUmKSmCyBgYF49LFHxcSlJu3bty/mzf0co8eOxS03z8T+A/tw6qnDMGr0KFx66WW48cYb8dhjj6FrQteTOpBEpmScbMKECRgyZAjMZgs2bdoMX18fZGZkinnravqmpB7Cc889g9WrVzkxQK30+ONPoFu3HjA4tyI0CU7RdCUOD2dmoqCwUAJ71Ey0bAYPHuRgQh2skMjwf/7zH0y9YKr4zHRLXCOy/OimTRtFQ0d1jpLo8w8//iABL/rP/DNh4gQsWbwEN91001HytaysDAwEMcg4a9YsiT188cUXYODr6muuhpenl8PfXImnnn4K99x9j/i4BCn/UKOOHDkSgUGBYrp/99134rOynwP7D+DrH35BdlYp3IzUzBb5QwIYGBayWUQw2aDBw82EoGBPeHp4YdoFFyKiQwfY+DvNipwCE1aszMP5k2Jh0CpkfRrb2gRQi0uKZcuBzr7RYBTTiho0IiJC/CpG96hV09PSxS/h1oR/gD/CQsPAbYKwsDAxhU72ZrVZkJJyCJ6e3iKUykrLxPwjPTp16gQ3dzcXqU665WDf/r3iS3bv3g0xMbHo2CESmmasVaiVlZWKX0iTk6YrzV1PDw+X5+3cyAATA38UDkHBQTVqkwPJB+Dp6YmNGzZi4tkT8cLzL6Bb924YPny4WAIELv3eHt171Lh0hw8fBrVr506dZZ78N7dGOkR0cFpPBHRObg5CgkNE4JSUFKNzVBQOZx6Gt7e38FFBQYH04eZmFO1MIVdYWISyynJoRg2amKy0xnTT1T5HApL/496vt7s7gkNC5O/6U2YbA5k2+HuTPgR641ubAGrjp9e+3rRvzNtbw7ehbODrtb2nm9f2XITjUA2tdEmo7QhSzWCw74PaGJASODZgxEcsiga8VK9HFVDrRSb10ElPAWYQWW32bR3Ck9t4Gq2R4wVq06QRKqCe9ByoJtggClTBFVMB2U58EFIBtUGrqB5uXxRQQG1f661m20YpoIDaRhdODbt9UUABtX2tt5ptG6WAAmobXTg17PZFAQXU9rXearYnAQVabu/YZTvcSTcV9T0JWEhNoTkp0DT7oPUdoezaMm9acqePNAXU+lJQPddOKdCyQBWc1gBWBdR2yn5q2vWlQMsDtSawKqDWd73Uc+2UAicGqHawOkxgZjOqaxfbKf+padeTAicOqFLJUPxVBdR6LpZ6rP1SQAG1/a69mnkbosCxgaqf+a1pUs7qG408Nc5qGkqjtiF2UUNtnRRg4T0WNph+0fSjzvISpHv27JESQWeMOwNRUVENnoTd9NWUj9pgyqkXFAVcKPDjTz9Ksb2HH56Fyy+/ogpYWU945i0zpTjbk088iY4dOzaYdgqoDSaZekFR4GgKVJgqpKLjC88/j8cffxwXz5ghYK2srJSaTz4+PnjjjTcQFxvXKPLJnqrVoDRqo6inXlIUcKEA63m9/8H7ePqpJ/H++x9g7Lhx6N+/v9QjXrpkaa01o+pLRJsCan1JpZ5TFKibAqyz9Nxzz+GVV16W4m8hISHYkbgDbka34yKdCiYdF/nUy4oCVSnAwnL79+/HzJtvxpq1a/HV119h3Nhxja4lXT2NUCU8KI5TFDhOChCku3fvlvrCZrNZSrOyxvA7776DqedPlZKkDa3cqAeR9KEpoB7nIqnX2zcFuAXDCv333XefFC1/+umnEdclDq/Pfh2zX3tN7vG59LLL5HaAhoBVN3kVUNs3f6nZNxEFcvNy5ToOdw93vPjCi0jomiCApM/6wQcf4OWXX8IDDz6If132rzrvna0+HKVRm2iBVDeKAqTA3ffcLZX+P//8czF5XVt5RblcBfnF/C/w3PPPYcgpQxpENPtF5/ZSpcr0bRDp1MOKAtWCSLyVxmyRS6n0mwr0/3I/1fl33mLckFrejs+ohAfFcYoCTUmBY6cEN+prCqiNIpt6SVGgZSmggNqy9FZfUxQ4Dgpo0PLyixthOR/HN9WrigKKAg2mgAJqg0mmXlAUaHkKKKC2PM3VFxUFGkwBBdQGk0y9oCjQ8hRQQG15mqsvKgo0mAIKqA0mmXpBUaDlKaCA2vI0V19UFGgwBRRQG0wy9YKiQMtTQAG15Wmuvqgo0GAKKKA2mGTqBUWBlqeAAmrL01x9UVGgwRRQQG0wydQLigItTwEF1JanufqiokCDKaCA2mCSqRcUBVqeAgqoLU9z9UVFgQZTQAG1wSRTLygKtDwFWjVQrTYriouL4e/nf9RNWSRVpblS6tV4eXk5KWexWFBWVgZfX98a32ENG1aIq97MFrPUZPX18QWLUvEZH2+fKo/xGavl6HddH2IN17qqo/P7FRUV8orruF37YAlKfkfq7WiQMpT6mNk//713317Ed4k/ao4FBQUIDAx0dldaVopKUyX8/P1gNLBQFmuG1N50+nl6ekodINVaBwVaBVBzc3ORmprqpAiLQvXs1VPqpT700EP45JNP4O3lXYViZOYVK1Zg+bLluPnmmxEYGICtW7cJA//888944IEHUFRY5HynQ8cO6NypMzIPZ2LDhg1VAMfvZedkY/PmzbjpPzfh62++RlhoKG644cYq3/zjjz+QmJhYdRxSKu5I69u3D8aMGVvr6uqV6YwGI6699toan6PAWL58OUgXo9GIPn36YNOmjYCmoV/ffiJQZsyYgY8++gjh4eGIj7cD1maz4szx4/HKy6+ge4/uIjBeeOEFLFu2DI899hgiIiKcwCYQQ0JD4OnhWWUMW/7ZgqeefAo33XwTxo0bd/T4VJmBE4LcVgHURYsW4tVXXwPBV1FegfLycixcuBCPPvYodmzfgRtuuAEaq7g52oXTLpRnt2zZIgWPWY38/PPPx/jx4zFm7BhhXmqGlStWIj4hHn/++Scunn6xgDdpZxL+75H/EwCwUHJOdo4A97bbbsPSpUulPmtgQCDuvvturF+/XvrV27fffov1G9ZXqyZ3hHMXL1mCcyadI7d6VW9yoS0AU4VJSkhyPtdde12Ni15SWiIg5g1gi5csxv333S9XJJSXleOUU07BunVr0bVrN5SUlICAmz17tsyHc37++eex6NdFuPWWW9GnT288+eRTyM/PR4cOHapo365du+Kyf12G2JhYrF27FodSDslYNm5cjwU//4wZl1yCHj16HHmH93RCw+DBgxEbG3tCmLU9f7RVAPXgwYOgJGejNmSd1MWLF2PEyBEYOmQo3NzdxNyrqCgXrblx4wZo/LepQuqp0pS8ZMYlOHvS2XJpLE29jz7+SMzFq6+6GudPPR9jRo+RKwcImO++/Q4rVvyNa6+9DvPnz5f+77rzLrz3/ntYtXIVLph2ATIzMvHd999h2Z/LnPyxd+9eAXNhYaH9Z9WsyK+++gqTzp4k2qt6e+PNN3DaaaehT+8+dqBqGq677jop0hwXF4czzzzT+UppaSmuuuoqvPvuu/LzRx55BOnp6TicdVgsgfSMdISFhuGiiy7C+++/L0A1iFlLpavh+++/lzESoJs2bcK4cWPh6XnEPeBzoWGhGDxoMIKDg0FLYd++vUhNS8H8+XMxZsxoDBlyipjedvHCUpfs34DRo0aLtm5I1ff2DLCmmnurACpN2KSkJFx73bX473//i5ycHHRNSMC8+fPx/HPP4+8Vf2PaBdMEVNRoC39Z6Jx/RmaG+KlkvDFjxgjQeDclgUotc/311+PsiWdj1OhRmPXQLHkvOztbGJxm7MZNG3H+eecjLCwUKampol3IoAR47969MXz4cOe30tLTsHHjRhBINTWanGdNOAuPPVoVqIcPH8Z555+HL+bPR8eOkVWAyotukxKTRAAQZGw6UKnNX331Vdx//31YtXq1mPKRkR1xOCsLHu7ucHNzB7Xvm2++CZvVhtmvz0bPHj0xceJEbNu+TeZLPzg4JBg0tfXGm8YuuOACDBo0SDBI0NGc/vbbr/HTzz/hkUf+i99+X4rsrGxZD177Z5dKzVQTs6m4+STup1UAlYChBrn1tluxY8cOjB07Fk888QSuv+569O3XFx99+BFmzXoIjz3+OC6//HKMOH0EUlJSBIQMrtxx+x3yzshRI6sAlT4anyHjjh49Wvxdtn/++Ucql/MmaAZeXIM6CfEJwqxpqWl45tlncNrw0wS41E70YyWYVEs85sYbbxRw333X3XLtXlBQkHyP1xp8/PEn4gPzLk1XjUqhQcuBgKRAYSP4rr76ahQXFYMgv+POO/Dyyy8LoM6dfC6ysrIwc+ZMMf3//utvuSiXIH/vvXfx2Wefy92cV199FebMmYPbb7/DWQRa52M3NzcBLwNnOlDz8vJw4YUXSP933nkHbr31FiQnJ2PBggWwWuxBJSpte0Fp5ai2tExoFUBldPfXRb/i6WeeFj/r1VdeFa1Cf3Pd2nWiHZ988kksWbJErrKjD0pNygt4UlNSxZ+bMmXKMYFKv3Pu3Ln43//+J0Lh31f+2wlSXZvpC0CQfvzRx+jSJQ4LFy4SDfziiy9WjRhrqKKp+C7N7YCAANxy6y248oorpbtLL7tULrV97933xEx3BSp/P2LECPn9okWLnEC95upr8Pbbb4uG/u/D/xXTl6Cm5qMJ/NCDD4lWZNCH2l8f/86dO4UeP/zwvWj/ykozSF8dW/SNY6JjJEDFv+sm7JQp5yIvP18EnkHTxIrJzMzA9OkXyZyITwrCiRMmAeKvqtaSFGgVQKUnlHwgGU899ZREbd9840107dZVQLBmzRq8/MrLePTRR9GrZ68q2oHvUdvSz9KB+tfyv4SpFy5aKFHP6hp13/59SEtLE01B3ywoMOioLQ4KAX6L/u/PC37GlMlTZE2ohWl+XnnllejevbuYzQxQPfjgg2J2U8tfeOGF+O2332RLiW37ju2495575UZqRp1rAurhw5m4aPp0vPS/lzBk6BDZkrr2mmtlzvwW+9+1exfy8/Lh7e0tfY4bOxbuHh5i8vbr3w/Dhx0x0akdCWYCnL4qQUyrmnow63AWLpp+kYzbVTH++6orkZOT7eS99LR0mCrL0blzFAwSyNNw0UXTcc3VjFQroLYkSPmtVgFUDoTagpqOwaS33npLAi80E5999ln88MMPcq3dZZdd5qSPhDlswIcffihAZdCF2odmJ6OzBI7JVIGRI0firrvuFgDdfvvtzvcfmvWQgI1aiaaga+NzNDt5xyW1ka51kg8m48MPPhTz/NnnngWFAqOs5513nnyP42efL730Ejy97Nsejz/2ONavX4fP585FgH9AjUDlc2eddZaYza++9ipyc3Jxw403yD5uYlIibrzhRjFjOZZLL7kUhUWFKCkuEV+cvii/TWEgTYNErO+5+x5ERkYemRaBarXhnHPPkeerA7U643HL61DKAdHMdpTT7jU4Qd/SjNrev9cqgMr9v9//+APvvP2OJBt0iesi2y75BflypV1EhwjZA3zg/gdcbsyyRyQJHAKVgRGamJPOPhtRUdGS9MAr8ZgAkJGegXvvvRcDBw50rjcjwKlpqejerftRt0Iv/W0pwsPCMP+LL+wa3MUly8/Pw0033QwPTw+JLmdlM7DjIbdNU1M99uij9j1NADRDCdSLZ1wsWpnBLdGocz4V8DPqqzduv1DAvPD8CyKgqE3ZHyO+9NW5p0qNTd+XWyucPRMYaD34+fvjtltvk65ycnPEJ//ss8/Qs2dPGTuflTCQDZhy3hQMHTpU3Ab+jq7GvHlzUV5uT8LQGyPeBfn5uPLfVwhOGfHVYEDnzp1F+NFUV63lKNAqgMrgyP0P3I9u3brJXihNtnffe1civjTd7rzrTrz15ltiFhK4NP/Y9h/YL5vzvCSWGmTXrl0444wzxPf6+OOPRYOMHTdWGJJbCq6RT+6dvvLKK7ItRDDoN2/RV6ZgOPOMM0VL65qb2uyXX36RRASazBQaBB73e6mtadpyy4Ta6pJLLhGAb9i4Ad9/970EhuLju4i6qw2onMstM28RgHLO9Mep9UeOGImpF0zFhLMmyH4whQ+3cwR10CTYxLnp/vDDD8/C8uV/4e+//7Zvr1RLyGDQjmCfNm0aPDzcMXDQILnXkxlMro170BRyEydOkB/bvwbEJyRIBJ59qNZyFGgVQOUWAPcoaU5GdY4S0/L5F56X7RP6iYzEfvvdt5j7+ec4d/JkSRQgE9HUZCSWZiCjsox2UmNQS2ZnZwlzUfswAJOXmyea1zUtjvu30y+ejnnz5kl2D/dMabbSdKTWkACNBgEOt4Y+/+xz2WPlniw1+KbNm/DuO++KdiorL8MvC37BZ59/Jibs5HMni5lJEzogMEC0Lltefh5ee+018VddNSqTPOg/M9DD7RbetTl9+nQMHDRQ9pIpVLgXy71PBtnYKOD+9+L/MGnS2Tj33MkS9Bk9ZjQefOBBTJ4y+ShrgO8wQMXo84AB/RHq2IslLSXg5GjU9vfff7/48nM+m+Psh0LL3c0dfn5+DbqUt+XY+eT9UqsAKgF36qmnYtSoUWJK0t/ifiYjj9ziIONUVprw+utvgEkFzFRiehuziQiqIUOGyD7kM888A1OlSZhJ9uitNtm+oSYlE69YuUI0DbWhZDrJtksBvH285RmanDS9/Xz9JAmC7a677pLEgv379gvgmZWTkpqCf/3rX/LvM8adIWa6mxvfr5RA0DfffIMZl8wQn9S1cY7EfmlZGe644w57CmG1nQ5qQAouRoK5ZUONSQEz+JTBsh3zxONPYOipQ3H66acLgGiFPPvMs4iKipL3SB8GmxhI060B1zHQ6uB8mAv94EMPiklePeJN2s28eaa4Bj/+8KMj8aGqC3DyQqJ1zqxVALU6ab788kvZz5N9vmpt2fJlkh3jGsk8mtmtsFisTqmvm380VXXm1bVlfZaFgK/etm7dKlqPW0U1JfnX1C99Vmp05h3TfGe2VU1t3759CAsPQ4C/P8xmi1gW1NIUOmKiW22y9cK0wMhOkfIz9sX/UstLIoOeVVRt6BRGTEukpr/44unQDPQ9j47i/vX3XygsKBBNrdqJp0CrBGqTk8WVDx3OltN3O8be/VHaxjE4vl/b72obP7V49eBUk8/1GB0epWUdmUlHvaaSkFp6aer8XvsAamsiuQJAa1qNNjMWBdQ2s1RqoO2ZAgqo7Xn11dzbDAUUUNvMUqmBtmcKKKC259VXc28zFFBAbTNLpQbanimggNqeV1/Nvc1QoMWBeqy9R1YWZJaQXlqkNkoy5Y1J8awZ1NAm1QStVslg4niYKlflpEk9O2QfTGpvqmp9epVDDw97uuGxGk/PNObbUr3RYoFXtfIsddGaWVh6GqTrc1LV0WY96lzuscbekN9z75ffYVIHx63zUF08YrFaZEwct576qH+TBzZIYybAMKXTx8fnqCJvDRlfSzzb6oC6bds2dI7qjOCg4CrzZ36qr5+v5P2yFRYWYOPGTZKE79q+/OpLScvr0qWL/ezm9u3gojH3lge62XjShYn80VHRsujvvPOOpCW6Np7c4eH1oqIiFOQXSDI8c34jwiOkIgNBzvS+3Xt2S8WJHYk75IQLv808Yb3xfC0rSpikRKg984KMM3DAQPvpFpeWkZEhffTu07vq2tsgdZLMlWZER0fbD3LDhiWLl8jxOCZSkImZYlhQWCDMzFRG/mEWE+fNlEumDbIxP5rlbkhLHvHjQQOmKDJ1Um880sdDBuyvtKRUzsNyzGxhYWHC6GzsZ8+ePRg0eFCNQGYmFCtMsqjc8GHDUFBYKJUjmC+tN6vVgg0bN0oxtS2bt0jmFoUns6tGjBwpc+PJIWaCkZbpPXXIAAAgAElEQVQ8ScXKHDwkwSOGBBrXh4XqoqKjpGIlUymZKskcctbWYq0qvTGNVF8jHn7gIXr23ZpbqwAqDzqz6gH5mIejCUgyEPNVmfPK42l8hvWSIjtGytlV5vTqC8OF7D+gv+TW8vgaj5WxYh8Xj4vm4+sjNXDJYDyl8uUXX0ouL49ssdQKD6b36tVLGJUgjImOxsGDhxxa3Ya9e/choWuCSGeWbSGjUMIz1W/9uvXyPS5+XGwsdu7cJcfM9LZy1Ur4+foiICDQqQlYH4rMxfIwBCfTEXl2lgwc0aGDHGbXGzUmz+bylA/nxIMHLKPKMfC/zFPmaRpWTiTIeYRu+kXTpQIGgdohooPk7LL2E1MyCfiiwkIUF5dIcj1zm3///XcpysZ/kyZsLE/atVs30TqsncSD+Dy5xMaztvpJJJ4GWr1mtfQ9dOgQ+6EeR8vNzcH+/QcE1BQSTHck0KiZKSzOGn+WPPnnn3+gX7/+KCq2l3elgGA5Gq7TNddcI3zBc8qcF1NICSpWaCR4KbjIK7QueKqpd+9eMjee4yWvkKac04CBA4RGb771pghY1uTq3r0HqBjIW5x73759hd9aY9PyC4oaWQCnrlP+DeuSplNpaZnQZ+XKlejWrasQmRnsZFQpRk1NxCR7g0FMLTIPS5dcccUVspAENSsRPPzwf3HnnXeKRJaFjImWBSL4Q4JDRMNSO/A4HU+7/LP1Hzltwnbw0EHJe6Wmo9aitmVJTr7DM5x6fSH+l4e7CTAmuU+7cBoSdyRiwIABUnqUp1vIyAQzDxesWr1KQK63stIyKWvCsiecE5mMhxF4sIAHw2k9kAF5lEwvk0q68IQN85xlnJomVgdLg/7rsn8585oJBDImzTvm/VKw8N/UKHrxb5p7rPTQsWNHsTp4+J7H35hLTBCRyTdu2CAlSX/99Vecc845Mn6eSOreowf69ulbhZfXrF0jmosJ/q7nVElDCguCkt9i36wuyf7EbPdwFwuEZW8oYN995x1cd/31sga0GHhiiCeMaL2QNhwfNThBpR915EBo5TC/mZpTN4dpfezevVtKwvIAvl64nKeCeNqJFgMLErC0D4Ufra6lS5Zi6tSpR+HUUXOuFvzWxesNx4j0Vu1oIn90HECtOaHcfhykYUCtMJkcRLBh2bLlAlRKTbsvosFoNGD5sr9gtdpE4hG8WVmHsWDBL8JgUvtH01BpMkmpzttuu11Ayj8xsTHCPHyHpi4T3KkJzz77bHzz7TeiUWlG+Qf449DBQygvLxNmJJNQ8pK5aUqyUDW/ERQchJtuukkAsH3bdjE3WQybzDqgf3+sX38EqGRGMjj/0NSWCkWOVdf9Omob+qYsUPafG/8jwoCHEni0jZqSPjjnx0qFZHqCKCkxEWVl5c56T3QVWEmRZhzBzT71XGQ5vGDQRNhNmjRJ6FxcUizWCLUyNfJ7770nJ3mEyR250BQWFFj33XsfOnbsAIPBKIKCIDt12KnOJSYYSdMff/xRKi3qJiYZnwf2afrTdWCxb47r999+FzOcc6aVoxdQYy1k0oC1puSwu80mp4dYmVI3yele8DABLSydjvwvNeqOHduxbt06TJ48RY4VMn5BbUlzmjTkH87v3vvuldNGHBeFyymDT5E15dgI3POmnFcDUOsCXF03JzQcI60aqDypwYXh+UqeRaW5RTOEVQL9/QPEh2DBrd179gpz8fwpzVpWyecBaJqR1JirV62WCoJjRo9GXp69amBoSKiYXeyT5g8XmlrntNNPk/OnF198MT748AMp0E0zkKYctbmuAcnUO5N2SuFrnTkIUjIoy6aQebm4fK9P3z5iCusalRKdpVIIaDI9NYhrMI3fSUhIwF9//SWanYXFecKGYKQWpAnM86UcPzUz+z59xOkIDwuXahB6cXBeV8Gf0fQjY3JsPBpH0NPM5d937rL7mLwpgFYCXQzSl2YsBcNFF14IDw9Pp7ZiPage3XtIyRbdHMzMzJTjdbQu9EMNrDBBQHTq3EnKtvKGA2pOakSLFGLLAs/9cnxd4rsISEhzHhUcO2asnORZ/OtiOVvM+sQsOlcTUCksaa2QVyjAqFEZaxjQf4DT32SVjEEDB4FlXckjFDZ0WWhK09qh68NjizweSYuLQTVaNxR0PJ3EcejCTEfrsQ9ftCOgkiisgMcK8PQNR40aiT179mLkyBHi27FUC7XRipWr7NXzNE00AjXIJZdeIoxB8PDnsx6eJZXladpQc1Jqs+YvnwmPCBfQUJpOnDAR3333nTA7pT81Fo+N6XfTMHBEZqNfyCryZFq9HDWf40F0HvTmgXWaS3t275FD6vTXGFzi+zyqRhOMV0oIUN3dpQ8KCwoXRpo5TprPmzZukrpQnAMPsvPMKQNinDeFBYUKrQwKkwU/L5AD5Qx0sazpmePPFAYl83JurG3M4BDN6u3bt+G0004XU5qNjE6fjGOIjo6SY24EOCtTMApMEFAYUjtxfM8995yzAgYFHOfUv19/h6VhlnrDNC1ZQZ9+JMfFw/+cJ4UEC6Yz4EYzfeLZE8XiYVnUfv36OapE2KSaP8/Svjb7NQFRTUClEN+8ZbNoRZq+FGJ0Keg3UwizsbgAhQjP5lJo08XhMUQKKAkWacA999yDp596WmIV7JNF4WgVUcBs3rS5SiCwfr5qMwC1Bou0VZi+jLD+9dff6NG9u0jD3r16i+RPTU1Djx7dJXCQnpEhZtJAMqSXt5ilNLdosrlqKR7ivuWWW3Ag+YA8z/pLoaEhUrGPEpVAZRCGkpORQUYNyeAM5rAAN81k+rJ6UTOChD4qD6eTSWgE0Qyk5vfx8caaNWtFU+tMTlCyKiBLmbDaBDUztRf7t5s1EN+WphYj1jQB9TtiWNeJZipLmjL4QyGjN0ZNKf1p9lG7MprKoBp9MILUtVErU5NTeFHAEPA6M/O5nbt2IuVQijNizmr9Oh0Z5SWN6OPSr2QAj0Ev+okMStEF6NW7l/yXtaVoUrJcDNeAWnLtmrVSccLLy1vmTvpRqFFY8hYD0oJan//m9SU8+P7kU09KsXAWEK8JqBSyv/3+m1y/ERsXKzcBUJvSVaBJbT+LC3z19ddyN8+hQ4fEwiKtGMvg+lGA0IKhMKTwoRCnVpXorwbhJwpd0qthrWmBWtu3WwVQ6SsyGEBALv9rOXr16o2I8HABVGFRkfisK/5eic5RUWJmsXQI73AhmKkpyCQMZPDfZDBeR0FTlNUYqCEZAaVfFBhgv0iKkp/apKCgUOoZMZDDazTor7Fig743STCsXr1avjd58uQjVTIdLjiZhVHdjh06yre6de+GNavXSBCDpVlYqlQCAQyO2GwSKJOg1cGDormGDRvmvK3tgQcfQPdu3cQPJ6PRXGW0mmCjeU+NyqLZMTEx8g1GeGmOsywoGZCmG5mPmpA+m771Q41Ns5HCjwChpmc500GDBiKWtZcAfPD+EaDSlKc5y28TIHPnfi5Co1PnzlJjmQKGtw6QhgTyacOHw0Pfy7ZBtCf75xUjFEK0FFiDiv1SwFLD8a6hmNhYoVnXhK5SJpbF0XWg0jTnGnKr7ZaZM7F6zRoRFFJSJy9PBA9NdvICg3ZnnTUeqWlpyDp8GG7u7lKVgttW9D0pBBmr4LYNQUyNSq3LXQMKCfrU7IdgvvLfVx51g9+xQduOgEqzNygoUBiaPg3/ricyECzUBrm5efD28pEFt1gYQT3i4OtBHgKb9ZLov9JkJZPrlyexpAs1IgFMrcF3uMhcTAYeuB1ABmdVBT0URnAxgMMm0UxHRT998RiB3LtnrwCA3yLzUICwnCcZi33r1RPoN1JgcF78Lp93TWygNpJ/6x+3l2sS05RmI4WFVPTXIJqIwSmagKwzzIgmNRwLlHG/lr4mA2S0Cvh7zoN07BjZUebPLSGap1IxApqYlKzFVL1SBYHPIBvnTtBSO1LrMMpKuvAb4ne7rAVN3sOZh8WsZX+kK8dG94K+Ns1xChlaDpwX14f+OUHEaDbBS3eBYOVa0writ/g8tTHHwn1hfpfuD+dD4UyTXK9ywee5/SY85AhMUfjy3xRspD/7oyXFeXG/nIKV82p4ayGgFhaVNCxE2/CZON+QDJMayppU79K1grvdWnRU03PcKHbU83XHz49jxFVfrV7RT7Sl1F5yXPXgqJZw1HMuP5dSKo6axHUN7AgNmPlTc70iZ6CjgYfRZQzHqFBR01xrGm9NmWZ1vUvwSnTZUdOK/3VGmx0fcKWPPfBvLz/jbJq9usaxyoDby6Qeecr1xoCjec7u1pzoVhtGtNYIVC4Mo7x6qzp4/bIil3VrIaCK0Khhj+sIAx0xc6sseLVyJ/UBqjCwY176J6u/1xig6qQi+O3MXj/2rHHMtZRxqUlQ6ZaC65j5dz01UP7rALDQThd+NSCHpabqN+qqLyug1lMM1VejchW4FSBJDw6Nqud42hmr6v7UsfKH6zO8KkXPHC8wWEPTi9+W3GBGbWsAKv0dmmte3l5HaQf923aA8Na0SpRXVBxVuI17rjTZGVF2FtG1Qfw88ZkdCkUfJ807SQkkWPT7KlwmSn+O5i6jy9XsAtFQ9sqMFqdmZWofE0OcwsgFhIyOkg41NZq0NMU5dz1byZVGxcU0zY0yX/qXNJed66VbGg5LS35eGwJdFaoCan1YuvHP1LaZyzs8CYaQ0FB0iYuTLQv+jJcC0y8jczIZgX4HF3rlilUyCHvWDrOX3CQazICQ7H86Lm9ymsyAJDYwWEQTitstDARJxhMludHuB3Jjn9ciSlaSQcNncz6T2+PoO/FuHAZPKJW590nfiu/z30wJpH/LAJH4P46MKgZuuF1Cf4sChkEM+lPMfWXwx7UxwMT0OCYuMGLJ/FoClH2QBhs2rJdAE4Mxsi2TniY+FYHIbSHZN3VKBUi0k3OUjCpHIz04D45B9ozL7Xu/jGDTb2XEk6mUFBgHkw+iR88e0g8LiQ8cMEAAzuBMeDhzfe2HIQhiyeMdPtxZplXXiPwvL4Mm3ZnNxCyqCRMmyHfpK3IflwBm8I000u+44Xv0h7kVp6dTuoL/5NaotWQmtaTpWxvE165bK4ECSuVBgwbjr7+WS0FsgpXRQzIIL1LitgQBx4WlprFL6CD4+fmiR4+e2LE9UZLj+S4DMwy5M9LIMDyvh+DfqQG4fcGABxlIzxZigIIBCW6Or1y5QnJPedUhI4GMpDIiGxQUjN//+F0ykRiYYGRSkvYLC6RvPemfyQK8BZ3Mxm0QAoONe3nM4mEwhdsqHCeDXNSmzGvlvwl8bkPwZwzIcOuKDE0hxPnwPY6ZNGACAYNX3B/Wo7wS4YyKku9yHAQqwcCxkdlZ25j/Ji0ZkOE4uT/KpAmC6qb/3CRzooBhVPT9997HpHMmSTRUAnAUao5AEcF88GAyMjIzJcPHNbbAABvH8sWXXwiAeW8QbxUg7bjVwkLjvA2edGNGEBNcuKZ6Y+40t6/0veQqvEMftRH6oi2YvrVNq0V91NoGwc1nRu8YQSXzkNG40Pw3mY2LSzXJtEFqDu5DUtoe2H9AMmKYjG/XnppUjmf2Cc0+Sm3uiXK/j7e9kcEJ1B3bd8gWBE3H6lYjtSKjgGTMjz76CBMmTnDm/FITMLGcm/U0RbmNQuYVs1Dqedt9rldfeQUPPTTLWbia0Uj6X4xiMrpLgDMyzNMr3LrgPiavwWAWFZMoqLXYKDgY7SVwGYElgASomibbRtwDpMbjz7m3SW3+0ssvye3pHBtpx6R8Ap4ZOpI0smIFvL29sGbtWol4cuuHNOHVGxwfBVPygQNyixtrB1MgcA9Yt0m57dGnT2+pm8xtLd7ePv6s8WLJUMPrkWxGZ+k6sBg5o6tMCiEgSV9uY9GCkaisBklc4XrQqtIbc6mZwcTtKEGla8hTAbURYqoJXqFGpXnHpIe+ffugqKhYtmBo+g05ZYgw9a6duxAaFib7fy8KGO+UfVZeDSHaAjaYzVa5g4bHpJhxQonN37/9ztuyOU6wkCkp6bllwE336k2KdFtt+OPPPyTDh/tuTPHjqRMmb9M85LYI+9mwfgO+/uZru8nHu1Ed95CSSZl6x5Q3Zv1Q49L/401vTMejOctsJDIhzUsmbtB0prnL3GR+h4xLTUqgEpi8e4cmOU1TzrugIB8+Pr6y4c89ZPbN55g88PCsh51AZWIHwcTsJQotXmPJ9EQm21Po0RQlyEgjCscLpl4gwoL33FAQcLuE2p2N/TOxQ7/9jjcZULh06BAhNw5wPvotdnQLuG7c06S2HnbqqXI9ybgzzhAwU2hwnZjHS8HIdD7XXGh+j31R43p6MnfZZaUUUJsAdY3oghvkNFkJAjI7zTgGZ2gqEgg8ISOnMLKzhcmeefoZuVSKKV9kBgZgunXrjtmzXxfzkSciqHGYmURfjn3xZMXLL70smpZ+FZneNfjDf8tN3MHB8jv6abynddjwYSIsaKIy24fAlwuSNIjfTP+W3yeT6VHLZ55+Gg/NmiX7egQrc0kJfvp2zH7iXu2KFStFO9J3o0lI85JaRI6mdYiQ53Sg0i/l/iXTHLkXysQQHgKgG0CBQcansKAvybExo4kala4DE+WZ6TR61Ch06tRZrgnhHuqSpUsEJLwfh+mPFJScPwUBG31YCgtqO9nOsdpkHkyPZJyAjcKM+9XcK6UJHhgYIFlbTMdjRhg1PYUQgcq0Qd7fwzOizCyi70/rQ9IZS4rl8mreou7a9L3isFAK1BbbRWwEBzf/K63C9KWGYEYJTSHm+zKBmknnU6deIKCJiYl2ApUXBPOUBYFKIBLMouEkaXuTaBvexEbgE9T6dsC8ufPkKBXNZwJ13br1Yi5Kmp4G8enoP1566aXSL9PdmCvK9DheZUizjr4ugUBmZqYLTXP6jQQxNbo9xVDDN998LUAlb9Hc4y10X3/1NW688UbJBWaWFBmY/hc3+glUajYxM5kx07WbmO0MpNBHpd9MLSdH55jsbrFfc0GQM3IbFhYufuonn3yCS2bMkKQA5kwLUM87T4DEcdDf5385f/qDNMF5VSW/Q63JgBY1Pr/BaxsJLub9OoGbli4g5Xz5rG6qUlgysYJj0E1f0p7uDDUqrRSOg/7q5f+6HN//8L24Ij5yK58mQoEmMlMh9aARo/7kAwqrxpzIan7otOwXWgVQuYDUGjzIS5+RjMDT+8xGuuGG62WdKHV5GoJSn6ccBKgHkiW1zd/fz3FVhIbPPv9cEsz1fFhd0zFnlTmeNDn5HoHAkyB6Pi19QCZ582wn/04t+cKLL8itZkzwpvajGcqjcswd5j4ktZa7mxs6RkZW2bbRNWpqSipo1uuZRdQsFCQ3XH+DMCu1Dv1dApWHzdk/z4p6enggkOBnFk9ervioDPQwwMMoLxPqqYmYUsj5UXAw8EOTnr4ox+QKVLIUgcCb6Bi04mVctDgo4ChweDaVApEmMAUGM64YB2Agis+wEdikG9eBguTXXxfJZVds1KayFeTr48wp5kF0ammuI4E87YIL8M233+LfV/5bglcVFeU4ZcgQpz9ene15MIEplnRf9LoYLQuN1vW1VgFUnuxftHARfKQSgj9KSkoFsPSn6GNRslI6cxuBfty69evEB80vKBDt4eXlid69+8iROOajUppTitNM3LRxo+QA01d89NHHBOz0q9gH/Siaa/R/6PO5OaKTEhSCTS4hfvSxRyVKu23rNgEK7yll/zTReVj8n3+2wNdRwkQ/XUMmZ5I5gUytTBBQG/KUBitRMArM9DcChqY6TWoKBw4kOztHTr5QQ1Gr8JgbhRP9YabzUQvRJE1OPihBGR4tY9Cpd69ecvCAZiq1GLUdfUCaqmz8Jrd9aGLShKUw5FEw3jBHE3PrP1tlG4pAoknL/GWasK4JETS3WbaFVodeCYJ9M2JPv5unbarXsGIgjyY2z7DyjC+jw9zm4hYVD/Uz11dvJSXFWLr0N2elDwoNuQRLHlCm7wmnAP1Hajq54cxgEOls3xRnPqa9QoGeh5qWli5JA/T/JEXMkWpDDejl6Q0zi1/JYXMjDEYNKSmHxFfSNAMS4ruKJmIAJjUlRY7W2W9Us5+Wpn/KiLNufnF/kNpKfKncPPF3qYElZ5U/y88TMFZvZNajTmFo9tIt4eERopmoGWm281nOl/NnkxIxnVhuJldKk/Tq2cuZjM7naQpzz1MSLHgu1mYVIDB6TEBz7sydZbCMz+sVF3TTnP4oAze0YBjEoWkpecjpGeJvc3408QlqPQFCnx+jvIczM8VkZyBLbzSb2afkVhvsR86c72RlybiY98xzvfw7hROBTQ1uN23tTfhgp50ODBASpPbAkytQG5gv2boUY6NH0yo0al2j13Nj7VE/R86rgNNRisAhafl7bpjr0cEaswqd2T3VF772EVT9kv2b+h6eM4GjHimM9n70MdfyPQ5ezwjSNGc5mOpP17SHWF9p6yRdfXSUdNqYHcua56dbHPYeXSl7bP7VNJfTCu1Qu7YZoLbDtTk29zbzE3ah13RAbfxwaTnpbyuN2ng6qjcVBZqYAnZr5YjtUh2oNvB4WU12RM0XMzfx8Fq8u1avUVucIuqDrYYCR8Bas0atGawKqK1mAdVA2g8F9NBEbabv0WBVQG0/3KFm2qooUDUEd7SPWhWsCqitavHUYNorBWoOJh0BqwJqe+UMNe9WRYHao752sNa/akWrmtYxBqOCSW1ptdRYXfZf2xcxFFDb13qr2bZRCiigttGFU8NuXxRQQG1f661m20YpoIDaRhdODbt9UUABtX2tt5ptG6WAAmobXTg17PZFAQXU9rXearZtlAIKqG104dSw2xcFFFDb13qr2bZRCiigttGFU8NuXxRoFUDVaxS5XvYkxazr1TSX0//1ekE9pCjQIArU98a7BnXawIdPKFB1MAohqt13Wd8aQM46Sg2cuHpcUaC+FGiK2wLr+63anjuhQNWrCMo9ndUKhNX3It3jJYB6X1HgWBSoz+Xbx+rjeH+vFRa33I3jNQ2W5UHlKojW1I6lzutxh+dR06mrRlhd32vq95pjbpxsY2jSHO81lo/qoIvcMneMApKN/WyN79UwFq2ouPRYS9ekY3DtjBqVdWDtQOVVek07FPvlfLVzUO3fq+u9unznxr5Xl6Cq63tN/R7pX9sa1E3L1vJeXWuuyXnV2lrttLRYrXLHT0v4qs4StNWGqYBa47o1FnCNfa+pAcdJNYYpFVBrYgcFVKVRHXyhgHo0QBqnwZVGbQYDWJm+OlEVUBVQj1CgJudDmb7K9HWhgDJ9T7TpW5s+VEBVQFVAFQq0jmBSGwFqbcNsXDS4eaK+jd1LaUxwp7FBIb7XmHEei86tZQ+m9nHaf1PzOOveVah9H6wlg0ltAKh1XUdUl0lWu/PcPEBtrLPeskA9FuQaO4taGakRHR5rjI0RC4290qqusfBaypbanlFAPYoCde3b1hVxbARHyisKqNUpp4Baf15qRT6q0qg1L1vjAH4sENSfRer3ZGM02bHGqDTqEdoroDY4mFQ74zJzxXnQ4KjLjRsHOFdNXD3/WdOq3u7tOrJjgaB+8Kv/Uwqo9adVY55sV0Ctmq7Z9KYvgep6q3ZVsBw/UKsvsAYCVf9i1d8qoDYMDspHrYNeVRMeGmb60sEvLy+Hj49PlS+UlZXBw8MDRqNRsoddey0sKoS/f4AjJmgDbFYUFhZKrrG/v79LP0fes1mtKC4pga+v7zEPD1Dj6Tej8O8WiwVmsxmVlZVyOsj1G2WlpXBzN8Ld3V0u7GVkUW8cj+tpIp7eMJkqUGlmcng1ltI0eLh7wMPTowodFFBPNqCWnMCkfJtNACVJ+baGAbWiogIHDhxAp06dBAwlJSWyMunp6QgODoaXl5fwdGhYGLy9vVFQUIiknUno2aOnMLW3lxcOZ2YgNzcXxcXF6NWrF/z8/ByrewSoJpMJu3fvRkR4OMLDw+XcbPXG7+fl5aGstAyawf57iRQ6gMrfe3l6Ij4hwflqUmIigkOC0KFDB5jNVqSkpMDT01NAHRQUhICAAOeznCt/T/C7ublV+Xx5WZnMNa5LFwXUOo5gHAu2dWpUm30t7eemj9VT8/xeKy4pa2nh65xJ9RTC2rf+jt6eIdNmZmYKyKhVqRn5MwKP/6ZWpVaKjo6Gn58/Dh/OQlJSErp37w4vb2+UlZagpKQYXbp0weHDh5GTkyOgIRjt2kxfEQ0FBQVITUlBVHR0FQDpEyG4srOyQG3OZrZYkJ+fL/0F+PvLeNw9PEQgEXSZGRlIz8iAt7cXAgL80SmyMzZv2YKE+Hj5OYEaFRXlpFNpSSlSUlMQGRnpIkzsvyYNKCQoaBrTGrL4rjxa/b3G8O+xvt2SwaS6aGd1WEfyjHNQLXGW5sio2ixQOQVqO4KE5mNpaakAITk5WcAUGBgo2pralD/Py8tHcXGJADEjI0NAbTZXotJUKV5eZaVJwB0WFoaOHTu6rJuGkpJSAXlERIQAv7bGPvmHYOQ4YmJiRNuJanccjqdkplBJPpAMP38fAWVgYDASdyRi0OBB2Ld3L9zc3asCtbQUu3buRGWlGUZj1Qya8ooKhISEoGfPno3BaYMOFiqgKqDaM2lqFbFVNSo13l9//SUApOlLX7WoqEhMYAKWJiRBykawULNt3LgRffv0Q/LBg4iNjRWfj6AxaBo8vTwF9AQQtZb4jS4t63AW9u7bL4CIiY4Wjeza2E9SYhJycnPs07DZUGmuhLubexVfc8SIETC6GQW4iYmJ8PL2FOBXVlrEvB44YAD27tsn33fVqDSjTRUmiSjXpGUI7Opjri9qj6XVXPtRQFVAbRBQybgEK01Smr4Eqx58IVj1v+vVI/j84sWLMWjQIBw6dEi0LRv/S7OXPi2fzcrKQv/+/avwON9NTU1FeXkFTKZKdO7UCUHBwXXigBp13759IiQYhKrO7JmHD2Pb1m0wVVZi0KD+8PcPlOf79e2Lffv2w6JbxPoAACAASURBVN3jCFBpyq9Zs6ZaH0f7SgTRsGHDjjm2+gJYPXeEAsr0rXYetb4alSSk1qIfSKCGhoZi69at9kivIypKLUutRB+UYDt48BAqKkzii/r7+SEwKEDe27/frikJ7pqASk29e9du9Os/QAJV5spKxMXFweDQ2NSOFSaT/FxvBGDKoUOI7NRJTG+98Rv0VxkYoindt29fea5Hz544mHwQffr2EcDSBHfVqARhSmoqKsorENclDoxEu2pC9iuR4hMY7DiZga2A2kigyjaIpkkQhdFe+o579uwR31IvlEbQ0RwkqNi4+0HQESD+fv5w93BDaGiIaEu+TzDXBFSapO5unnaA2GzYtGmTaEr6siIwrDYcSjmEw5mHnbxqtVpQVl4ukWUCWq8J5WY0Ij4+HqlpaeJbS/AqLAwZmZkSiKJQ0YFKIeLh7g4jo7yOwFl+QYFof90EJVgrysvFFJeItGrNQgEF1AYB9cga6PuV+QX5EhgiQMngrnud9DfJ1AkJCRLcSUvLgNViEW1GrRYQGCCalO+HhATXqFH37t0r5m6vnoyo2uGRl5eLxKQkDOjfH77O7Ry7htcbv3fw4EHxPwlW1y0dArKgIB/5+QWi0TtERGDVqlXo07evRHR1oBLIHJ9uptOH1qPKuuakcKGWpyXBaLZqzUMBJ1CrBAjsO+YtFfttI1HfoxeAwDh8OEMAQa1JwFHL6dqLJi7NTmowAic7OxduRjekZ6QjOChIkgfCQsOQknpQNBmDUGlpaU4fdefOnWJW9+vXDx4eXlUGwK0aPtu1WzcRBtUbzW6a1OxXor41NEZxg0NCBIxLlizB2WefLU8RqAyG0ayPjYmBX5VEDLsrLz64BtHKFCacJ7W8as1DAVegugJTt+ya56tVe22zQKU2KSoqkNkQDAwSEZRs1DIEME1LalTRdjYDysvLJLoaGBgkiQkF+fnw9vFGWJjdx+VWCf1GmtEEW9euXQUENlvVWKu+h0vtPHjw4CoZSwz8EEDUjgxM1VYKlUBlUIp9REdFI6JDhIyTpjjHXlpSglGjRsHD07PKinHe/2zZIqY1zW5GrHv37l3FF24JxmlP31BArbfpWxNbcM/SHv1lc5Vu3C4hQxMkeoCJCex8huYjzVES3/6M/UoMRov5LP/okWM9C6g6UPXvWcxm2fPU90n5c5qobPw2feTaConTX6bPSoNZN485F8loMltkb5c+6lGZUDbAVGlyztegGeDGLZ8aMqbaE5iac64KqMcJVL0qsj0ZvvU0Ak5V+m8963G8I1FAbSKgnrAEzFo4QE/MP14GUe+3DgoooJ6kQG0d7KVG0VQUUEBVQG0qXlL9NCMFFFAVUJuRvVTXTUUBBVQF1KbiJdVPM1JAAVUBtRnZS3XdVBRQQFVAbSpeUv00IwUUUBVQm5G9Tt6uJcWllgSP5ti/VkBVQD150dSMM2tpoFpsVlgtVtmub3+5vo70WabAMe9WUgEbnF5UtQBozbxRW6fHqvLT4MEcgzWP9b1m5OyTrOu6siWrF2ms79Tr0sS8zsL++6pnZZjmefKfnrGLRSmFIpLKUVOovoR1fa42YtUFtTph0xyYamrcN4ZQ6p1aKSCF02tZI+aOn+h2Qk/P2F0NvaxIyybe2SVvzSvTHJUSmsN3OtHMczJ9v6415ymlE91OOFCFAK4lC5qSItV8ivp2LbXnm3htXAtq13cc6rmWo0BzrHlTjv7EAbU6OBsJqsYSo9FmcSM/2MS4b+Qo1Gu1UaAub6dFraFacHBigOrwT+3GrkN7NdovbJw7X/ONLfoyNq7PumBQ9/cUgFo1BVpSyrY2oFYJcx+Xndn0oGrVTKMG1ywUqFOQtgqglp6IKy2OBld9NloaukIngxZTYqihq970zzeajxoD8No0aklpeWO6a3pqNEOPrT1AUJ8pqyBUfajUOp9plG+rgNo6F1ONqnVQoDkEogJq61hbNQpFgRajgHYym74tRkX1IUWBZqaAAmozE1h1ryjQFBRQQG0KKqo+FAWamQIKqM1MYNW9okBTUEABtSmoqPpQFGhmCiigNjOBVfeKAk1BAQXUpqCi6kNRoJkpoIDazARW3SsKNAUFFFCbgoqqD0WBZqaAAmozE1h1ryjQFBTQSsoqTtqk/KYgkOpDUaA1UEArVUBtDeugxqAoUCcFFFAVgygKtAEKKKC2gUVSQ1QU0ErLlY+q2EBRoLVTQCsrN6lgUmtfJTW+dk8BBdR2zwKKAG2BAgqobWGV1BjbPQUUUNs9CygCtAUKKKC2hVVSY2z3FFBAbfcsoAjQFiiggNoWVkmNsd1TQAG13bOAIkBboIACaltYJTXGdk8BrcJkrjXhwWq1tnsCKQIoCrQGCtQNVF6X3sRN0wxN3GP77c7WDOvTktS03/Ld6Ps2m3SorZ2WdQK10bdYNSkJVWeKAooCdQJVkUdRQFGgdVCgbqC2DqukdVBKjUJR4ARSoE6gNvVVdPaolTqs01Tr3dYvOW5NrlVrp2WLArWpGFT1oyjQ3iigmSotSsW1t1VX821zFFBAbXNLpgbcHimggNoeV13Nuc1RQAG1zS2ZGnB7pIACantcdTXnNkcBBdQ2t2RqwO2RAgqo7XHV1ZzbHAW0ysrKWrdnbHVkJml1bOo0+j0cSdhvSLKFbJzXY5Opep/ODffq7zJXnAnjjuZM1DjWN7T6bZtXH2/1jf8qvWiuByM4Jq1ec3UZvrxTV5JZfelXK3c76cWvOKhlcxCrOi31n7Ozo+hsAWzHd2hDQ+0HSRrNl3XioPbx2qqsXVXqaXXM0+ZKI8drrQqoXDmbg6UaAlTO5ZhZLjYe1KiZ4jW9WxNrH/XcUQCvP1C5GPanOWdzNQzwN46xymLr43YA1T7hIz/mP2UsRwZUF/2qj9IOVCFQwzSNyEeb0PXoPo+Mp6rQc4zRMX7X31kdp4H0n0nfdjTXLJyqD5dTUECtLhFqX9PGSi57j3awNhSo9lepbWpWe85FPwYr2sFYP8CRsQg4g350r7pG1Y5AW3jKQRgbLLChEho8oMEA+791xta/b4XFWgmDwcuJSg1GmC2lcDN6gn8/0myw2iwAqJGMduA4FK/0W42h+U1aRDIcrQKwuAMGs53uNo7JMZpacWunsw1WWK1lMGi+MAjIBSnOmciMKJB0utg/CPA9W6X83aC5wcbf2zRYUApqGtLFppnlGwbNQ/qziiCBfdzyHfsc9SHqckqT9a+FB5rFQmxejaoLqlamUXXWcyxoPST8nr17sH3bdlma/v37wdvbG3v27MGokaOks/Ub1iMzM9MJvaDgYAwY0B++vr747bffkJOTC55FHHbqMGzdthVxcV3Qs2cPLFy4EPn5BVVgHRXVGcOGDUNmRiYyMjJgqjShvLwcAQEBwpCDBw2W79uFBjWhFbsPbUVgiD/MJSZ0Cu8jDGhDOTJzd8PXMxL+PhECsKKSfPy+di40ozusFgsiwoJRbi1At+gxCPfpjAPpWxEUEI5tyasQ06kLfL0C4GbwRXhAPGyGChRVpqOoIgOdfLrDYHCDDe6w2Tyxdedy7Ny7GTabBqtmBIVLRGgERg08GwZ3N5RUpCHIMxork36EwV2Dn3ck4kN7Y+v2zUjOSoRNq4DVYIabxU1ANLT/JHSJ7ifzzSzcjorifHSOHAwjDDBo7qC598WPL8NsNMAggsOu5caPuAjhQQmwwgwrirE3dTsqKkvQs8tQaJonPC1eKLClwNPgB6PNG3kVKfBz7wBPY4AAL68oHZl5h9AtZgDWbVqMnj2GIyvvALp07I+84nRUVBbBwxiMDkFRtYrixiqQut9reqBWUTYODLRSoOq0NlTRrDXJyfSMdCQmJmH9+nW46qqr8M033whgKs2VGDliJFatXoX09HRnP4GBgRg4cBBCQoKxadMmBAQE4ofvv8eMS2bAarFryPCIcLz11ls477zznNqSUjw1NQ39+vZFaVkZcnNz8fvvv6N/v34i3Tt37oS4uDh4uNs1AIFKTbl09WfIzN+Lc0Zei2DfWJRWHEZhcRoKyjJhLfdA1y594G4MR2FJNr5a+iyKK8phrrTB6GXBuGFnIj0jD2cOvgJ5xcnIKdqPAlMWunTqAw83L9jgBR9jFIrLkvHbuk8Q1jEKsWE9YLAZ4e0WivCgOOzY/wfyi4vh6x0Cf+8AmG1mFFRmoEfEKdiyYyU6RnVAiTkbi36bi4vPuRv5hbkYGDsGWTlZyMzfjQDfGHy77B1MPfNa5OakolNoT8R27IUi0wH8ueF7nDn4MqRk70KpKRf94s+EpnngjmfGY+aVzyKnMAVlxYUI9A9Gt5i+8Pfugl1pK2Cy5qKkxAQLzAjxC0RhcSlGdJ2KTMsulBSUYM3mZUgv3QlvBOHc4degU3hv5JamIS03CYH+ASjIT4e3Vwi++vkt3Hfde0jOSMLKjd9gUK/x6B03SqyUmlqbAWoNg2/lQOWIqxG9mpalSUSg7du/D35+/igqKgTBePnll8PLywsWiwUWBwDZm6miAharBcFBwVi3fh06d+6MDz/8CDf95z8ICQ1Ffn6evPfuu+9ixoxLnGanl5cn9u7dhy5dukj/Bw8mo7LSDA8Pd9Ea4RER8PHxOeJN2qzIKt6HIushrN++CpOHzoS70RMHCzYgwi8UKRkH4Osfgb/W/YhLz/ovsvIP4OX5t8DNzQCb2YjAoBCMOm0C8nLy0Sv6dKxJXIxg/wDkFGQiMCAYrJQRG9wfveJHIbtoN1ILExEaHAVUFCLM/xR4GtzEHN11eC0WLf8CJrMZYSGBGNBrMDpFRqMs24pV/yzB1uSVOOf0GxATHYfPF76Miyfegq5Bw2GxmPH5gicwY+odeGPeo5gy4mqkZuzEiFMuwLbE5fh21SsIDIiF2WRAbkE6KswFuOa8B9AvdixmvjYacYF9UWYogc1WChiMuHzSHegePBJb039BbNRAeFrD7XExWwWWbf0UZwy4Gu8vnoXIiBgM7TMWpvISeLgZUFpZgU5eQ/HNry8hNrovSsrzEN2xG7rF9sE78x7GbTPexoHMrdiTtRwxUd3R2XcIfDwCFVCdxmkTR30JqOTkZCxfvly0FVv//v0xatQYeHp6ViW8C1h37d6FdWvXwc3NDQYD/T2b/J1ak4DKyc6Gt483du3chdi4WJhM9Ps0xMcn4IcfvofZbEZKSgquvvoahIWFIj8vH55eXnjv3Xdx66234ulnnobVasOwYaciIjwCMbHRCAkOxUcff4TTTx8hflR5RTliY+MQFBTodI/ocf259iukle7EyOHjEek1DBUV+Zi/6HlcdcH92H1wHcL847Fk8w+YMGIq3Cp98OXyl1BeWgJTuRVGo4ZzJ12AQK/OCPPqjoLiFKxY9Rt2J2+ECSaxGB644R0Y4IGVG37CohWfw+JWArOlGB7maHSJ6I9rLr8DezPXw+JRjO27VmLyqTfhyc9vxK0XPwVjpQfSs/fB288D+cXl+GLBG7j8vOuwet3fGNprEvp0GYYKQyHySlPx5cLXcO35s2A22xDoHSfCJLfsELzcjIBmdPiYgI8hBAZ44a4XxuPx2+cgtXA/SoqKEBQQiJDAcIQau2PV3rnYuv1v2KwB9sChm0nAec7wO5FtTkR65l7s3rMNI4eOh4fRgF9WfYILx8xCanoK1v2zBIP6jYK7pwnFxTlIiBoIf0MMKg0lSMnbikW/f41Jw69DbGTvkw+oFsuJPz1jMpmwdetWuLu7o0+fPgI4BiDo/y1ZshRDhgxFZMeONUYlaaouWrQIXRO6okOHCLCvxKQknD5ypADyUPJB7Nu3D+Hh4fhz2TKEhoViwoQJCAoKxt69e8ACbm5GN/j6+YrfWlhYiODgELz7zju49baZOHQoVfxR/jw8LBzRMQRqCL7+5ht06RInGpvvsf+wsLAjgSVYcTBjCwptyUjLPoRRPa9Ebv4uHMzeg1P7nI1dB1cj3K8LvIMDMHfJa5g67Hq88fW9MBoBW6URo4ZPQmBAEBb++j0euuED7Ni9FiXlxRja5wyYDVb8se0TjOs7DaYKA7Ly0mBCCcwEVnEmwn27w8vgi1D/CKTm/4PN21chM/MgevYfAZP5MHrFDYS/RxQ2bV2OtNQ9mHLuDMye9wI6eHRFTFwnjB0+HYnbVyMjex+sGvDHri8xttc0GMxu6JkwDHFRffHIG9Nx7qjpYn7Th83JPYghPc5DdGQv3PXiKIzoPQV51myUmkvgYfTApBH/QteA0/DLlrcx5pSL4AEC1RGJt9FuckeWeRsKi7Kwat0y9Os2BsFBvvAKsiJtTyH8fSLFhz9/wnX47o/3sTd5A56b+SNg8UZa/h4cyFsPD5uG7h3HIMivgxOo5CGuMa0kCW7pwXQJZDUwyl2r99ucv7DHa7TWANQtW7YIMKlBq7f8/Hzs2JGI7t17CBCqt8rKSvFB9+zejYiICOzeswf9+vVDTGwMsg5nobi4GNu2bUOPHj0QHR2NdRvWIyEhAaGhodi4caP8nL7muHHjwL4IvJjoGLz++uu47fZbsWb1WpSVlyEoMEjGGBMTI5q/a9eu2LxlM0JCQhEdHYVdu3ajV69e8HEEk+zx3nKs2Potdh7cgGnjb8GuxO0YMGAkystzcejwZkQG9kVYcCzmLHkN08ZeghU7fkBeQRbKS60wmr1BhbX7QBLuue5VHEhbj2D/zogM7gGzwYZtqUvQMTQEZfkGJCX9g0pbGUzIRVFFLoK8esDfPQB9ug1FgXUXiksqEB3ZB0tX/oBzTp+CpJS/EBN6GkzFJnh4m+Hn742lmxdgZN8LYDHmwNctFv5unSUSS8fjpS9n4o5LXodmZUTZBqtmwaz/TcUDN74Nm8EAKyrxz54/EddhEDp37IJX5tyGu658E6k5O5CTlw1/Xx+EBIchxL0LXvvqHtx8yYsw2jydEWFHQBe55u2oNJuwY9c2hAXFo6D0EAb2GAFvQyT2p2zHvIVPYWDf01BusUGzVSAqoAf69TsDqZmJWL7+B4wYMAm9okdAg5uTTXJycrB//37Ex8cjODjYDlbHbxVQGyBgqBHnzJmDK664otYtmaSkJJSVlYs5W33bhj5nhckk5iv9ze3btwvgaf6mpaXBw8NDNB4BHxsbi8LiImRkZIr2ZXS4e7fu8mxZWZksJPsnyJYtW44xY0ZJAI4+rslUgYL8fAHmho0bMGzYcBw6dAgxMdGibfPy8sGosLube5XZ7zy4Bl4BGkICo+Ft6ACrpRz5pbthNpcgxLsnfDwDAaOGclMGDheloLgiV3zUTsG9YPAoxdakRPTrOgzZBcmIjxwgTGiBAeWWHOxK/QNdI0bC2zMUBhhRactDsSkb/p49YOR2jc2M7MJ98PIMha9PCMywoKTkEKwogmYJQXZWBrx83NGpYwx2Jq9FaFBnuLkbEOgZK9FX2QKxAT+t/hCTTr1WtoRkJ0qz4vf1c9CrZ39oGrdarCgsKkRkQG/Z7skuSkV8h+HILUtDQVE6NDcTOgTGwtPNGyu3/Y4R/S6EwaYJUJ1hQ5sBxdZDKCzNRlExBWM4UrN3oGfn0fByC0J+UTp2HVoJo5sBMRH9EBbQAb+t/Qp9+5wKf88gpGTuR5B3Z0SGxh/FfXv37pXIPK0evenbRg1g1RP0aCvSqEuXLsX48eNrJcTBgwdRUWFCt67dat6Ud2bB1GzKWMxmGAxkstoTHixmC4xulMR25qkor3D6xjSd+MdoPNIH97e42Pz5UXu+LiaVTbPAqlntQSbuUdr47wrRTEabu2PbyAgbKsCnrPz/GmC0eaDSUgqDm5fs9JitlfAweHIHFFZBixWFJRkI9A6H1ciojAHQLLDYTDCCQS2r+M9miwma5i7z5yNmc6m4BG4GRqf1QB21YoVzw5VRY9ed5PzyPAR4hko0VeYhWtUEq9XsskfL7Rh3VJhK4eHpCc3mDgussFjKBMzuBm/Zn2UsHJoHjC7JZPZVoVdfAavNDJvVPi7NQJHkCaNmXxezpVIi6QzKceykY0VFBTzdfWTVDFrVcZ8gZDXDZw0n3vQlsy9btgxjx46tdYLUXAwCJSR0bQYiOLqslukjuJLsIftmuz2JoBrQCVQXrUBWs3MYN/HtzCfb87KXqKdc2GSvkUASuSGpZDVsJ/Albv5L0sQRrrYPQXP6WgRNjZlVjsQAm/XIxDQCukpz6btKGqD+kF0ACAhsduhW3eKwp+vZf1Z1HCLIHBSgCa3a8VCgFQCVw6c/eMstt9Q6k3/++QelpWUYPvy0Y8zWSkVzJMtGsnc0MCLCrBduyOsZPdyMNxks4ofZf0ZOLYNGbWL1AozUMAbYrBrM1lIYjH6CJ81GjWeFsdIdFe5lcLPaYLQ69k5Fy1pQaXS3p9A4Nmske0m0FPm5QszDCosFmtEId6M3DASkzSDa2WZg/xwXAU0N5mbPNqI2MlhQbi2SQBGjvWDqIfu2WB3fs6EM+TAaQkSLcm5GK/sxS78Wh88p2VCSAUSD2Q6iSoMJNpTCaPODzcZv2lBpy4G70V8EVrmtAj6avwOYlUxvsIP4mBi0Zx2pdjwUaCVATUxMlOAOfYjqWqukpATJyQcREdGhxmBS1elbUVSeiY8+fxJnjp2EXvFnwirM6YYdexega0I/WE1h8PHyh1krxGeLX0WPnl2wYsVf6N1rAFJSkzBq0HlIiByNXxa9j8EDe8JkMOCffSvRPe4UuNm8EBXeBx4GD+RX7saS9XMx8fR/wcMaKmDzMIYhOX0t5v38FmAxQMxpozsqzCW4+/p34OXmjXVb56Jvn7FYsu57lJYVwWg04PLx/4e8nEy8Pu8BuHsYUFyeBy93X4l+BxvicMu1j8FkqcCmnUsRFhqM6A49kVOQjY7B3ZCauRM/Ln0XVqtBfPODWftgsHlh1KBJCPGPxY6Df2LNhgXwsAbi6ssexitvPYR7bpotpnNqxlYkZ22D0d0DHTvEY9HSHzH1zBvg6x2ESnM25i9+AbEx3eHvGYD1O1aiR8Jw9E0YjU2blmHggP4wV5gR32lknQn/ErFUQD0elLaeqC/BuH79egn2BAX9f3tnHhxHdefx78xIo/u+ZcuXLN+2fGEbvMbGxk5CSGCXc2sJwdQmQKVIlvwRkkCySZFAit0s2aoEqE3sWsKxGw4D5gg24DgYDMb4wAbZlqzLkiXZuqxbM5pj6/fG7R0Uy4ywPTP6zberZMkzr/v19/vtT7/X3a+7M82Bv1xmkZNBcgwi3d7yeeWfM2jcB5/Ng4rGbejtb8NAlwcrF/4jKk98iKLsMtQ1vYfiwqmoq6nHvGmrEZcwhI+Pb8WArwf9A12IQwqcSWkoK56DZBSiqbEWNscgdn7yOi5d8mXE+W3ITCxCRvIEdHWfwEc1z6F7cBATx89CTtI4OPwOFGZOw9G23cjOyURtbRV6ul3ISMtF10Ajls35Ok60VGLHodeQmV4Ij28QhRklOHGyBtev+imG3C5UNu1BZmoaPjy0HQunrUZzdw1ml8yH05+FXUe2oHfwGMblzIXD5sDvNz2Eu255AMlxKahp3o3C4gK0tNZhxtRl+OsHL+Ky+etQkFSOps792F+1DZPzV6CsbDp2frgZa5fcYTqqJ07U4nDru5g5ewF2f/QKWrs98PS6sWDmFag4/CEmTMnH0bpKjB9fDLfLaU6mrVv+TSQl2vHRwTdRVX0A37r+QXMcOfJEUM+T0sDRVDRcnpEVkcsocr0zNTUVaWlpZiBCXV0dioqKMGHCRHMyZORJupkC6hB+/8K9mD1zAeaWXon0+Dy88Jf/xMrF16Gx/WOUTpyH4y3H4OobQvm0pXjzwBNIzIhH/bEGTC2ZgtT0LBSkT0KSbTz27NuG8vLLsHn7BvT09iPe5jfXP+dMWQGHPR6/3HgDZk5biq7eVozLno3ctBLMmboIRzt3IzstE1s/eB4piXno6GhGbl4u1l5yCw5+/BHer3sdi6avxOBAP3qGmpDlzEFh6gLMnHYpmloPo+vUcRxpOYi5pcvMpZl1y29ET/cgdn36KuLi3eYaq9vlQ6+vE9nZRSgtmo+qYzswfepC9PS1wz0k1w2H0NRUibUL78CO/c/ivYrnsLjsHzBxcgnyM8vg6rFj0rjpePnPT8GV2IqCwmJ0dDVi/rSV8Pm8KMiciU+OvI8Dh96G1+/C0aZ9mFosY3KdWLXkJpROKMeTr/4rli5cihR7CSYVLjozkP9vMyKoqkA1ew2bzbSk/f395oyrDHCX65qBEzkjgWrdLSGgevHw77+JpUuuxIq5N6F/8BQONXyAOROW43DLh5g2aQFaTraivaMSC2Zchtd2Pous8cmorKjH0jkLkJdXhO72PuSkzkNGRjb2V3yAOIfDHHcert2D0pJyLJklZ6f9eO+Tzeh3nUJLbzUm5C5AVvJ4zJwwC0c7PkB2Sh6e3/ZfmFQ8A00tNcjMycJVS7+N2ppP8OJfN2DV4q+hvvkI+voH0dxSjRu/ejcKssbjwOF34fO4cLD+fRQXTEFeVhESbZlYMv9aNLbvN13VpAQ5TrRhyDeE0omL0Nc1hObOTxGfkIj9B99H/2CPWd+MlEzc+tX7sKf6Neyr2oZs5zRU1u/Ct677JXbu3Yqvr1qP57dshDehExNL5mHGhCV44sX7MXPSMly59HZ09R/HqZ4as6w/bH4Qt1/zY5w8cRxF2XMxcfxsbHztp7hq1VfQ2+3AtILl5qTXiJM5D8Dj1PMBNmpa1GARZ7/GNdJdCoHWVCYZRfPO/g0oLCpGX4cNXT39yM8vxKySxThYtwWlpQth86WgsnonzLiEBD9OeGuQ4ilAY/UxnDzZg6yMFFy64O8xZO+Cz+/EhNxyuQ8FO/a9hIREJxbNXIOXX3scXf5TGBzqRYe7CTlJZYjzOXHNym/ghPsI3K4T8NvT0N7VYUYqtffV4EuL/hnefg/aeurgTHTCLcevrgTsrXoT167+LrxuD7q62wwYb+19T7DXAwAAFztJREFUDjMnL0NhzhQ4EIfs7GLUNL+Dga4+TCpcAJ+M2vLXw25LgsflxJvv/y8ys7ORlp6BvNxseN0+dLT3Y3xuKVq7q+GJ8yM/YzL2HHgJN629H/VtezAuYy5e3/EcfM4erFz+JcQPZWHD5h/jkplrsWr+N80ge098O57f/AfUtlZgzpTlWDxvBQqSZyIhKQEvb38M7Z3Hsf7aXyLBlnJuEAnq+TAaXV3fcyux7mM8W6n/v/9QzkS2D9bgmVf+DdOnLcaSOdciHsloaT+Id/b8D6676l/gtBXA4x3EoZp3kJjixztVf8b1l6/HyWOtKMyfjea2AyhIn46nNv877vzGo3D6Yc6MHjr2Iaobd+Cy8mvgtOWbQQddvc041rEXsyevRpwvGSkJifj05HaMy5uIJMdEwD+AIV8/3t69EasvuQ1PPvUIJpUWYcb0cgx5XXANevFR3U6sv+Kn5pqq35xW9uGld/+A8rLVKMmfEdgBAahu+ivaO6tRJJ/5HegerEBBxlz4XImob61E+6lWZOVmYUZZqTmXe6qzA12dNpROLscnR99FRcVOVFS/h5KMWcjMyzAt+PGOOtidg2a44it/eRI3r/kuqhuPIjO5FM3NVThxqgZfufLb2LTpP7Dmipux8+ArmDFhMdyefkwtm4H9h/fiy+W3n7kB/uwZsut73pRG0zHqhQDVWoYcZ9nscmldEHNg0NsAZ7wdNk9e4EZluw99A51IcNrQ2dWB3Jw8c83P7R4AEAdnXBY6+mTMbMmZ1fLaBtHQXoGs1GKkOnLMaKYhzyD6XV1IT801l1dk6nQ3I9OZDb9P7gf1ob2nHvFJfmQmTIZdLnuYjrMMbhgw30vFdluajG03y5AhAY1ttchKLkKydHPtcsVVruP2wmdrDxyLnx6U4fXkYMjlg2uwD9nZ4+D1+TDgrTM1JMUVI84WGKbX2d2EjNR8c5/qZ6fANVzX0HEkJCQB/nS4vD2mhoQ4GW4XONw4VPEuZk1fZi4XAS7Y5VKPDPSw283AjMA0UteWoBLU05v9397RHzgmMm2tuZUq0OoalMw4Aut46rMbV+BuennagvzYYfcFDweUY+DAAAfBP/BUh8BTDmRcnXUJwmNzmZusZaiEGYhgl1bSBqnSOowLDGCQ+U6vp13aTD9svsDgAjOSyWdd2z39cBF/4FjdGtwgx+wiy356oVKfGa90+v9mcMI5X3RshjEEBk9Yj6k5/dSGAHNB5wRsbtj8cZCxE8FPf5CqPm9ce+DaMY9PzxdWm0/u4YqJafjQo7PJDowk+v8peAM7O9yhWXeWYU9ndjLDW6OR6hlpGWdbg9GUHT7/cA9O793O2WqeT32hORjrpWII1FiPmvrHsgMEdSynx3WPGQcIasxETaFj2QGCOpbT47rHjAMENWaiptCx7ABBHcvpcd1jxgGb/2wvuogZ+SMLpS3cCKLJAYIaTWlwXejACA4QVG4adGAMOBBVoAZ3N//mFYkjvPzpYnj8hV5QdTFWhMukA6cdiFpQhydEeLjNxrIDUQGq3BwuT3Q45zs9P2/0dyynSO0XxQHzUDq73dwpFekpKkCVh2PLs5GCp2BoeQY20ptJbNYv2508aUTeYSTARnKKOKjy6BUBVSYCGclNgXWP5ICAar27JlIuRRxUeQKhPNiMEx2IVgfkgXvyWpRITgQ1ku6z7jHhAEEFwBZ1TGyrMb2SBJWgxjQAY0U8QSWoY2Vbjen1JKgENaYBGCviCSpBHSvbakyvJ0ElqJ8BYOy8BTu2uCWoBDW2tvgxqpagxjioTqcTDocDAwMDZjypbBDd3d1mc5aXGmdlZZmha/K3/JaXZw0ODp7Z3GWYpTWfjJeW72Skl0wyr1XeGo6Zm5uLtrY2M4/UbY0Es1pyWQ9rnazvZESOecGyvF1dnsQ/MGBe3BVLE0GNQVAFGhk/Gh8vr7zwG1CtN9aZ12QMDRkgBDr5v3wvnwlA1rxSXr6Ta9BSTiCW5Vk3NiQnJ5t5pIyAJX/LvLIM+bF2DAKbgCj/l2XIeGtZjrxFT5Zl/VhQynpLGYIa/t0URyaF33MDkAWqQCRACJDymQAj/5fP5f8ChwWdtJYCmrSUMv5UWl+B3WohLaAtQOW3LE+AluVLWaultOqRl0ZbyxEr5HMBXeqSH3lXrYAsk9QtOwbZkcTSxBY1BltU2cAFGhk7Kr8FOoFHoLQmabGk5RLQpMWz/hZIZKMR8KQbe/LkSQOWBbnVRbVuz7KgtKCXcrIsq7wsx3q7u5SV5cuOweruCqCynj09PWd2LvJZMPCxACxBjVFQrS5tcFdS4JDuqdXCSqsq8EqLJgAKvHLzgtXCCUBdXV1mHmt5AqBMAr+0ivJbQLa6vlaXVsrJj4AqyxNArbplPvlb6pT5ZL2sFl/mkbJW9zwWIBWNBDVGQZXwBQj56ejoMBBKyyZQBXdDBUD5EWiCW0PZcKxbA2VZ1skggVegkuVJN9U69rW6rlaXVpYlyxWQBVRpMa3jZSlj3RtstZxWCy07Dqu1jxVICerppGNtUL60VtKyyW+rVRO4pCsr4FjHp2KPgCHAyWcCkEAirZkAKUBbx6QCm8wry5PP5YyvwCmtoZSR76ydg/xf6pdlyeeygxBQreNOWYbsMGT9ZH5p9eVv+ZF5pBWX9Ymle4fZosZwiyowWMebcmJIdljWEwWkiytgWE8WsLqaVlfUAkxaVatbKssTqOUEUPAjRCy45TMBWlpSaTFl+fJb1sEC1QJSdhACrCwr+OyzQGu1qAQ1vH0KnvUNr9+mNoHFalWt408BNfjSjcAoUAgw8rnAI/MJPNblEatllZZPliffSZnhj7GxWmopJ2UETmsKbi2tM70CvfxIPdY1XGseAdcCPQLWRaRKtqgx3KIGb3EWDNZnAsnwM6vmbeOnL6/wiYzh5ZWgxjio1tlVghde8EZbG0GNcVBHu8GwfGQcIKgENTJbHmsdlQMElaCOaoNh4cg4QFAJamS2PNY6KgcIKkEd1QbDwpFxgKAS1Mhseax1VA4QVMAMcZPxrjLF0miXUW0pLBxWB4ZfLsvMzDRDKSM5RXxkkoiX27WGPy9oOLTnemlUpL4bC+t4th1gpPwK97pcqHzy8vL4kigJT0bmyHhT63Yr6zNrD2YNc7P+H3zjcri/G/5Wr+B1Cf5u+MiiaP1u+E3gwesZSZ+/aK4XIh9rO5Mhl9LtjfSb3GR9oqJFPVuXItS94fBuSvB8sfRdqH6Z0IPeNXux5xurGUSym3u2uqMW1GgziutDByLpAEGNpPusmw6E6ABBDdEoFqMDkXSAoEbSfdZNB0J0gKCGaBSL0YFIOkBQI+k+66YDITpAUEM0isXoQCQdIKiRdJ9104EQHSCoIRrFYnQgkg4Q1Ei6z7rpQIgOENQQjWIxOhBJBwhqJN1n3XQgRAcIaohGsRgdiKQDBDWS7rNuOhCiAwQ1RKNYjA5E0gGCGkn3WTcdCNEBghqiUSxGByLpAEGNpPusmw6E6ABBDdGoC1nMbxbmh/y2mR/5lxMdGNkBghrGrUOeT9TpPoV2TzcGbC54bB7EIQ5ZtjTkx2cjwRHZR1KG0QpWNUoHCOooDfuixd3woKLzCHb3HUBl11EMObyAXdpSG7IcGViWU455SbORn5ADO+xftBrOp9QBghqmYN9p24U32rfD5/ciITEBbUPdsMGPBLsD+Yk5aO3rxpy0MqzLvRxF8fnsDocpl7FSDUG92En5gdqBBvx30/PoRA9WpM9FtjMXW1rfQw96cHn2IixMnY0NNS8AcX6syV6OVTnLkYD4kNfM5XKZR4AePXoUZWVl5mHmu3btwooVK84so6amBlOmTEF/fz/k7zlz5pz5Tp7fK/P09vaivb0dSUlJSE5ORkZGxmfW4VyPYg15ZVnwCzlAUL+QbaHP5IMfm46/jh0DH8ELIA+ZSLUlo2GoCe44N3L9mZjsLEZVXyMyElIwK206Ls9ZhnRHqpxv+swzeEeq9amnnsJLL72EuXPnYt26dZg9ezZ+/etf42c/+5mZf/v27WhpaUFjYyNOnTqF/fv3Y9WqVVizZg0cDoeBWmDfsmULiouLMWnSJNxyyy0YN26cefj0k08+acpZoL766qt47LHHIK964BQeBwjqRfTZ5xfSgI01T2O/57A5ywubzWzwfhvgAJCGVFw55QrUt9aiqecEbD4HJiYVY3nRMpTEFSPuc04I796924DW2dlpWtSVK1di8uTJuPPOOw2MDz/8ML73ve/h/vvvNy3q2Z5AL+WWLFmC2267DZ9++qmBfPny5WaenJwcA/SRI0fMGw1kfoF37969kFc9cAqPAwT1IvpstUDPt7yCHb274RVwzYWZwJTtSMe8gnn4uOEg4uMd6PSfgs0Wh3QkAW7gqpK/wyWpi+GwjdwN9nq92Lhxo4FIgJLfP/jBD3D33XfjjTfeMC3jvffei9/97nd45JFHzrTQAtlNN91kXtnwwAMPYNasWdi3bx/i4+NRW1uL66+/HrfeeqvpKsu7gaRcX1+fgfShhx7C97//fdOCcwqPAwT1Yvvs96PSXYWNx15Ar78bfjjgswF2vw1Lc+fjSGc1cuJysbpgCf7U+Cp8ANblrkBFdyUauhtx98z1GG8fN2IXuKGhAb/61a9Mi+rxeDAwMGC6qgKldGFTUlLwi1/8Aps2bcIPf/hDU0Zglm7tXXfdZbq7skNxu92meytTZWWlOda94447TJf40Ucfxfz5802XOT09HQUFBabVlmPg4a+suNh2xuryCerFTt4PeGxubG19D2+3b0O/I9CeOv3xmJ5Uirr+enjhw7iUYtT2NkKOaYuS8tA91Ite7wCuK1qHVemXwj7C8WpVVRUefPBBA2VaWpo5dnz22Wfxk5/8BI8//jjGjx+P9evX47777sOGDRtw8803m/qPHTuG0tJS05JKi+x0Os0JJIH27bffxo033mi6zjK99dZbeOKJJ1BUVIS2tjbk5uaaFrWwsPBiu8fln3aAoIZlU/CjH2483fAiDgxWmDFJTn8iZqROQ3VvJXr8feZY1i9dXOuY1BcYr/RP467GpSkLYfPbRmy9/vjHP2Lbtm3m5NHVV19tIDp8+DAuueQS3HDDDbj99tvxox/9CGvXrsXBgweN4s2bN5tjTDn5VFdXZ2CVk1ACvnRx77nnHuTn5+M3v/mNaaUXLFhglilv3ZPjVjkx9fOf/9x0lTldfAcI6sX32NRgzv7Wb0V6ZgbynNkY8A8gMy4RrzX8BdWeZtjlyNVuUWqDz+dHgS8b98y4FZnINCehRpqefvppbN261YAjZ3WfeeYZfOc730Fra6uBT/6WFvW3v/0tFi5caBYjl2LkhJF0hSsqKtDc3Gy6tQKidI2l9bzmmmsMkPKyafleIJbPpIssx63l5eVR8UrCMEUY0WoIahjsN2d5YUOf14VEuwN2aSulBQVwwteOPx1+GXXxDfCehlFaz2RbIu6adDMmx00AbOceqSTvlZVjTDkeFYgEQjn5Y52llRZSro3K8aY1ybGldHeljIBoTcEvlJb3g0o56xhWflufhcE2VhHkAEGNyOZgnfeVsUmAC25UuetRc7LKjP/NScpGS0cHvjZlDVKQHNTSnt/KhjJgYfib38+vRs59oRwgqBfKyfNcjgWR3xa4p8bvD1yzPNex6XlWydnHkAMENUrDssDl5Y8oDSjMq0VQw2x4qNUR1FCdio1yBDVKcw4+npRVZMsapUGFabUIapiMHm01w0ElrKN1UFd5ghrFeZ4N1uDVZSsbxeFd4FUjqBfY0Au5OF4quZBuju1lEdQozo+gRnE4YV41ghpmw0dTHUEdjVu6yxLUKM6XoEZxOGFeNYIaZsNHUx1BHY1bussS1CjOl6BGcThhXjWCGmbDR1MdQR2NW7rLElTd+VKdEgcIqpIgKUO3AwRVd75Up8QBgqokSMrQ7QBB1Z0v1SlxgKAqCZIydDtAUHXnS3VKHCCoSoKkDN0OEFTd+VKdEgcIqpIgKUO3AwRVd75Up8QBgqokSMrQ7QBB1Z0v1SlxgKAqCZIydDtAUHXnS3VKHCCoSoKkDN0OEFTd+VKdEgcIqpIgKUO3AwRVd75Up8QBgqokSMrQ7QBB1Z0v1SlxgKAqCZIydDtAUHXnS3VKHCCoSoKkDN0OEFTd+VKdEgcIqpIgKUO3AwRVd75Up8QBgqokSMrQ7QBB1Z0v1SlxgKAqCZIydDtAUHXnS3VKHCCoSoKkDN0OEFTd+VKdEgcIqpIgKUO3AwRVd75Up8QBgqokSMrQ7QBB1Z0v1SlxgKAqCZIydDtAUHXnS3VKHCCoSoKkDN0OEFTd+VKdEgcIqpIgKUO3AwRVd75Up8QBgqokSMrQ7QBB1Z0v1SlxgKAqCZIydDtAUHXnS3VKHCCoSoKkDN0OEFTd+VKdEgcIqpIgKUO3AwRVd75Up8QBgqokSMrQ7QBB1Z0v1SlxgKAqCZIydDtAUHXnS3VKHCCoSoKkDN0OEFTd+VKdEgcIqpIgKUO3AwRVd75Up8QBgqokSMrQ7QBB1Z0v1SlxgKAqCZIydDtAUHXnS3VKHCCoSoKkDN0OEFTd+VKdEgcIqpIgKUO3AwRVd75Up8QBgqokSMrQ7QBB1Z0v1SlxgKAqCZIydDtAUHXnS3VKHCCoSoKkDN0OEFTd+VKdEgcIqpIgKUO3AwRVd75Up8QBgqokSMrQ7QBB1Z0v1SlxgKAqCZIydDtAUHXnS3VKHCCoSoKkDN0OEFTd+VKdEgcIqpIgKUO3AwRVd75Up8QBgqokSMrQ7QBB1Z0v1SlxgKAqCZIydDtAUHXnS3VKHCCoSoKkDN0OEFTd+VKdEgcIqpIgKUO3AwRVd75Up8QBgqokSMrQ7QBB1Z0v1SlxgKAqCZIydDtAUHXnS3VKHCCoSoKkDN0OEFTd+VKdEgcIqpIgKUO3AwRVd75Up8QBgqokSMrQ7QBB1Z0v1SlxgKAqCZIydDtAUHXnS3VKHCCoSoKkDN0OEFTd+VKdEgcIqpIgKUO3AwRVd75Up8QBgqokSMrQ7QBB1Z0v1SlxgKAqCZIydDtAUHXnS3VKHCCoSoKkDN0OEFTd+VKdEgcIqpIgKUO3AwRVd75Up8QBgqokSMrQ7QBB1Z0v1SlxgKAqCZIydDtAUHXnS3VKHCCoSoKkDN0OEFTd+VKdEgcIqpIgKUO3AwRVd75Up8QBgqokSMrQ7QBB1Z0v1SlxgKAqCZIydDtAUHXnS3VKHCCoSoKkDN0OEFTd+VKdEgcIqpIgKUO3AwRVd75Up8QBgqokSMrQ7QBB1Z0v1SlxgKAqCZIydDtAUHXnS3VKHCCoSoKkDN0OEFTd+VKdEgcIqpIgKUO3AwRVd75Up8QBgqokSMrQ7QBB1Z0v1SlxgKAqCZIydDtAUHXnS3VKHCCoSoKkDN0OEFTd+VKdEgcIqpIgKUO3AwRVd75Up8QBgqokSMrQ7QBB1Z0v1SlxgKAqCZIydDtAUHXnS3VKHCCoSoKkDN0OEFTd+VKdEgcIqpIgKUO3AwRVd75Up8QBgqokSMrQ7QBB1Z0v1SlxgKAqCZIydDtAUHXnS3VKHCCoSoKkDN0OEFTd+VKdEgcIqpIgKUO3AwRVd75Up8QBgqokSMrQ7QBB1Z0v1SlxgKAqCZIydDtAUHXnS3VKHCCoSoKkDN0OEFTd+VKdEgcIqpIgKUO3AwRVd75Up8QBgqokSMrQ7QBB1Z0v1SlxgKAqCZIydDtAUHXnS3VKHCCoSoKkDN0OEFTd+VKdEgcIqpIgKUO3AwRVd75Up8QBgqokSMrQ7QBB1Z0v1SlxgKAqCZIydDtAUHXnS3VKHCCoSoKkDN0OEFTd+VKdEgcIqpIgKUO3AwRVd75Up8QBgqokSMrQ7QBB1Z0v1SlxgKAqCZIydDtAUHXnS3VKHCCoSoKkDN0OEFTd+VKdEgcIqpIgKUO3A/8H2IbWR+s33xcAAAAASUVORK5CYII=;" vertex="1" parent="1">
          <mxGeometry x="630" y="60" width="279" height="620" as="geometry" />
        </mxCell>
        <mxCell id="DLbalJQPhRF_PF3FXGdx-2" value="" style="shape=image;verticalLabelPosition=bottom;labelBackgroundColor=default;verticalAlign=top;aspect=fixed;imageAspect=0;image=data:image/png,iVBORw0KGgoAAAANSUhEUgAAAOoAAAIICAYAAABgh3LuAAAAAXNSR0IArs4c6QAAIABJREFUeF7sfQe8FcXd9nPO7RW49N4RkCZNmqIgSFFj773XqDHGiFFj8qqJxhZTvlRjg1jBbowtYEPpIL1KhwsXuL2d8/3mPzO7s7uze3bPPfdyL5x9f3kT7tmdnZ2ZZ55/n1DRofIokheAMKJRPhQh9r/FmIRCIfp7SPw7iohjtORz0RAg7+d/M5+KRtlzvC3+WwoiUdB75PPsX+wu+rfoQCRUS++jP0XYn83f2E8RcSPdLvrP/yd/d4S9T96j/M5/E+1p5l99T92WB+uHHAd7S/T1dWs+3qfZXLn2y3+jYY9b2VpI1BVKAlUOZRKo6qJKAtUfxJJA9TdOCbwrCdQkUPXLyYsXvVg5gYSKJKMac5ME6pEOVC9R1BuMdgCbdycSjOZbnL1JAjUJVC2NHImibyyg+tMoQ6gfcCow1bwgCdQkUJNAFeauJFATqEnWX1NJ0fdoF32TQK0/dCWwZQWoIWbLs7pWpDRi83DQ+1X3jOyQ6Z6xuh/Y3yPML4IQItFQTPcM87JwMZS5dfi7DDeSh3smoniRpAuH95X+P3XzSHHPuIm0OseQ07nGZ8x6b32It15tqm4qvTsrKfrqRF/CKPt/DLAMGBFDL0kCNejeWP9+1CBAlduU3XvrDVQ7vL2+yW18/ALVuW3QX446P6pwdDuNJSqjyunkzJoEalBwqvfHAqrJ8Pan9L+Iuww5lTlITOnHz5t1IRZWsVcFlVtQRlCwBgGqhuOPHqDaJpP90zJjDJDmNHNRl/3BBLDbcm2Moq/8FhnkZEYnNSbR11AUhPhpTkAoymWaWq3iyCLF5NwA4TAPO5Df6A5WyYy6MAUbVOmfEYB1hAZTjTSTb2DteIU8sFCyFN4G2/JdlGB33djchJoko8owvWD7fAgpKamIRGppQjlOzXA8NhdMd2STboQNigGW4XhNAaiffvIpKisraZUXtChAdk4udmzfjjFjRiMrN9eio/77lVcwYuRIdOvWDaWlpfjXc8/hlltvNRe9hnq+X7EC27ZuxYSJE5GWnu46BYWFhZj95ps477zz0bxFgeO+stJSzHzpOXTp2hETTjkVaanp+Nmdd+LxJ58G08v/8Ze/oHD3TvQbNARnnHW2Et4JfPrRh/j8449QVV2OUJTNawjjJ07GyadOR2pqmvGukpIS/Pej/+L7FcvRuk1rHDq0H/n5+bjpxtuMe3bs2Im1a9di7NixSE83n507dy7+8+G7KK8sRSQid3UGHD4oFKEpwjRzc3Ixddp0jB09jthdQnrjuhJ0750HUBioO6OqMoFlk1FsJU0CqHv27sGuXbvRs0cP5OTk4B9/+zvenP06HnjwIRx//PHGt1VX1+Kss36EXj174eFHHkF2dgYef/w3+OLLL/DSSzORl9vc2H1psAXtfLdgAW6+6RYMHTIYa9atxTXXXIMLL7wQaWl84poCUElPiwKXnn8WDh48AKRE0aZdR/TrPxCLlyzFI4/8Gu07dieglpeX443XX0F6ShiLFs/Hps0bkJdXgAsuvhTLli3DtdffiJycPEPiOHToEL7+4gtkZaTilVdews5d25CRlY9Zr8xxBeq2bVvxwL0/Q7/+x2Li5KkYOmyE5d7Kyios+vZrpIWiGDpiGKZMOgUZWVl4/8NPsadwD5Yuno9+x/TFFZdejM++Wojq2ij2F+7BC8/9HcuXLsVNN9+M/sf2J2CsXb0KL73wL2Rk5eDWO+9G+06d6V3FBw7gxef+jp27tmPP/v245cZb0KagAB269zL68tbrr+G1V1/B//v7P5DXrDl98/8++QQ79h7A0CFTUF5Si0gognBKFaKRMEJgGz1j0VREo2GEU6Lo3T0dGzauRk1tLYYPG4ZIOBXRUCb+8Ow63HZLVwDVRKchsfHbB+2IAOqihQtx3rnn4YorrsAdP7kTa9aswa233IJXX30dDz30IB797W+RnZWFrKwsjBkzDl9++QW+/vorvPbKq2jZqgW69eiCc88+F126dMG+omJiS9oMBUjLysowadIkzJ37BVJSGJsCN910E2699Vb079+/DkC1inXGv+rJ6isn+9wfTcP4E0/ChAmT8af/9yd07NYJixYvxuOP/xYdOvU0GHXHth/wx98/hUWLv0NOTjaKS4vRtXN33HPvQ+jeqw+lB7AxYqyUnp6OFUsX46sv5qFN2wK889Yb2H/gIB64/yGMHHsSKiuqkJKagrQ0zrCffvopmjXLx9uvv4JxJ4xDcUkZJk6ajF/MuA9PPv17pGVkEsOsWLoIVeUlWLjgO1xwwYW49NKLMeftD7B33z6sXbUUAwcOwflnnoaPv1pEyQpff/kFtm3ZiCmTJ+HlmTMxb948msuRo0bhkksuwWuvvYZJU6bhmGP6icSGWtRWluP55/6O9z94Hz/96c/x+GOP4+VX38T/5n6GFgUtsXXjRvx71st47oWZyGvejPq/+Ntv8N2CQrTuMBG1kQyEU3Zh5stPo02rjmjXtid27V5PYvGEE25ETl46pk3PxX//Mwfbtm/DpZdcipSMHKxdmYM57+3Bzdd2QGZWNdKzyoFQtXZjOyKAyr7sg/ffx+qVq3HNddfiheefR9HBAwSmJ594En2O6YNNGzfi/PMvQJeuXZGXl4vZs9/C8mVL0b5jW9oBjz32WNw74xf4/LN5joF67p/PYfSYMejbt68AJbBy5UrMmzcXN954Q2CgSguk6UphFmOuhUSjTAQKG+4Z0rSYyG0ox87sGb/uGTnZZ58xBWNHn4DmBa3QpUcXfLfgOydQo1G88dor+Mff/kwL+i9//Quuu+Fq2qSmnvoj3H7nz6RUh7vvuQdjxgzHsOOG4c/PPov27dshv3kO/vPBhzjr7PMxYeIkzJo1CwMHDcGJJ50sBMMw7rrjx9i0bhV+dPa5uOiSy/D9smUo2rcfbTt1wIABQxANhbBx7SrUVJQhIzeXFJGnnngcN918G8rLK7Bxw2p0bNcR3303Hz++ewaNERvFPbt2YtbLL6K8vAzjTxiHSCSCBQsX4cCBA7jowovRf9AQw/QQqa3FN1/Ow4plS9Cvf1+8/PJM9OnbF5dffgXuve8ejBo1Fs1ym+HfM2fiuRdeJqCydyyc/zW+/W4nWneagkg0EzWVG7F8yTykZmYjUpuGlNQa7N7xA06acCOa5aVh6pR8fPzRWzSO9824D4OGjsT9v9yAmpqOiNRWYPwJeThtegZSwlWuEojuh1BTE33fJ6CuwrXXXUdi3R133InLLr8Mb815C5dddhkmnjLR+M4PP/wP5sx5C/fcczd2796Ot9+ajUMHD6F7z1646657lJQy/sjChYsx58038OtHHiaxZ8uWH7BmzWrs3bsXXbp2xgnjTggk+qr6MzfkUG6a0HutQOW+1HoA6pixQFo66WXFJcX47LPP8PhjT6BD526GL/b1V2fhH3//I43BU089g3//+yV88+03mDJ5Gu78yQxEaZEAK1asQHlFKUKRCP751/+HTZs2YfKUqWjVqiVqoyFMnjwZO3fsQtduPVDQujU9s2PHDsz932f47OOPcNrpZ2DEqDHISEvD0sWLcdLJJwMpqSQ+FhXuQnZaKhYuW4Gx48bg9VdfRfdu3ZGbm4uS0mJs2rAOk0+dgvyW7blhh/3/2lqUHCzC4kULMG/uXLp38ODB6NylC/bu2YuMrGwcN2wEUlOZaAoU7t2NlSsW49j+A/DKv1/Bu++9i5defhH3zrgHI0eNQ3MCqsmoHKjfYP53O9G206mIRDJRXrIG69csRDQlFVVVKUhJDWH7D1tw6vTr0Sw/DdOnMEZ9lxj9rrvuQs+eIzD7rQMoq8rA5h+KMXVyGo4fnolQyM2Lq8dvkwZqfrN8LFmyjMSl5cuX4Rf334/mzZsjJSUFX335Jf74xz/jzp/ciREjh+HBB+7DiJEjMG3aNLRqUYCig6UWyy4bHmY8uvjCizBg4EDS3dLTMzBs2DD0698Ps2e/iTvuuCMQULmtUhgcRHABN14x9rQClf0twjjfiE5IBKNOxdixY1CLMDp27oTaaA3enP0mnvrdH9Ghc2cDqLPfeAV///sfUBupwaABA9C6VRt89r//Ydq003DbbXcbQGVjtG/ffvzm/36N1SsWU1JsJBTGmHEnYNDg41DQsiXGjT2RgCdtT5s2b8R333yNJYsXYMCAY5GZnYMRx48BU2POOP10gEAUxqoVS/DDxvUoqajA2eedi5/dfgf69DkG7dq1p7Hv1bMHbrrlVhS062QAlUa3uhKvv/YKGYZIlQkBQ4cOxeYtP6CsvBzjxo1HihDDv53/DZ556jf48a13Yu7/5uHTTz/GzFkv454Z92LE8aMIqK/MYozKRV/W/lfz5mLlqkJ07DYZFRUhVJRuR3VZIWqRgrLyaqSkRbC/6ACO6TcK2ZkhTD21NeZ+/hltYkxNy8lhInQIu/YBb719ABdf0BL5uTXC+us//7ZJAnWVYFSm+zz4wC9JxD3p5JMwYMBAzJz5MsaPP4lE1S2bNmPE8GE4YfyJGDZiOP496yXs3r0Lxx13HO766c+5pY5M7lwcZRO9ds1abNmyGdXVNWjbrj0OHTqI1WtW4+yzzkKbNm0CApXrv6a4a06MDqgMwgyoAtqOxHG/oi9Pg47inB+dgZHDh6CkogpLv1+O3Nws7N6zG//460sWoO7cuQ1/+P1jWLTwOxqKcDSELt164u577kOPnn24lVJs9EwUXbJ4EUKRGgJtaUkJOnbugo/++1+cffbZGDR4iMVNwfzOzNJ8z913Ysq0U3HCiePRoXNXpKSmCU8F62kY3y9bhK2b1qNlu3Y4ftQofPrBh+jQviN27toBZo0df9IJmPu/ubj4qustrpeUaBSVFWWYPfsN7NmzB3fccTv19vU3Xied+qILL0VqZhb1/rtvv8GzTz+OW2++HcyS+/GnH2PWy68Sow4/fiSa5+Xj37NmGaIve2bn1q146533sa+wHCkp6dyOG2EGoTBtYNEoE2HDCKWk0vbULB/IysrG9NNOR6s2bcglEwpV4cChKBZ8V4xJE9sKgxIpQDHFX9Ndw321ZEVuCn5U5jqoqqpCs2bNiAG3b99OFtm2bdvSIt9XWEi7KxO5amtrye+Vl5+PVq1bYffunSgrK0HHjh2RlcV0IXlxK6k1qoXrjIxZ2TMtW7YMrKPK1iVYZcgfF4k5oxrhhbRZhFBjhAXGz6i0BCIRbN+2HVkZaYiGoygtrwCibHFVon3rLginpxuMyraGQ0WF2LljE1av/h7H9DwOrdq1RUE7ptdzmKoufTYu7N9V1VWorq5GdmYWduzciVatWyOd2MvqDayorMDG9avQsXNH5DZvKWQK6VJk94axfctGZKenYOnKlTjxpPH4y++fRa9evYkdI9EIPvrPB5gwYSI6d++NCBs/MbgE8yizAu9GbU0N2rXvSMt5375C1NQCLVu1AVK46F5ZXoZDB/aiRfMCYtuS0hJ0aNcVhXuZmJyO1DBw6FAx2nToSMCjcYxGUXygCJUVlQiFU9zkUv53JmFEo0hLz0BBgXRDcamKqQaVlRHkZLpbfHWNq8ZhqYI0CaDqR4pNRDCZXzqeeXscqNpLxOBKc3q87hmzLAsVWBGvqkegKnG87FtZ6RbmA2QCNsUKC72TgVTG/Lp4DBzDQi7/KONBBokoaoSfP4V+UCEt0cTnhv3M3JBSkOHvYwvXPVBAQt46PeZc29/G+qRe4hXiTwHXiMuSsP45hFA4hDDZF/h4cG9CCGEfOXB8w3a/jjCg+hpR2/jakCnEXwO46p5NbCt1TffYEbkD03+L2+yiL6+XJC9eN4mHJvIlVxtlrhC+rO01k3ibPN6YW5JN15JXzST+DAOqFJ7YcuJ6JFVREu8LAlQ1uJ9iABgvsnHSAlUK81RIygAtbRq2EHh/M+kPqFaQyq1CvsFL7PSeY0sfRW0sAqrRNAepM+7YtFlYNhMPsNrnhG2wTZhR/U2v/7t0sb786XgY1Zg/WxR/0OwZ0QPDr8lAEY3wYDliTEO7NVJj6BHmtpDL1FrcTOg9Ys1SnAQVQNNfZuE1vQBCPGLZ8KzqBNexg1+Mp0xh1/58vNktfJvSXfEWIkuxfbsFjAxghmtOlarcx0O/cSaBqozY0Q1UNwFRBap2gSeB6rELCWmC7BPeQBWCk0tbSaAmgSoYtc5AVXQzVYgMxqgm23FGdbuaBqPy3kvR353NDdHH9XuTQNUC1VmH1lt402XPNDXRNyhQVVExFLWbc8xhDQJU0xPrLSoTgH2rlMqNHgEH1ub8V/xlemrsS28ei/2cvCMJVA+gqlPnbTm0A9UanWSdycaqo8YLVJ2OatXT/OuoYWaplilhUf9g8VrwVt0zBquJhtxib7Wivy+g+oek/s4kUJNAjVP0lQBIPFD5lsEMVImAahKodd0kGt3zaoK43VMXjFGtYYTKliuOkJA1k5g1mR85YQjKDvcMd/fy8yxk/jKz+rLLcNcYubVmS/wdwhUjmjcNQ9YkeX3KNX/I1ZgkspA4qNx9oh5GUccK4O4w+Q2JgKk9oMWLUe3xQP4WqF/3lr/WhEpr9wuzTaspRCb5/sg63agHKreRSD+n/gV2F4YJPasPTZ4/I0FECcnMF2eskWCRSeGIOMuG9zDw2TNqoTP5ZbrQxzoNK+dH1yZ8xAdontUBjmrs+Fddba16uVnq/v0BWmAbYNi6aURZ0EoSqHIQEwNUgrWMtxPCm8WPKQIWeAVAztzxprk1DaDGa6H1Wtx2oPoFqfuGQYGCDaJvxgCtDaj87qSOqoxaAoFK4UDcLG+WGZXiKgvt4yes8fAzVQxtWEbloq11hSaeUesbqH5BasYv66Di7ccMwIh1vVUDVArcTDJqPTCqTFtTBl2Kx0zslSGFZuK4ab7XhRC61fWtK6PKL1fB2jSASoqxAQm/nhp3J5KlubpCrW7Paxk1KfrWC6OS+BsRlR2IWZUi3dFapVgWD+pm/+FXwzOq26qKFZFkfa4+WDNoeU3eIy9bsWeYoCzXWDeY+XtaC0bvR5OMaoxP4kRfFajkU5XxtBSIzWJ1FTtrNAz2V6+g/PpmVN0SaRigxgtwj5jdOJ06Cbfe2gdV1pMm+4XVYOQH3UmgegDVjIDxb/W1anyisgMB0Yz15G4ZEU6vMCpffvzICqk6mtkzZsaLdM+EhNWXNgbxnCnOiowVketqBGGIIPlYQIz1e70zquL+cS5kq4Vb/d1PmpkOGPUJVGJyW1E9KJZdZ3+cwnwSqF5AJUsQgwxPzXJbvPbIJLcKDwRiI11NGpPYHKaIqnkiK4YMTWbNYQN83MsKmSGlZs9xf6x5Lo3xWezvEZ4vSf0MgQpe8r5Yt5UYwleQuD0/JCHG1s3UqmNbkcxOO5rLcx4AOFwGI8pVZUXCVRXIY2cIa4p61xmobLzefvttjB9/ItUukteCBQuQnZ1NFQCD7c4+5zjhtzlFX67T1A2oHBBKSIMCVL7e2G57mIBq4NSPX8IeBJKoCXB5t8MnqlScaERAZXO7efNmKmK+c+dOsMLjrNoI+zerSrJx00YANQTUmuoaZGVlorKqBv2OPdZ1AOsFqOxtW7duw/PPv4D777+PFiUrt7lgwSKcccbpArx+FkKiJj7eduoPqCpYVUaVOIlSMWdxYpsQfxuCUU2c+pmf+gGqW1Fq+yyqFlsvZvSKhKoPRmVGQ1a3iZUGCqekkBFx+7ZtGDRoEFjN6AULvkU4hRsWKyoq0axFPkqKy3DyxFO0+UFuIZl1ZlQ5oKWl5bj66qvw1NNP4fl/PY8777wTmZkZ8aLmMDzXUECtNUL/5EdGEghUO4NTCRYX0Vcd5NhSz+EDqt2t0piAWlzMi7ofPHiQakkxJv3qq6/A/j5+/HgsWbKEfOklJQeRmpGKzIwMpKWmYfjI0b7iK2RSfsKAyiadFUH+6U9/hmeeeYaqrzeOUA+/mE8cUHVvNIHA9M8IWX7rDFTF+Cl11HiBGptd4wWq15krskyMc8RkfQqd77MxAbWmpgZMzevZsydWrVpF4X/VVdWYOnUqib779+/HosWLqGxrJFJNNqSpU6eBpCgfSzPhQN2wYQPV1P3Z3XeDHT508UUXoU3bNk0IrA0FVF4xnyy7Qk4LyqjkzxH6rRFIIYxJcu6NjUHLqMZdlqXCbUvuxp34Imnj84eyd7mF+jcmoLKql/Pnz8eQIUNI1GUiMKvvO3TYUJJkCvftwYoVS+hYEHaVV1Zi8imTEEFKwwKV0f6iRYvxzTfzqa5uOBzCunUb6PyXCRMmUJnOpsGs0p3BhtPmNqc6wEZZbec+KBY3EZxiWbeuedWgpEQnUVB+imBY/hJZJdAI7hePinAIYzhlUL/p0pEuHAVwFAlltfqqXkhr7o5uqtjd8qO8YoB0APcTjK9/Tj3zXUs8XvuJF1P5oTGv521uo+raGnw57wuqG71r1y7s2L4DAwYNRJs2rWnci/bvw4ZNa8mIxCbu4MFijB0zFtGweXKc43XKsFG6XyKyZ8LhFMyb9wUpz3l5OeKdITrMKT0jHd27dfNB8I3lFi7ecZ+0UkNJlMjkNmB3Z7vqprHrfGoyOc+eMV0ptLsaaWlmMITqT+V/NeVlSkBnNXsFC5rVCcVK5FH/vEyonSWVgmNmCTT9HPBnY4m9LmMiTpizbtSxYnO5dZfYtK6gSvSyklUGFSAxRt2wfgPS09KITZkonJeXB3YCHh1Mtm8vSkoPICWN1wyuqqyiou65+QWWkwXVrqoRVKwwOtWfrmusL1+AjXFU45mlBAHVALTZBy+g1rLDbo28VGUrEH+jDYL+tyy1ycHHjsPgOaoy3U1SLxWc5S8XjKrbtdkd9QZU6eC3vdg7Ltd0wdSHhdbviuABClyuoiFk4aDCD6prg4GTFevOyMzgZ95EothftB8tmrdAdXUlEGahaDwBQ5wliPSMLKMGsKxqIduuF6D6/fimcV9igCq3LVWstJdnMdg3yiqqsyQrRWw1gMl5VAUq09zkkYjsRDRiUn4OlfH/6H/XqtYqDauyeyj4wXuTjYtRPaOK3FeCXxdMfa4lGUUUd2KrvXNCNPBOrreKDkmgxpzhxAHVDlYrUGVIIWfKSDjFiDYymdWs2cvFVx6yLzknwqyIoko7R6lNsrExKYnWLoaiWo8oGRWo9qB21ZJtyKkJAKnYQxpe9KXp52fkBrmMjKN44xAV9nZ7b51F3yAf1PjvTSxQVbBagWqt81rL9GF5yoGtGDa5XdTIJhFGKEmTB+zzkaW0OaH/GqKvMujeYNUzqxdQ+aulfiqCzQNPst6629Cib0icVWPtPrdY633MVmu2jMmO4/N9pREkgWoZ2cQD1b785cLnVR24eMqAymRQQwBSwGr4R40fySbMnxPSrQSrbJs37VLnyU1nlWfE2Cw4nkBV44VDXnV4XXnC1UzVkEAlRmQ6qNju+H87k/7Nr1B+i7ejgrX9VoZKAtUBVB5/S4cYKcYceZuX1ZdAqTnCwhCN+A3CCMSD6DknMQszZ1kpPcl2armCapFao0KzZEBVXTjc4MRojvfduFRjn/y7YXey6kdm/Sa+xZjNsKByvRk2oKRodIubVjxMuwm2+qq1iOzMybNZrNWuPNnRkI99dtI2SH4BKvuQBKpuNthCF6eNkQ+SNliSgSwuEu2jtrQy9jw7KlLmpLJn+CnjJuOFo2HU0GFLihgrEFLLNnobUKWrhgNVcLaoxcSBKkz6kiMkUMWZNbRgda4b2zkxpkVYumecLE0nmNnFBnVgtGfPhMjfLsMbPQGRwB/14q3gUXUT4pg1N5SgSqu9zz500FifmQRqIwIq7QcGWDmbcaCKvd6yeUdRI8Au3WM8sJ/rqsL6ZBgvqU6TqOWUKKBazlB1IxYHUAVIhXQh/cexFmoifo8JVEUc5Xsb/yjPyhCxOpYAkFIf6upHjdXPJvn7YWBUtiRqxWJXmbXGkIWdYI2IzFJJzjwskTUiBEoBXOne4eTLjT4EaLseG4BR/bpSGLmrxzXy5zgiqJc+JUe/68jL3+nZhntpYr+vdtxXJ4DbWksC9TAwqowikguYib5k/xHrlteh5ivYAKropxnDy0IPRSaONCopQCVMSmBKw6yKCp1RSSOm8j5ycLmdDeNpT/E4djFeO4wXcrxYsz6AmhAw+mDdJFDrAaiySclwdh3VxA+v5MCAKoFlZ1U7UPmzIiaYnWQsME1BDzLmmHwFQns19FMDuno25RSnJThxyMRRBVRD94/hPEkCNW6BIwEP1lH09QNUFaxKqXwSf6U0yETgGg107ECVbVEMMT1slo0xwjsJbWZoodY36Mp+XJR2s9AeaYxqiSiLEaKUBGoC8OYpInlY8vjilvZ0Kfrx1vTOb/2bWIwoWY3JT+eMiTb9n2r4Hy8fKsFqFEETaDRUOjLuCplWGJs4g3P3LLlZDCOUMDIpOqvRY2Etpn97AFXA331IPYxJnlMZh44qY3Gd7fKKj+5uJA9HkjDa8e1MGJFixRH6EFndvt2pEit908zDUSv6eu2EqsXPPtAyh9TPPiKBSotcRL5YooyMyoQ8U8cMWAgbeTI8+F6KsTbjCxl3RcEzrviKAH0OVKPYmQCD3BhkMrLB/DK80EOfpG+IA1R+xinoPXqDEQ9CiCgZRo526wCsRLeVEmMTsJ8rmwSqZpUkCqgU3MBY1QWonCTNCoduQOVRvjo3jenXVY1MrEkZuED+WjvANEFLzALM3C2qhdY+NI0XqGakUIMANQGAjwVUNvZq8EkSqPUJVJkFw5hOlLHUic6STWMCVfRV6qhCGDeCMAxjUq05yXZWpWfcTpGMmOytY7mGBKp/N4s95raeaT8ASL2kNn8nlSv2iiPej+qilniFcCWMURWdVlZ+8ANUJsOx6g3cSyMXnpk2rrKnjFKy688ys0YFtXyOib5uurY8EtLBpkJHDiqmxnu/F1A91ZZ62E3iNRglAqhy/I5oRo13gOvTivyjAAAgAElEQVQTqHZAyX+rOqr0WPJQQ5MhZHSwRbcUFCkNIBKAWqCKAAOpoxoWYT9o0gVI+HkuznsaGqjxrpV4n/PLqEmgeiygxgBUklBZCKElyF8txsIii0y2dZZpYYwsDFSKNEhWaKWwk2+wJoGqXTFJoPrdieNMVPZq3guoaqGvWK4ar9+JQaU1V7pSDMOS7F0YtQYYVSFXaKey9pLIwrEknStJ5WrOqhuj8xZZIS1zZMgIpr7flhnkZ4qMigma2k3Gb5qGyPVk8VhY3Rd+3u24x8M746oKMZ3UTaevQxyw2hXyFMZIQWryom+8O1r8QDWEEffKmuKWmECVC98wNPHT3ngILkcML9Mi0+NUV7xkVI3ll9iYz7w1V1UX3G/1DTtcN2pJlzjQoc6PfTwoOcDFn+1VR4h+IxwHTLALYAgS+xavcqRsVvYhSMT6o0StJFCDry5vRlXbU2sB69/jBlZTJ2Ul9wSo5LGMShBCooAqmdTOrrLXqqHJ8SWyQmIcjKpjtbBIIXQPsJDBHObTFsCHuBNJhl76nuEgQFXuTQLV9wi735iIHc3eun+gcnEx1vr1svTSu/0AVViAVT+nLLuiJrOrxiSVUQ1AavRWy/e7iHmk2wqiDzY+SusBzgX1ZlRzFFjRMAsZBQGj27KytRHU8BN0WR9ZjOoiIgUUfnyNYfCFGBysfhmVFT5jfk/aDETFCSNSycOYxEMWWcCFNQnaEIVdUsy460Yg0mO0vOovWR5TbQieZ4JaX6YC1VFUTTCqfIIKVEu41hWomufjBaqvtelD7CU6aAp+1PpgTS/EBgdqbGa1s2psoHKwEFBFSVAJVKOIi8XQZEWkNOwyv6h6zo0q+urEYHfXjRr77FEv2DawXnqo5xwIY5JOD43agEqjL8FaF6C6PBs3UIV5wRc7xLgpCVTNAHkB1ah/pJF3veKAvYHKI8LVcEKCKfOjsqJbrEMijc3ikLEYOaxlYswAC1bnTK1UaI0Xdhh4LK4bNcpHVuST8i8/Jc7rklZdBlY/LK22xYPr9TYWHVANsBKD++Iya9c9AJ4EqjpU9eBmScRO5ljIigju1D3lAnGP/KE+qVktSkwnByq/jHDAEAvQp2hzIw9V1vuL0GFT5lfKomdGGwLthiQrwn4j9qoRFoQo7Vk2I34Giuid5b/Mf2gAwgL9NdFCvKyZHuieEpRINrAsHQWYWpDauu1YFyy5iRg5sVfoiGTUIwKocqKDWYNZ4L7UKZ2BuGFytZBgK3EsToKjUiweQFX9qtQzoevKYG+Hf9Wmt+o2Im2EnuyDZqU76t3SPfJgB2c2kKfTRbCevd+xgC0hqLXAizbjZk2vEi4JRH7jEX2PYqDSAhLGHy4Ck+VIoD5MoitjUS5piup9DLzME69UKOQMZTXbOkRupeRvLKCqzG6cxaJ2zULdLr5AH858vzxmll21AtwCVA8R1gFU5d64gZpA1vQah4YFaiMFo9cABRN942NU+ZTF9aLkqhLjkhtIk6eqVtYX2HaIwJZ4YWtt7ljGJd3YkNiqBGWY96gUIjqTIKBa/Kg25o8LqAlywSRSvE0C1e+WrbmvvoBqYStF87MG1zM0MEYVFXbFiWCyHCiZjyjOz3Td8DVs88nYKlNQXSabeqh+p1tQhHV4uN7MQ4Sc+p1hPIoXqPFab+N8zotRPcv61kP1Qu3m2KDumaOGUWP7VQ2p0WY9trIqF2XVqp48K0YUQxPxs5YUOmE5sobvC3OPeJf1cClpCrJZg138rA6wKsRpX2D0OlvMru89M07AGSK67xfxGz2B2kDibZJRA06aent8jEqmTlerpnNBm/TGyU75t7DsSjzzuAcOVqnLGlqpFIPdKvrLgAnLKXBmb+IRg9nT9vhgy/jxoNzgV5xA5ewX/IVeQDWOpdFJXMFfFXws6iXgIc4Bjqv39fiQARWHv5SfwWJY/F3jB0keNXqo87FaxE3RDgGRgs5NjylrhCWSGyVASeIU+qp09QgzErVp+GMk6K1yrhRLldu4Rdh2YIdXUoGDWV1cLa5TFHOBu7tLvIN5XBpmD2nCI+WoyvBjbX9j9rUeF6JoOvHGpCMAqHwB6318/AApUVnQpvt5TZcfoBIw2OHEGh1TBSrnjBQ6r0Z1wfD8U2s2jK4t6qfteEd+7KPVDFWfQK1LtBkHqn/08MALa4SWwbvi1ACk6Oe7/iHo7w31ANQgQ+ivk4fjLvdFyrdmrwglXX+1UUv2s1DF2TCqmyUUSuERSragXQOoCuiMDFcFrH6BSs3U2u3F/EtiA9YqPcSar7qAlLUdBKgkCguDj3EGLeWRCglZBIH4CYyP9V31+XvcQK3rYNfnR9Vn25JtvfIsfQPVxmwU/yusqBwcbEPglgy19ChnA3YCnMIqoqyoFGdN67HTAqxjVClE6KIC5Te7A9Y/UBOxbjyBapeEFJOtob7KGr4eCeG+11ADGZqSQPU9I+aNlPJls9n7dWnoJGqLrsrKi9Juz8MQVebmhcdMEc3IVRVdsxTrlptA1Dz42P6pzvhjXv5Fu9ForMDmN/sAajwqkZu6GU/SOBtSqdza3VPEuF7f4OP74lhHbo/oNrMkUOMcYDtYvfRa6yucrhsLYBgzkq4q5TNT/CTGVSxAdqCyH2ttRh0WP6zGEKt9qStQaS8gAMdYyErYoO/hro8geaUavnKonO8uNdSNSaAmcKQJqGEzU4PA5WoBtr/YClYnYEQYoW2xEjfSa7jMpgOqznIrq+nrRXLVMh2MUWV7npkx8YBUEJybtSPucD+5n/jMAU3gcgnUVGCgJkKfCNTDpnizQib+xF/nR0pDk5ExoxYCM6o/2DNrGPPKc1D5yub+Vc5zZvy+uYF4BUEYoFO6J0KJxV9czVK8IFpI13ow66zx6jpkszR2N4v8xqDY8hR9gzbWFHGWyD7XH1BlrqrZWy4Gs6waM/CBB1lwxU57Xg1LuNawvpdV17CUCgu1/UwU9i7JcOoRDHGPq5Ai4g5oauRsGT9Qi8tdHUhHhqMl7iUT+MH6A6rUBa1WEOax4eG2kkmZr4EdN2w9Q8YAotBv/TCr5eP5MawGyPkBVOaliqIOsGp0Ta9xkuSQBKp1+YUOFFcE9PSqprgodu/ejaysbOTn5xktV9fUoLSkBNnZ2UhPT8e+ffuxd+9edO7cie5hk5GRmYmamhrs3bPHeI4tqBYtCmhB7Ny5A3369OHsEI1i/779OFR8yOHmbtasGQoKCgKDyvMBR0yyosdxyVJ7JQqoEhQEMKXOEG/fBKt0rTJgqhDmpMllcqsIzDuvF1Jj+EuNU80FaBWwsnNc1TGxgNXFKOQYK9t9RwJQEymRBgbq4sVLCGBsEbVq1QorV65EZmYWevToTosgNzcX+fnNsGjRIrRsWYD8/Hxs2fwDCvftQ2pqGJ06dUZpaSl69epJz7377nvo1bsXAbGoqAjt2rUjgBcV7Ufv3r3RvXs31NTUYvPmLdi1a5dACV+E+/btQ25uHiZMOCmhQHUMsJIt7RAT1dIlvgLZnV1VgyHsYYWqq1TCTIKVdFI19FDRUVlKnLzfCEY0AoZlaIRb9JXH3i3rN3EiJ3zagSpInmPXKz9UjpfmHi+gemazyECGhK6I+Bo7rEBdtnw5wqEQDhw4hOLiQ8jLy0Pz5i2Ql5uHyqoK7NtXiNFjxmDnjp2orKzCzp070b59e7Ru3RrPP/88zjvvPKxYsRzdunWj/yxcuIjuTUtPQ//+/bFmzRpafAcPHsCAAQPRr39fYpFly1Zg9epVFh3r4MGD6NSpE6ZNmxrfSLo8dTiBqoqYJE1o6Fu14qrGZvUAZFMc5nC1BO4bIrDdoWgOiGc0Uq1JoNJ4pZMyCMixgOoSDugJ1CNUD/VaxIEZ9d//fgXTpk3Dhg3rCazp6WkoKjqAsWNH48035+C8884lVq2qqkIoFMayZcvQvXt35ORk4aWXZuLaa6/F/PnfoE2bNujWrTsqKyvx6KOPokuXLqiuqibxtqCgBUXiXHHFlcjMTKf+M7ZlwFSvTZs2o6ysnIDqucsGhPHhBqrlaAoXOTsqrDwENSmWGpk17INZUTQzD8cAvFIRwksMtm8YliFUWFUIwu6eKZs/2O9UeB3K1tjD/eQ3HlZGLa+owG8f/S06dOyIs88+CzW1Nfjg/fdx2mmnYfXq1TjxxBOxe/cefPzxJxg8eDAqKirQtWtXA6jXXXcdvv76a7Rt2xY7tm/H559/jp/efTciEVb/hydKs7SinTt349VXXyUGLisrxYcffkgiMDtwt7KqChnp6agVSlqXrl1w+mmnBdJV/Zz3oVtUXqKv30Vov4+3yWU2nU9Vgsbxm3IoiurLZDprLSmKEsFhCHuQQYWmjhinzqp+hKw7HGAA5Mbq5no+msDIwkFjXYEZlTW4cuVqAtjNN99MAHv++X9h2rTpaNu2jXhfCEuWLEVmZibpo0zvzMhIx+zZc3DVVVdh/vz56NixPbEq00d/9atfE8DVa9HCRbjzJz8h0B44cACffPIZ+vbtg169e+P+XzyA22+/HVlZmfj000+IsYcOHRrrWy2/HwlA5XWWOATtkVE1ERmGw8XbWtJZrbHBSpCTLW/Gpwgsb3MwbOypkD1x04aPPqB6ZwPFBdQ///kvaNu2NcaNG4fq6losXswMR60wZswozgihEJYs5kBluubmzZuxr3AfSWOTTplE/x44cCDatWtLM/rEE0/hyiuv5BqZWD1z5ryN66671ojCYaL0e+99QP/+5pv5JCqnpqRg9OjRGDR4kF70NaKwnQuH7KT+M6WMBuqPUYUQabMeaYMgZG8IqGbQvcqqHKgcwmxTkgXSyHAlvpvaFkjR583IPsVwDMQEqpQYYgPYEBuPIj2UM2qCgbp02XJs3LARxx9/PL784gtkZWdj4MABWLBgAY455hgMGHAsiaTzv5lPbhkm4vbr14+6MXPWy7j00svIPcPYUF5z583F1h+2onfvPqRzHjhQhJ49exCY2cWsu0wf3bVrNzp27IhXXnkFP//5z/HFF/PImMQYtXnzZnxZKrIUZ023AQjolZLL3i6r2c2y/teiC/htscAy0EBzbKF5Zg0Hq8qqtQKohrFHbILMGhxV5E6TVY0kOa3/ydO45AlUsRmw/UG810+kZWNi1ETqmrrlkXCg1tbW4tVXX8MFF1xA/tP33nuPQDpkyBAyHn3wwX9I/O3duxeWLFmG3NwcZGRkYv/+/aiqqsTKld9j0KDB1Nfhw4eRVXj58uUkHjMgHntsfxQXF6OwsJAYk4nFkyadQm6ZjRs3IS8vHzt27sCnH3+Cxx5/HIWFe7F27Rq0adMWXbt2QVpamgaocSDH45H6ZlT+an3gvixyZnTPCC+U1lsTrDKc0AgrNLJoRBkXdeOx7FnurhtXsLobj8XmKb5KgFUmFxzpbhb/AUOxfUqBRF8mPjHQtWrVEqWlZdixYzsxHAMUu/bvL8L+/fuIRcvLy+m/GasyUPMsDi6KsYXYpUtnMg7t2LHDBBe5R/mqYRbj1NQUYml5Mavvjp07EamN4Nhjj+UsEo2ivLwCGRkZdL+TUZsiUKXIaUoD7LvcgMolCUUE5n/gIYZEaKIWsGFBNsuOGpZhB1idyZqerOo2zDZDk5HILZuPbUdJ7ATG0Vq8jMqS++t6sWoiVPoneGSS+ergmkddux3s+XgNRl5vaRhGVcZYEa3tyeOWqCUFqBynQuglsHJrsolFFmZo/lvVVdXZtUcwxQNUeoZAaW46jUms9bOiDhtQqeQP62GkbkD185H1fY+Xz7N+3y1yQxOgo6r9dLpn+ALXgcTKsErAvdDNpQBDhbsVoIYiPOSQnUFjJVKZ7yoY3XTqOIYyHtDW73zUrfV4wej11lR5Wrxz9GjsdZfsh/R7E6Oyba4ujFq3oUnM00cLUHVgtYvClrxTViFCpOCZIrAYc5ZLS8H7SuqaUDtUQ0+sQt6JmcHG0crhBip3UCiqjpB4kkCt8/poWEb1A1Su/5tJ57ycC1f7eUqccnHVh0RSWaxFVjG03mYaqjTEQK/kdZ7qPKD13kB9gNHrw1NEvLXzw9h4qbPBj7S0X/IUPFIxGyujeg+qTWw4LIuk4YFqByvXLW3iK822EIOFkk7VJ/jZw0a+Kv1BAasEqdGaqLAiR9qNXemE8qMYqF4GI5l8qNuBlFgxR/0t237auEVfT6B6BYLW+74sX3B4gKpjVu7usG5eFLEkAj7UgmWGbUcW8yKwmpk2whlrxO4y8VmcfONMj9NuEg02Aa4vct23Q2HXesBuqX9c5ojvbMWwhTWt3Q2JAG2/LN80GfUoAioHJl8uDtHISFtjbGk/blGEFgpWVYFMhiRbqVEOVtOYZLmfwCpDJ5xO08ZkWPK78INsJ/G6WcIe6zQUrfVkUnv/kkANMmOWexuGUQ3+1liXLWCysaqMAWb+aPKwOhiXjP7GF7Hf6QwZhZidYBXysjVxzkX8jntg6/RgQwPVS+tKcaswICwDQT70sAI1IYPa0OyqJoobWS/mApaDb/82v6wT+z4zaim2y0bUWmKOS9WiqJSMV0+K4+evmkjlkptwD3kkxbNn6FBl3dXA4nFC1pTtO9zdLMzFpf9uGkmPw1OVkBNPvMrlHRyo8SZ+agI8EzOo3ClsLNp4+yeGS90htZ4ul6B5h6jiKNBtRl0Z98qkAWVs7H5N/Syaxy6alCiyS1Xk0Y/CPGQx/ZvhQvYqEXaRmPl46ODiJFC1U2EHKg8G5OBl65tO3dM8Wb9ADYWwZdNm1NZGpG0/NntTtgY3drBsGhZy6MY61dXVVFuJhR/6u3jNvfS0VLRt247qM0WVGkNqG8zHuHHDBlFyQEbqWIfQTLYRLBKJID09A127dTWb0gCVJQ2wxHZ2sdxbFnOs24TkZlJSUow9e/bySvg0o2FRysb51TW1tdi8aZNFQ3XkBYjPYFjMyclFq1atFZWWQczMmOFvUMM5zRPIHbqrADpZdp2qqdFZT0Z1CdbwN7/B74p/83cXYt3dLGzurIwqq1exgm9yLfKaVtb2/QJVGtQDMCrz9YRw3z33oLS0xOcIikToEJCZk4trrrkGffr0Vp6V/jdes4PFBL/2yiysX7fWZ/t8hbJSL1dedTXatWtvASpNmhC9qiorcc9Pf8J9imLxGK4IOubQaUxnETxsA7j/wQd48AARlHNC3377Lfz344/o5/vum4G2bTq4ABVYt34V3pozB1u3bSeEdO7YGdNP/xH69e+vzVopLS3GjBn3Wg/apQB7Zz/YX5o1b4H27TugfcdOOOWUSUhLTxcnxBkfwEp3808RoUuGr5UnxQnfqG0KPNypsYDqNpmxxXz9k/GD0X1ZeWWweLlZUlxEX7GkxFZHu7Flzvi/9NFJdsMhsbR/Pyon9XPOmI5DtpIorhMhnO+MYe578NcYd8I4hFXGU/XLaBhbtvyAZ558DMsWL/RQw61vY5/ao0dP3P/gQ1SDSWVUVtuJ/IORECrKSnHG9MmUl0m1cGmrMmr0aa2q4ZpUdOraGS+8PNOzP3/7+18wc+aLtPCfe+6f6Na1twOo4XAKXnrpZXz2vw+xft16At5p06Zj0imTMWDwUJF65py4Q8VFOPNHpyNc6zap9tHn7JnfrDnOPud8nH3u+UhLz1C+j315jQWoxLHi/FVj97fpljRVItTJzuj1BdREA5Jns7gxpzujellv3ZhRBaqcIbsY7AZW3Xf7BiqzHrJr6w9bUBsxCntYVgmJcqEQli1bjD89+yyqK6up3OVjTz2BIYOHIiXMsgmUAfEAat8Bx+KmW24WuTbeBJuZlYUunbogIz0TEUUXswP19GmTyVhy8qTJ+NEZZ1HZF/ZdblPEFmRmZgZVSfS6TKBG8dxzzzmAeqCoCP/30INYs2YVysrKUNCyNS646FJMnjyJisOFwrKItvMtJlCB886/EKdOm05RRnaRi1TIKLCvcC9+++jDOFC0D/nNW+D6G2/FxEmnaoGqsqoDrNYKoDyKSUgTdiasD6DaQ+p8iliet/nJ+9Q1kCig0hjbfLI6sNYJqETeIaUqu3ZIwti+YwtuuOE6VJSWkqf80ccfw8jRoyANjRbnsQtQlyxZiKHDh+OpZ56mTcGe12dfKKS0h0IIR5gab8LOCdRTUYtanH/RxbjxhltowSdi1/YC6vvvfYC//fUvOHRwH5VNOeaYfnjkkUfRolUbH+eOAipQb7jxFpx/0SWiVpRNshDuGfY9xQcP4txzTifkXn3tjTjvwkt8AZWwaBRKE+GH4jUqUDnATYZPAtUJBh2jyrvsYFWfdtugfDOqnx2NGUhuve0G7N27B3nZubju2usw5fTTkJ7BKwly5dCFvxTRlwF1yHHH4dHHfguWrG435JrB6DxGkhXzTk1JI1ubjLLhWoG0VoZQWV6G06ZOJqCede55uPrq6zhQYxzrlZPDc22DMGqXzj2xe/deqkTx7rtvoba2Bq1btcL48eNx6623iaHwF/eoAvX6G2/GBRdfyoMbCChKxIwiqrLyNxeeeya994qrrsGFF10KpIjcSK6gi+AG5TwbKbtwtd5SVZCnyNl0LJVhhWWZxl98ltR/2YKVMov07cYaT5kswOU2qwTG2neXgfQtSyZl6oZ21Eki5ucLNNSlEoQ6tqrVmEOGj3tigBoKYfWqVXj4kYfwww9b0KJ5c1xw4YU488yzkJ2ba367T6AuXbwQrdu1xYknjdeOmyVrJARMnDgR/fodS6ZwlX11QI1Ea9Grbz8MHnwcs+WIFemcPskXN954A9LSxEbjMosqo/71r3/F1h924Y033sD3369AZlYm+vbti9tuuw29e/Uy80J9psdZgHrDTbjgoksELHhiuHGJ4HhmOZ//9Tf49a8eQGpKGNdcez3OPOdcREntkJulBKrVlEvfrAEqZ1AzTliOjV0cNsMNzW6xHsojLyhMT1Vw2Y8uqjdLA2PTQ+GP7OQCqg7B2/V2nVvnUpXgdEAleyNrn21+HiF/iQaww88uAakJhmAMnBCgsmr5z/7hKaxaxarmZ+LCCy/EOeecQ1Xy6fRYY5v1x6gMqP7WMdteQ7j7np9h6pTT+SpTZtEJ1EnERmzymV7odfE9JYT33v8AOdl5rguKtaEC9ffP/h73/vwXKClhlvEQWhYU4OGHH6a6Ueo4aNzK2u6oQL3yyqvRpWtXqh1ldki4kui7olSedc7s2VTe5pi+x+DWW25B777HIiq/12BUjlouwkr/jlJY286qFkY1Qw0pmklsADIZ3ZoXYgKV36aAVWb228If2X10vo30jxNKFfB72NW89FCacWOXkU3yNUPV/hMOVHepSZstI6Q7O7MHAqqbX5DVLGILdfHihXTUxSWXXIKLLrqE6hsZl+oZcDPdKKIvA2qHjh1w8oQJxrEJzlXMYMiDtMadeCL69unr2G51QGX+1L79+uG4ocP0OKVFwdplem8YV1xxBdJT0zxBbQI1gr/97e/4/vuVmDPnHWzauBEpqakYOXIELr74EgweNEjGvAtzvSYIwvYmFahXXXUN+h97LF5++WUsXrKESw/ESmpQfohOHRg3dhzOPOtMqkMVCaXasmbUrBuFXckzY9KcjDHWib5SR6WptRmeDEFFCK7280wNsNIZP8ICbwOrBKocDsn2sRjVE6gOKjYXJg9L8GtZ98ev8dg/SMy19SOQ6Kt7KSv7+be//z98++03VNyMFctmu34uA2nQb7YBdcSI4fi/hx9GtZevKcoBlJaeitSUVB9AnUz1a88551xcdfU1WhGKsWiEbQAilzMnJydmqqUEKhPJ//nPf5KbaP36DXj11dfx6aefkrTXsUMHqtz44x//mDOriwXVvgTsou9FF12E7dt3YOnSJfjdE08YdZRGjxqFyZNPpWqMLPCjdes2aNmqpVh+/IQ39bJn3PBsGw58qV+KASWXFsejVU81DUrWyhDGc0IndB48rC4OEyzqyeh2oBpkSARoHiDtsttq/xyP9dYfJN32fH92CD/v8C362oHKIoj+8IffY+7cuSROnnH6Gbj9zluRmsL0uTgqVtmAOnzUSDz++O/Eqdpyt7OjX9RDpVLCTgVGp6OyBXnhhRfh2htvRW1IgNs2UnxZ+99p7EDt2aMvFRurqKjESy+9hDdnv0GiaGpqKlVsnHHvDB49JAP8PF6lAvXGG2/GhRddRM8xI9uWH37AL37xC2zfvp1ODmAHcD319FPIzWF2AXE6ObFkbKDyvjA9TeyxtrBGizXYFszPh08mKfC6zpzo+Sj6PyHcPAdWB1QJVnKp+dONLDN71AG1pLQYf/3rX/DWW2/TQIwZMwa3334H8vKyOWA0g8j+zvydruKAzeo7dNgw/PKhXyIaSeWqJ+mMtnAtkUfJggkys7MRZnqYp446mVwkZ599Ni678lpEqUqcc9dj5S+E5odwOBXZuTmem54TqP0U/Q/YsGED7vvFDIq8YqzbsUMnXH/99VTAnIHX63IC9WLl9igOHjqEl158EW+/8w5Y9BVr/+GHH8HgwYOo5jJDSoS51TTfyY4Hse8RbIytjCpgqOisema1yr9kAxL/xxPcZbe9N0D+a4Rn/FimxhTJPf2hHiSmj7rl/fId0ueH/sQ98Yi+bs1bGNXRsF2mj4ZQXHIIs2bNxMyZs7jqGw6ha9du5Lj3urKzsnDvjBlg55lqLxujsvKfTITjl0XJtT4eAhXgvutnM9CpcxcXk2AIlWXcPcOAmpaWiozMLO3i5ZNmXp06d8Uf/vwX13vZnXag9uopS5maGwuzxj700ENY8f0yKquanpaGyy+/gsTVtu3aWa2hyvu9gCphxnzN77//Pt57512sXbsWKSkpGHrcUNoMOnXqiNS0TDMRXD1v1QFU68nmzjNMpVEnDBbuLStH6Jz2Or2WPst3Ng13VAgN2mLNJznKBe9R//RtWUfxAtULjLESu8yNSF+KRe1gIKCWFJfghZeex1hqSYQAACAASURBVKuvvarskLbjp13QyoDM9Dd2/KIeqCFs2bIVzzz5OyxdsogHV8hwmxi7WM9evfCLB35JFlG3GawsK8dpU6eI+sJ8+nUFkrml0cg5QY8evfHPfz3vM4Qwgn/845/QAZV9AjO2/fe/H+Hdd9/B9ytXksV17NhxmDx5Mk4af5I2AMILqLVshKTED2Dzli2Y88Yb+M+H/6FT8np074EzzjgdY8ediOYtCvicCXcEx4y9MoQVqPIey/CTHhsm15asbBgIqHGAlUc2m1R5pACVhoI+K8FAZQWw//vJR2DsEPRi7Dh1ylRkZ7mLkYcOFmPBgoXYo5xC7uc9zZs3x5gxo4U7SL/V1lZXY/Zrb7ofD6i8iEfa8D80a9YC06ZN8ezGsuVLsHLVCgLC1KlT0bwZOyzLuejlwl+/YT0WLVpoGILYMZWnn84iiWRQvPkNVdXlmP3mGwhHgCFDjkPffv3Fkg1BBaqUO1i2zbtvv42q8koCZXZWNo4fdTxat2pDLEh9kKzKxGKLtVXfZwdgaROVGxoHvE6nl75X7YwEYFae9msClbjWhVFDbKDiuLxtEsHcLPL1sRjV6KZywr1q3bYw6sGSCusnxzJUxSla8BXi4Uc1t5c4hll5RPoLxJ+MxFthJdEJ0ab2IxayCObn/7L+KmOezTeKCmGKqy9qHNCk3GX3FbrKbrYJIB+fdWHyReUEqrlAbP4S8QNjQQpqsqUCWsuOKu4azUxwS68QS0VXeSST073hFuBvNOsBVo5LYSkQUVhyoUqBWLdQmMEo1hIOusDi1TW9gOqZNq35gNDBUhtQY31FfQLVMDnG6kSM3xWw0iLXGVJsIQN+bbwcqOpIckup5TK2RfMHS81dWoNuSpbH7m0uXXodiZ7a263uEj4GZtlQ45AopdNSDJYuF0cUke1eFayq8clSvkV15/hmUOfcyrxdmX3iWYvIEu1dx3UkN/s4ixF4A9XvihN0ERio7Ll4wRqLUSWDBfsG/WwIsHKfm2BKOfCS3A0KEqKVlOc85lcLVO39nHXklVigslaZR9htoJx+TR7u5/SFql1ngDDZVam8r9uHDPeNNMOYfTHB7uZ3DQYgE/x8TGVRal0r1rSMYO9xu7t+GDXYIg/OqIn5du9W4vCRuQ6yGzhVkEr/D1//1mANuyhtOcvSKe6Z/bAD1ZYaGAejsrbVVmtdg8h1AQhCl6QK+XrWtgKVvU2U5tasKTt41OrCUaM+aciSdkjD6zd2UplQ6zNcx7CEAyr3xhtY77Xk6geosYBk00jjYtSY70i0lhDrhbF/ZxNriUGVeqgUa8Ti4qqRRryN/QrPO6x1Y216r+EQUo9u0jcnxViCkW2YLQtaRj7Z4/tEIAK1rhFHZU4xtc+zFozDpO09Mt5ni8VV6zDZGdttkOIBcB2nxPJ4Xdws7kzsxpps4rxOemPPmafz0ZI8WoBqNxgZgysNK0coUPUsZk1Ut+iVIvnfBKpgVhcmpGdtQBV7gMPCrgukkPPg9VsiAekOKg/bQDAp1XiFu4geC6g0ghawHjVAdZ3sRgFUYd30EbYYlFFNIKirTVpTzVHRMhrTWQ2AxtBZNeucW4OtW+ThBasHGD2EwLitt8bwSku5BKAfoMp7uXp11ALVjA0Wo2nZNbVm3IRu7F5HKHi9KG6gOkRg/anmunfHNDDZsm6s4q4z6OpwgbV+dE0vulXNmPb/7Sb6Sia1zkQSqAmFn5/GOMPEAqpMeLbfFy9Q9SKwE6y6+6wRTBpm1Wbd8LGwV4uwgzh4mlUsg1TsKB8/s6Tek0g3C2+X9dEtxpsB1VmTLAnUoLNW5/tjA1UtD5NIoDrFYD1QdWBVgyKclRrMaA87W1LQg3pKlTJ+8eqlXoaneFkzlhTj9ruXq8i9zYQD1U7rPq25CXSvBMaFT+e0zy8J/PrYD0h9VF/JUey3SmiDPWNIeYOX1VcmZBPqrL3i/zSjlywlXTQfYGFUYSl2SARKX+xAkkFLrl7fgC6bxgVUrxl3t/qGPI67CMyo6oBwt4U6G4dvqXvufpYB8PJzxoZU/dwhPaFM/HUHq593u8WdWOJKdBFBuqR1TQFyN0A40+N8BPNbmFRsFbIUi/jNr4smXqD6jr21Db43a3qlKfL6yborKPN7ir5JoPqBS9B71JCFuoE1bqASoYowdIPNnJZguk3DdladlbOzWp1BjogXoKgNG1Dd3mcf4aYC1FCobhux+t1JoAbFWZ3vV4EqFnmczOoLqELM1UqX8rRwRUJzE4Md4LBk3vgIitCMmzhKyfFLLGatD6B6a0xe0qN7NZP6Bapdv5RVFejvjUPctcr3dvHWPnCNTfw1RV+DeeodqJL1NGihA6CctggdsHUAiem68RJrWX2qOIIJYgHZVdz0eFf84q37zt2wQGX9IOHeX4J4nQnHRwPeQGUNNGawqv40/rGxXDVuQ+KfUdUWNHHAOrAG0VmNBHS/gfyiP4ZbR7dZuC+ExgRUz9BDD9E36Dc4RV+dxdZYW/XNqP6219hA1bG/vW1/7/KxbwS8pRECVfg7rdZh/wERqs7qmR7HlVBzvJTQQ8exrh6jGnSRy6bi94e6G4y8jULuxqSAi8YemWRb4MqgOtO7nCFp5sv9RGtwLrHs9WpytYfSYDm/xrUeayxR/XCJxCLtTl01NAyyApITyK6T6jnM3F9rvyxxvbYfHeKui+7qZmAyg/yVozKoDbMhy7NqjLCN1T23UUub8k4+32oWj/3b4w8FdNNDYwVXJNKYVFJpjontCHmop7aJWjnGx/v9TR0taeUzKufbjjhQ7o3NmrH2pAALPlZTCf6dfX6KZiPyOtVb1wWvkxjpiAbNFdN1I57RGY+4oclDTLXEBsuXB3PdWDduN7iy8DuRXSLRR31L0VaaMBjVA6nRqDWkz+qO1EQKGfPXMJJZ6KBfoLKvVcFqP3rR6zc3sBqHHTlXVBKosXeHBgUqBUgwkJqSirdxyQI5l1ItNlHYwfAJBiqtYZdxFaVn+a/2E9qtImxQH2jsmXS/Q74rGFBVsOrOSJVgdTk/1eiO4T9TDzixMmASqLGnt85AlUWzXbhX79JhDGnm6/oHK3tJMHZ110XdGdWexxl7FOUd/gIXGhKkHG4cF95ApYhqjQjFTgZzBaM9Rdtrt1DFDS83Szz65OEVfdn4svNZ3S7dLw0u+lLn9NUgeL91v8mK+ObcBQGr7uhFr+/Wg/UwAVWpFuh/A9DfGRTwVqASdJXT12iubGCVx/clHKjsZfZNQSrxTROoOj3Ua4IPD1AFJD3ibZ2xu0IkVfS6OoM1wPt5dQS9jlpvjJpAkKpM6RfwTqC6gZXpKFSiRFwNAlT2LvbOpgFUy9ms/ETIQNfhBGpQZjWAKcRgNzHVWorUHA4z5JCDnhty9Tqp87cGBmqInXqf2KvujCr7o4JS10cXq6K9Dq48MMhFALD9WTdR8Yqw8T4XYEJsNgf7Sdg+E3mMF+qA6mVT9HZhuBei9mxTAYvNeWZ4WYy/073MwBTWgkx6UaTLxMnM1rpAvv2jzKBlWHBt7hmZqhNgGomb3GoY0TKKs6h30AUg+uw45JiVx7FYfQN+nJ/b/ZfX9NNakHvqH6hubpYgvYx1b41HjF1Kgrd5ShFQWc2lFq/TdcNqMOm/RN7rDOTnPKoG8/sGqsegeTGz11jrGE7+Ld5+BWVN3j/mm3VG1iWBGgspHr8f8UAV4qgdgzqgaoodmpKCQLFTDA5mBfYzVYkCqgqyww9Uu9XXz0gEvCfJqAEHzHb7YWVU2RcHs9qswUZ+q57i1YVuPz5Dlx7H94eGCSQwPpH+B3+nYWuoo1CWOEZNEFC9wXi4AuTjH2V2zKqaJB/vwQB1gyh/umGBKk9o04DEpQYwX98mQHVpcnbQ2ZnVcYqAGLiGBmsi5ktto4kBlXX9cIA1CdSgC4/Bk6vEmkLgWn1V+lStTBqrtItkTEswf9QZptcUgJpIMHrNV0J0VH/irQ6s9q4lUtxJAjV+oGrA6nbIk+aoSA7E2JYuxqwmGJ0pckmgmjPoH6jk8FUHXwWVfVLcABdr8hoOqHbLudoz+y4Zq9fxAMLvM2YBbP6EPUvMbzvyPjNS1/mk3VtNIqnpizH+p2OW7EW2RVywofW5gFYyqglI3oNYAHX1N7NJbUDd1jsXlVnCbYXpROgse86rm1oLtF/3jD/WDLpsDt/9PADLhGBD6qG0HONAPyu7Wdd1yF7rNxDDoUtyS4tSPV+FvwlfC9AoqZzHBvsLipCWYHeJSGvZFZFD8Vp9g67EWCDl32s/GCyEsCi+57UZhclIYr18M2oSqEGn0v3+pgpUyZBODZaBSuVZdUORWTfm4otlXOIBBpL77RuACJ+wiRYWWNd1N4sx1X5AKuQfIQWJ6lCOw8f0L0oCVRmXJKPG3nhcw/8cxWPsQBWQVg4+J3DaYoO9Agr0ARJc9o8wIEswUnSYYnW26wexP1N7h5sf1QlSMwnFSWayaTV6KnaHYgLVmzV12k18oVWxu5qYO5oiGIN8ecQzz03fEom+AV5igJUBgulWSqRUJCSZUwdU8RLFCGUHq7GMfZUkVTsdsDaTj+9VN40gllzvQto+Xszmg+ldFvOP81wai+gbW7zVgdVugvDXuYa466gFKksIcFNEWdxoQJsdgZWSDMKIKAYmKQLzg5FdYwhNI5QEpJLP6gZWVTx26nPuQPVaV15JD3pwimBuD1E6XqCq7wuxSp8Oe6yt4oRqTIoNVDYMdrDqJijgSqgn1CaBqhnYOIAqFzi3VlqtsrRNC9+rbhod+qxkWDtY3dw/IkrJCtZ6BqqwHks86HJo5bd6A5UNjIlANn78X7ZsDirJa8cMs2Cbsk/oUGmVcodfN4tMPXNDWMMBVa2PZe8NN+oqA5XgDcHzK+uhuip9ifJSL8uhu/jm0Wsf0yZBa2E8ESJhDK+lHaXcmPg7/wsbIL5g7d/B/20lBHvooTqVbmGIrqvTUrRPY363AdXviXPOZBmrkmFUa6BvVtRGNxGHXAO8DRtQ/a5k/1Uc/LYY731MwvOqpBBvu36ei9d666dt3T3qkYvxthGvaGh/znq6m83dpLCj2mfdxuI8gJJboKJsgSo+LDfDFu+Xe6V+L7C6bmZGzIAfH5oJOLsEx/uvB2sUfkqJmqyaBGodVvzRDFQSaYVhSTsOAqxeQJUis/55WUjNnCBXS7BPsDJRlr9TNYKytDKvMJBYC8QDqLSHcLCyvls2Bl/n0iSBGmv0ff1+NANVDhAxIgvE0JEPuWRsBk01Md2m20Yslk8nUOU7XdnVYHIJHnvQhJskGLaCyNfsG70x7nYwqjFIVmZl/Q+n+NAzSC9oQqIvL25ozmJ9RxGxRacOo4UV6kH3tH+PbgOob7FXCJB+1THLUmb9ZaGO2uLXDuOVM7pKisSW744RzeTNrt5IU41D7r5Pv2gVwQy2SDfH05JZ2abGBHu2nuW5Tq7yuVntsUmIvocbqGwcJVDsIPY7nV736TYeddE2BEjrDlTZgo0pNFZmbckZwbT0NBlbvEuScmk3qglnjDEjxoZiGqyC+E2drUdEuWuNSGE1+mrEYCZuuMQi2Kzi/oEaCmHdunXo3q07UlPTtHVkpPne7+L1e3+jACpfh/VyVpbXYU9i3fod0jrdF7S4min+yvQ4DVhd3EFc6uXswpwWFkMTSS1MrxOLnyRovagYhFlNb69FXvLyAsccz1CYAVVvdGJ7j+Mnh4GJ3UTbsvkujZ/ZN1BZZx588EHcddfdyMvLc6kMaN9C1O80J0X6kZiJ2nqOjH5cVKA2BLt4aQ+6OVFVraDB9g3xPTFXm3GDGxzc4xnkKlfHzMuVYlmPKvwUMBJwXYoS6gvAGX6fGFkpLsk1hGB3C2/IQ9cKEuVlzoO3G9RSM0mIGP6BGg7jyiuvwDNPP4s1a9ZgxIgRClijWL16FdgE9e8/wLEuiosPYfmK5Rg1apSx+6xbuxY7duzEiJEjkJOT69xVAWzevBFFBw5g0KBBSEtLM8RP3cJjETOUiBfmYW5l5WUoPlSM/fv3039GjxmNlJQUYfpn/V2NDh06oFl+M1RXV6O6ptrY1DIyMvi94mK7duG+QhTuLeQOf83u3qVzZ+Tl5fMF5seqr4jT/oF0+O60AEQJRCKpyFYwycuV4vC/StK0R/+4BkB4ZBDRwQvxZhi5W369DD/1YS+xMrQIkbAGPLgvBAaAK6+8Ek8+8STmzZuHjh07om3bdli6dDE5b9liD4XDSEvlRwP06NkL/fr2w44d27F69Rqwg2K7dOmC/Px80isWL16M/v36YdGiRTj9jDPoOTISKltzZWUlPvv8U7Rt2xZDhgwh8OgYaMnSJdiyeQuFt/HoDy5K1dbWEnDzcnMxavRo5OUySYBf3y34Dj2690DLli2xefNmLF22FJFari/0P7Y/evXsiZSUVBJdamprsWrlKuzbtw+5uTnUfzmYlRWVtBEMGz4MHdp3oOf9gLVxMWnsDcANqPSkAlxD+HWpnqi2o46T08catII//4a6pQLqwdokgfrEE08Q2ObNm4vjR45CenoaAXXhokW0RAcPHkIBCGyRM112wYLvsHHjBgIEuxjYysrK0K9fP3Ts2AlbftiMdevWY8SI4WhZ0AphWYlfrJ2iA0X0LgbqPsf0oVVh38Vk/CljXbabb9++nf7D2FoGbcmFsG//PgLd/qL99B0sU4Ex69YftuLkk0/GsuXLkJqaij59+iCVgBpCTW0NVn6/EplZmbTZqITKQMqeGThgILVzpF6eQHX5aC/9keQSngFnkVzsTXlFX8VKMLe3xdxIbiHJ5r1OsNYHUIMZsEL+I5NYw4xRH3roITRr1gwMT2Vl5VizejUY85VXlNPAZ2Zk0Dd37twFxxzTlxTl9959H2PGjkZqagoWLlgoNGypz0bRs2cvbNywAd179CBjlep5O3DwAL784gt06twJAwYci7S0dAdQi4uL6f28mH8IBw4cwO5du9G/f39DTM3JzkFmZib9xkT3PXv30Hewv7UsaIktP2zBhJMnYNmyZUhNswKVMfPGTRuxedNmi+grRW323sGDB6N169ZHKk5N8VZJK/MDFC+wshNhrfYAPYsmCqxq5o/3REmwCrEz7J4lFq/oGwyoAUMIr7zqSlx04SVIS0tBbm42ib8HDx4kYDGwsJc3a55P2yRjt7bt2pHoe+jgQWK46aedhl27dqGmupqw2L5dB2zfvg1dunbFzh070bFTJ0s4IJtEBrjvvvsW2TnZpKu2adMaoai1KMyq1auwc+dOY+yZGF5RUYF8Mnrxwe7Vqxc6d+5M/3v3nt0kcrdv1x4DBw0k0XfLli2YMGECli21ApWBtLCwEDU11aipqbUuLbExsDbTUtOQlZWFFi1aHLFgdX5YbH0wGFCF4Oyw5sUnBtdtIpSgeI8oosYJ1CuvxP33P4jCwr2oqalE3759aYEzZjUtVVFkZGSic+dOaNWqNb7+5iukp6Vhx44dJO6yhV9SWkrgHTlyJD766CNMnTodS5cuxbgTxlnMiwwc387/jovXiJLR6Zg+fZCSmmphVQZKaQxiC4Ppkux9AwYOMETfjMwMZGZkkmjMDEnLly8ncbxlq5ZkxXYDakVlBZYsXgL232WlZcjLzyPRWHcxkPZlUsRRdMVy6QQHqjtY3Yt8x94w4psSAdamBtSrrroKzzz9e2zeshmlZcXo368/vv9+BQpatkTzZs1oLMorKmjRM121RfMWYDphVWUlseKo0aNQWLiPWJQZYU4cPx7//egjTJkyjYB6wgljqQ25oe7auZP+PnbsWOwtLMT69RswZswY5ORkG0YlpmsyxmO5kvIqLikmsDJ9UhqX2G+t27QmY8PqNauxZ88eDBk8hKzVTFdmLOsQfVNTCdhsU9m0eTO2bt1KRi1plCLxRWR/MI5PS08DE7GPtssLrPbfrFbfoEzJRWWn+8xsxyvX1ssaHytH1+1ZT0b1sP5bZULbitEl9Pi1+rKmCKjPPEtuEzII9e+HpUuXoKSk2HBnMMspY5xhw0agoKDA6MFbb8/BmNGjCUDsYuBiet1/GKNqgBqNRPD+Bx8Q2JjIW11VhS++/JJ0YGbBZRcbpHXr15GhR10AzLjE+pGSmmIp08H6m52VTa4W1n9mMGI66uJFi8FcMsePOt4Qfbt164aszCweuhgFgXvF8hV0vyyVQZtAKIScnBwcO+BYEns9J+AIRXAsVlU/25J145GQ7a6XslIsNrC6ZOvYh9sSS2zHhi0m2f6smyXfC6hB9VD5Tt1zvv2odqDu2bMbrVq1RHFJCRmOWrfihhQGgBXfL8OQwcehRYsCzJ37P7B72cuzs7PRpm0bbNy4iRb75EmTCKhTTp1KRhyVUd+aM4cAP236dMMVUrR/P+bOnYthw4ejU6dOPGPRHrGGKHbv3o0ftvyA4SOGW5iWGL+8nIxfDHg9undH6zZt8Mbrb2DYsKHo3r2HYUxi9+zYvgPTpk0zwEofaKvRs2nzJmzcsBHHDT0OzZs3TwI1xmak87G6gdLt704jlIxyMkM9dd2oC1ClpGdnVkYFib4SBtS1a1dj69YtaNuuLaqqqlFbU4OMzEwwFmQ+R8ZmQ4cNI9H3wMEiAigTcZkxadOmTaitrcHu3XswaNBA0vuysrKxYsX3GHfCWFRWVOCLL79AVWUVpkyZQr5Z9Vq8eBHWrl2H0aNHo0P79mTEkUNVVVWFquoq7N27F3v37MXw4cPNo9WVkCLGAPO/mY8ePbqTPv35/z7H6aedjnBKmIBKenRxCW0mTOxWL/YsA7uUv5g4zMRvxvrsO5OM6r1s3c9LdQ8RdDCjW0ChJlvHwuZeomgMRpXt2Jk1XqAGZdu4GPX7lcvRvFk+WX2ZUaZ3n95o1649SktKsHXbNuwr3IfBQwYjOysH8hyXd995B9OnT8f69esJSEyXHTXqeGzbug2lpaVISU3DoEEDsHTpMrIks8gntvAdIkg0ggULFuFA0X4Sndu2aWsAlW0Ca9etJTGYuXmOOeYY7aphYPt2/rfo1r0b5s+fT/7P4cOG0/RTG2vWojZSi0EDBxmWYmOiolF8+tmntBnJKKXevXqDicpMTG6UQFVdKu4WmbiJIYjoS/5Tt2AIF1HYUQFC2AV00A55HFNZV0Y11oAZgoxGC9SnnnoazZuzQIEQuUB27tqFVq1akeW0vLyMxMAWBQVo374992sKg8uqlSvJ6st0VKYjZqRnoFPnzli7dg1SwikEiOycHBwoKiKdLy093X3hRKPYtm07+VZpzMSMsfdv27aNnmfRTCxgwe1iTMh0SuY2YrqqDIVjACwqKiKgsjbslgu20JjVuKamhhiXfTfznzJ9ttFejQiofLpE3SXfbhir0cnIYNKEGdYHUHXsJ5nVK9Y3kZt2QEa9Ek8//TRaFMThK9SmEihLO9bvDmq1xEV4xgE7AGQLeWu0AEtUxxoZUL3A6s7OJlgtqYY2sDYUUCU/eGmoQcVbr+m2AJXIT3mzvRNr161Djx49yI+pM2frTNh+76vrmlTzRY22fOoddX13o3neMmEmXfGdXf4okgoMMdM9GN3/d3lk3VAjMrvFFodki+3m7xNtaeRaCWKde8apI7mnxrnoQ84/iyHzZkb3qKV4S4nq+mcFqo/zWKSc75bsrL6EisxpwOInaN3/IuF3yveoekhTC3wP+s2W+y3WaJ23UQKS/2YyVyKA6tVzsy8OXVMLVNkWh6NTbXWBqdYW5Q56h4AmXmQSlV9rbiMFKvtABoZ4Q6fUafCbDuZnASeBqh7toA8LUFnV4C6aBL+L0s9MuN+jrUJoqxOse9rLp8oNvd7B9sbvNteahVTiPK+GZYW5X+4abFCxOFRcZtb15aKvOWlefQgi0sp77cC0f2Jdgcveo7ZxZDKqy8IwijtbGUkvz5ltxLk+40KsHnB8vcUuB+p8pT3KSVbg4KJqsLBCta0gIIoXqJ4DqO6bYqpCZeXVXltCXBPi9yEvc7nfNrzuOxKAal00bkwZ/2jFYqP4W9YBi/O4eVnZXD0uwyGa+nQruQZPUMkXdumlBz+ZQLqx8Kr+oFa610oKogyNNYiG5Tqbd9NosSSUJFATuRQT31bTB6oJxlhg8PKxcojrRNzYzFmvoq+XDqgcSaHdeGjb4PHipsHKClT+3UmgJh5ZCW7xaAKqFFc9808djm2NwcjmfpM26UCM6lNt9xR9PYBqWSYxgEowTjSj1odFN5Z469itpFm9SbpnFPHWoXcmeBeQgqhvRdXn6nV0kz/nT8wWGTIiHJCe8wre9ykS29vR1XpyG10vndULqJ46pTSm2FyieuH8CAGqffnIzaJp6qgCqA0AUnVhxhJL+b3x1dwL/h5WfpQdVsyfjNU3fxuA2Y4KvFhtE3BcyoHy3+Iz8Ri6J1lwpf7sulUcGYyq2+fl8MXLAYnnLr8t8jqviQw/8/3mmMzaOIHql60lKBsKqLGsxxyszlMYnfNVB0a17yNm3Iv/cpl+F5BOHDCA2CTFWzlDmhGwHZ0ZZIzqei9fOPH5Bf2+2w+DsbasFuDYBiM/YNUC1YfoHC+jxgKqugq8CSVOoNr1UMn+Uoevqz/UPule0U1NRby1ntWaeDeLX6B43dcQQPXr37S7aizircoKtg+Kpc/qJJVYorMnUD2svomTihIEVMl4FHAQoAC138XlBsamJN4mgWrRVL2J28GoQleV7CespDqA+WVsv2sv1n22dOlYt8f5ewKBaointuigOHtmeSwJ1ESMYuw2GoZRZT+8xVm34AcGTtXNYgerb6DaXDixR0d/R6MGaqIiivyGIdY1rjjeSQj8nEO/jM8iGPi9CXrAMG64tpfY7/ESOVU7qCPR3GYltfRKTXtz07eFRZ0/57cotxgUmzLZMMbKOBg1USAlBvaRWdNkQCpECjXCxEdZ9gRBLDHNSJeBvrXE69XeuqEZ0eSIA/ZwIs39SQAAIABJREFUZ6hturGrxerrA6jkc6XB8eNKScxcWFsJANRE6Z7qDuTmglLGpD6+uv7ajJlqVn+vTkTLRxxQXRgzLqAK8hURf4kY7gBthBAq9RuUH+dJ2wRMRTZpGFEhwBjU9VZlt3Fa+RIrKta1q7GeP9KAai49q3gbD1DVZdzwaziEUElF/WbPuBmCEqTLx1p7if+9ibOm14AciUDVgVULVA/0Jc7NEu9yTAI1+MglgRp8zFyeqG8d1f5a+T4dUP0EJyTswwM3lARq4CGzpyQ1NYNRrA8ma6tWYm8qxiT36KqjHqhNJToo1iI1fj+CWdNzDESFD9UdEsQvSQdICyuqn+wUb/eMH7eJ94z67rtohu63B1M0cHKE/osSxKhJoPreAhr3jUmgHnlA9eNmadyr0qN3RzqjuhhOZLWBJKOakgGri9LwVl772gzAqEeTm0UtjMGHrGm5WViPvTM+3JeevRyKb/HRJjImRd9E0lQQoDbZdDKXATuSWZOVc1XOiw2yZJJA5du0WWepqTFqEqhB1vvhvTcJVC4HxUyEt07TEWFMShqMDi/2Ar09CdQjG6hHNhhjLfXE+wljvTGRvyfqyMdYJTtlnx1s5ZEj6vc7vZO+Y1Wf0L/FmnAuS3PH15bf70j8fTYd9egGqjQaNT3DERmPEnQ2axKoiYdZ3VtMAlUzhk2TWZNAPcIZ1Z49c/h9RnXff4wW7IcCqR/XNInTOjjK99D/TEBhtMPKqM5To43vjV194ggHaiIKcLPTt+fPn49mzZohKysL+/fvp1PIu3fvnkDUxdGUDahBy0TG8cYGfcTpK2XHIXhU/vLRu8MJVLV7jhIr3Izr4wtsllw1MVyt7BBHW4FfnrAHAiSOu71z566dqKysRPNmzZGeno5wOIzqmmoU7i1Eamoq2ndoj9SU1IR1OVBDRx1Q+egwo0ygWj4M3GLhJoEaaIU10M11BGpZeRmKi4vRokULZGZk0gJRLXerVq9Cy5Yt0bpVa9rpDxUfwjfffIN9hfssH9ijZw+MHDESK1etRHpaOhj4Dx48CBbKlpKSgp49eyI1LRU5OTnE2qUlpdi8eTM6deqE/Pw85Obl0b2ffPoJJk6YiLKyMuwt3IsO7TsgPSMdX3/1NVavXo20tDTjvbWRWkyZMgVt27QlaYCJjQcPHASTDtj3MImgd+/ejol4+umnccUVV2DVqpVo1qw57rrrJwiFwsaxgew7f/nQLzHq+FG0abEyIp999hmOO+44apeSUyJRPPPM0xg8eAhOOukkPProo7j33nuNd61fvx7l5eXo178fSopL8NO7f4oHH3gQVVVVqKioQPce3XHvz+/F73//e+1CWbp0CYYMGRxzETFQzpnzFv71r+fwwgsv4Oyzz0b//v0xYcIE7N61G7WRCE6bPh0dO3XEunXrMXv2m/Qtjz32GF5/7XX86le/onfsLyrC9m3b6H8zXfmLeV/gxhtvNN4/d948lJWWoqBlAXr16oXnn38exx9/PLp06Yrnn/8XMjMzcddP7rL0N8mo6nDUEag/bP0B1VXVBCRxJKV1cYRAEzt69GgDyGzhsgXM/sOeqamuwdy5c2nBlleU079LS0sJlGvWrkGXzl2wcdNGAvK3335L4MnLy+NA7dyJ2JotjgULFqCwsBBpqamoqaklls/Pz8fQoUOxcuVKjBk7xnIG59IlS9GjZy+0LGhBm8uevXvo/g3rNxCgOnTs4IjuqaiswMsvv4yFCxfiT3/8ExYvWYxZs2bhZ3f/DM/96zlMnzYNrVq3xvp16zFmzBh8+OGHWL5iOdq3a4+U1BRUlFdgxfcr8Otf/xq/e/x3BIoDB4rw5puzMWHiBLRp0waXX3Y5gfFPf/4TTp18KnJzc7G/aD/WrVuHqsoqXH755XjkkUcocubHt/0YuXm5jgjHD//zIbIyM1FbW2PMx4iRI5Cf38wiPr73/nvo2rUrbWITJ55C4Hrst7/Fli1b0KFjR7z44ou44frr0bpNaxQVHcCXX36JzIwMmqvzzj8Pb815i9qvrKqkMVy8eAm6deuKCy+8kDZUtundcP0NSE1Lw1dffombb7kZt95yK33/qlWrMP206TRv3bv3wIsvvoD77ruP5sgSGaTZbmLV4XXboeJ9zmvHi3oWsZbZOM4WYj1nPUWjjkBlE8RUALYjuvnAFi1ehIEDBhKbMZF47569tBCZWCyvzZs34YQTT0TR/iICILuqqiqJKRnjbdiwAcOGDUNpWSn27NlDbaSlp1E7LZq3QO/evZCZlYXly5Zj0OBBKCstQ9GBImJcdn3+2ecYPnw4MTZbBKy/e/fuxaBBg9CseTMUHypGfrN8Y8EfPHQQzfLzkaKK7CHgww8+JFGegZwBhgH1qaeewumnnU5sPmI4A0M+2rdvj3HjxuGrr74iFuzThzFziPo/c+ZMnHvOuXj4kYdpQ7js0suojWeffRYvvvQizjnnHFRXV2PL5i04ecLJmHHvDDzy6CNYsmQJUsIpGHLcELzx+hvUPgPaNVdf41gFb7/9Nn0v6ashoLamFm3btiXVhD4yFKV+vfXWW1iyZClm3Hsvzc1ZZ52FW2+9FW3atKXNjd3LNhvGtrNm/RuvvvoK9fmB+x/A9yu/R/du3ek9bDNimxDbuLdt20abyowZM/C3v/4N9864F59//j9s2riRNtSvvvoaY8aMpr6MGjUKffocQ9LF/n37MeO+GTQ3xq7vopLGC7h4n4sfqOxJPVi9gcor/5nWhjoCle2Y7ONJpHQZVDbhvfv0RlpqGu2wbCIZexlAjYLEzC5du6CoqAgLvltA4mx2dg4ZpRjrrN+wHqNHjcbWrVvRslVLAt5xQ48j8YyJZRnpGThw8AA2btiIjh07EpMcKi4mkZuBhom2J598Mj755GPavbNzsrF502YSw5o3b06LbuDAgcY5IN99+x29l7GZejHA9O7VCxNPOQUFLQoIPGwR33TTTcSsEydOJFG/cF8hxo4di6+/+gr79xcRa7GLfT8T66dNnYYnn3oS3bp2Q3p6Gh599Dd4/Y3X8X+//j+cOuVU/OiMH2HmrJk480dn4pVXX0G7tu1IQjjt9NNIgmCiPWPBx3/3OGa+PNMRgM9YW904GXBOPulkFBQUiASDKErLyrBjxw48+ugjePLJJ6l/1157HR555GF88cUXJOWwi83fN19/Q9LNH//4R3To0IE2wOnTp+M3v/kN/WfhgoUoKy/H6tWr0LlzF7zzztu4+6d3Y/eePTj++JF45513aF5at26Dv/3tr8TcTKJiY5+VmYXLLr8cP//5z9G2bRvRRzHqRwRQ9WCNCVTSI9gA8ET+Oh27uG/fPtTU1hDruV2fff4Zxoweg4yMDFqoJSUlyMrOIlGYf0KU9DD2OxN5WZtr164l8ZaJXOVl5SQSE1C3bcWunbuwbv06dOrYiViBTW7Llq1osTIGG3n8SPo7a5OBplXrVqQXTzh5AjHQ+BPH03tXrFiOXr1602LZuHEjLUAam1DI0LvZBqRaVr/97lvk5eZh9pzZxHSMUZl4eNttt+Gll14inZdtDmwzYuI+EyHZptCuXTvHoU+MRbt164ZJkyfhySeexNXXXE0MdPvtt6OgoAVmzpxFG9Ull1yCO+64HeeffwGmTZ9G7fzhD3/AmWeeSWL0lFOnWIZ+9ZrVxKDEHgDy8/IJ1EwnZOIo/8go6cnPv/A8du7cQSzKRM6rrrwKd9x5J3bt3Ild/7+98wG+5ajq/Jn7+//e7/1e3nt5LyQhCaCYaLbEZGsVV9Z1LUCNVYClVdaKtboFKPIfjQuIG1nW2l1XXY1BBEqC/3bLEnfdFbJuiSjgSrQs2WABGogKIeS9F/Ly/v/+3ztb39PTc3tmunu6+87MnXt/PRSV5HdnenpO96fP6XNOd589S7ff/jX0xx/+Y3rzW95MH/nIR9gKwQCLgQ+APvqFR2k4FNMMgLqysky3f83tPBBjAHvrT7yV73/Xu95F3/IvvoUeeOABlskP/MAPssUEKwk+iN/8zd+iv/iLP6d3vvOdxW40N6BWYXUCVZHGRKCi4WD+3njDjdplVXAewUGD+R7MNjhwLl28xI0HEEWnIfrMpz/DGgwOJDhS0LExR/2rT/xVfh/mqA/++YM8KMDshVaFuXrnHXeyOToajuhjf/oxeuELX5ibvpgbonx0MjhI4MQ6vH6Y554PffIhetaznkUnjp9gwI8dP8ajPgN+7QmCVv2m531TATCYpL/wi7/AnfzH/82P09898gh99GMfo5e97GWsbb7ne76H6/fxBz9Op06eYjMemhzfWzzSgric53ztc+gjH/0IzzVhFsP8/fmf+3kWy+te9zqeB2JO/NLveylbE7BM0Lnvf+/99Gcf/zN6z7vfU5hC4Fvh3JPrSdn7uzCgzz78Wbr1tltp/XDRQkAZ1506yQMY4HnVq15FL33p97FVg2+Bkw9WDtoF2hgDKExUyA7Wxuc++zlunxd+2wvpve99L//7i170IvqDP/g/9F0veQkPgK94xSvYWsC/v+D5L6APPvBB/gZYI69+9WvoQx/6Q7rzzn9MDz74cfr+l36/cEhmQ7jJSgs1YUOfM2oh9rD7ZB6MTxP3e25CjYpjBz71qU+xVrrp6TcVYIUWxOgJzSdNSAjq8qVL9MXHHuN5GDsN0pQ130033cQdAiM0OgU0GUbmT3ziE9ywMI/3dnfpDz/0Ibrj6+6gkyev5XZEx4R2xn133nkHHT68zhr4woUL7MRB50XHg0ZBfaE5YCKfOXOa7rjjTlpdW801PUxEaNFnf+Wz+d5j11wj+ko2sqP+f/s3f0s333wza00MKtAUhw4dYvPu1MmT9KEP/RE7RaDFAOpdd92lbedfedevsOPrrru+k2644Xr6mZ/5z/TiF7+Yvvqrv5rvh+Xx7ve8m17+spezwwiWxV/+5V/yQIM5PzzqGKRs1+nTp9kRd9ttt3H4DNpLvfb39+jzX/gCnTnzON1++z+iN77xDfSO+95BFy9doo999KP06KOP8rwRc3jICZoUc8vbbkMdUx4QH374YfonX//1tLl5ldvsfe97H2vmw+vr9Mgjn+PB8fbbb+fBFYPvvffeyw4mOMhQFuqI69Zbb80GNNHx2XSfK42a6aVsYXenoIo+nLKn9Etf+hLP8+AMQCeG2facr3sOz0Gc7BnWrglrg8FgPEoh9CFCGiPjYmi0KbT1wHLgLOZEnBw4Glk7d/5jknB5lYwYGXNUYo/jAj1G1wayiGo/hOuYdRDItBQ+E0AgpCLuGY2G/ueyZtu3yN0h0FiQsVOCPVdJzMMgOQyOPJik5WMXyz0obD+l6WtU9TsgdPcEjolM33JHEUcPQL0PxlA1uUC755sB++TbCgOv3UXJ0ojMIarpF67JDpUBQu61JMt3yPqpg6apjc/q35MNZLWjnkbd8Pd6DM6e71Br1iio2no0CWrQh3b3kA+o3dXK/U2TgCrsVbd31cEjLbUmTF878FmlYVVYrLHyV42nQ21DKt88YXjGqVkiqE5i6sNNXYDqAmlroJa4EopfjC6utk33kGa1ayIpP/tSpa+Nh1YhADVR3HHY7UPP9axD1Kh2gblC2h6oysJxh1PcpqFJKzLKFF0zpm+t1pSwzuZaT7XBAKPpch2VPfnv7PY2NaoPpK2D6jCHngak2u/uFlRUQXq5ZlujzrrWtFHfFqi+kLYJashSOa6PV7w0fGwN1KiOUFU2KTY913O37Xjubtaa/K1dORHCG9zlyTyxQJ20jBzbvGBmZP+hPDr+V2MwVFvFwnOlR22/ycKqb8OKLvGr6H3IoS22n5ylGmUWIJJ8sHFpCK36zv6YVbXG9DXHHH28ZCF1neYz86w1VbmOOKkgsBfWNFAeRy3vspEzXY2FVmLW6gAi1Fptt8hPBgeS5ds5dxarc7LAMSfc1BYZfIMplswTQMtYP9DUKYKqaYYIanDfzB+0gWoyhbsAtchHBHXylp5iCRHUyYVvArU2rmlQcTaI1drWaVQBqtgJX6SwTv6tphLa1aiFIcf8FfMxS9OLOII6eefVgVrnVOpKo4ozYDnLwTlJI0Qi7YFamU845sWGfMW0nzHMnbIBd24cRjYxdzlHrYNUOF9shxA3M0cVDqV2AZUyDwVVt792cY56gEA9KFqzD6ByHRxMzOmA2l4kIhRUNs5LZz0lm1u7YxE6h1mmrQ493m+w0eG1npcwi4c0CreKtZ/GGEix2Lq5TqUYv7DMmGX9c2q6n+17x3NUuVROqTh7feWgIf+uZs2pJasf7DDKaCplW0E0knWxfIwKa7K1rYDq0uKm73J5tut7Sp1rnkNKE4lW7b8quGr/zFbI6N7DcDh6ZVxPWBOvViKnjuWXR5dUmb0VzO/cehSdpFCvkmVpX7IXNj10eSoYVOzmsLu7J8LGIYHxiXrT5A8XNuB2scUmf+UMlGC2KyratoGvsfabstZWBorgupTLkP9dhrGwUXcxSd8Oqr+2hcSXVlZ5d0bTVTF9fTTquafO8ZaVlRGogQbsoogKqP4y7qKa3b7Dw+owd9gk22qmvupizbL+qlg8E7dP0bRXNWp5axz122y/lWvusTpOeRQ7YR6iw0c2tILQOpN8QMUeSdhCRZA6rG+V3t0x+byjd5/UdIVMPU94ekyIua+ftpqwB6d9llfX6MhGttVPSarazCQvUJ/8Mm+4jdEnIRcru+leFMuLEpgPCSyvHuIN0XUURVDno43jV8yBBCKoc9CI8RPmXwIR1Plv4/iFcyCBCOocNGL8hPmXQAR1/ts4fuEcSCCCOgeNGD9h/iUQQZ2hNpYBfg53YWf+wYCP9JAXnyGrXOWDovET5yxnsU/1d+w4j+QCNZAvD1Y2pVLKe9XfC0kimp32Z0jcvapqBLVXzaGvDCACNDjBDv+O08VxkBTO6MGhTAAGkOG8HZzPwof7JgmfdoczYWV2D07Hw3PylDacV4OyUC6evXTpEp/NIy8cgoWkFZSFe/AePC+Bxr14n/wNv6tn3+I+vCNPepkBWfe1ihHUvrZMVi9Asra2lh0qTAyq1KIABBDgGEMAiQOrAArOQ8U/ATeexT34bxxRKQ+FxrM4bhJw4ZAtQIq/AVyUhwvP4HkAKTUl7sXhXIAeIAJcHPqFd+C9uPCbrDfeF0GdvJPZQC0vrOHNdmNm0uRC9y0BMOAEOEAKaAAq/h0gAQiABRig3aBlASAgBTgADf/E0ZQ4mEtqR3n+LH7HvdB8eB6wA0SUj3tRLoDE3/EenKQH4KWWxrPQ0HgHoMTvgF5aACjXdQWMr1wO0v02UFU5yLzfCOoUegcAEqd/i2MjAZA0hwEtoAEogAlHFUIr4t8BCcDBkZIwY3GsI55DeVLT4nk558W/AzDAiftQFsxnCR0APnXqFA8EeCeARDkAFf+N9xw7doyeeOIJHljwHtwDDRuvySQQQZ1Mfp08DWjwf0AA+AAFtCk0LR9EnKYMF+AESPhvaDfMXwE4IAZ0cr6JZ3EvtCouaEiUDRDxdzyLCwACeoAK6PC71JiogzybFu8DjKgDwJXg4xm8W9a5E2HN6UsiqDPSsABuY2ODzVcAcd111zGwEj58BsCAJgMYgBDaEH8DvDgAWGo2aGRAjvJwL+DEQCBNVACJC++UoKI8aMyTJ0/yO6VjCWVIrYv6SMjxDpjh8m+25Woz0gRTrGZCK6uHaf3IRu2qaOyXGOeoU2gqaLMjR45whwd0gAUQYM4JsxLQAg78TZqb+Bs0KExU/Dueh9bEf0ObwvkDTQc4oXUBHw6ShgbFPShXgor3QktifloGVQ4OEnw5R8bfATI0Lp4B7PGaRAIR1Emk19mz0vQEYDB1AR4AAAzQWgAV2lKGXQAI/g/oABnuleEXACqdRtCk6hwVWhb/DbDwT5jD+BvKRh2gOfE3OUDIsBDgR5nQznin9PhKwPFcdChN0l3aBDUhNpGwHhVHuA9qlfYkHzLfzwIoaEvAAggApgyFqCEUadpKhxH+KT3Ccs4JDYqyABHKgUmLMtXkBYAlQzoAD+ZtOblBzoNRPuqFd+EZ/B3/jmdwoZ4yDDTfrdTm13UF6mhEA4dd1Nr81HkpW2YLqd+Dv0mQ5D91982LDA7ed0RQD16bxy+eQQlEUGew0WKVD54EJgRVTfAuCw87uCHwzXPUaPoevL4Vv7hBCURQGxRmLCpKoC0JRFDbkmwsN0qgQQkEgLq9s6ecPVPcIVytmWr6xu1CG2yznhXlGh8tr2k1bdcbtkF1z4TSeHUCQN3Z3Xfaj1wFVWyTPN6RtNy48YyXxlu20QJdYXR/qe0YQ81BVFnBdf2k+Xq6f1Gbd/KKp9V1vxRCV1BRcRxpgSwXhFDTmdwpv03xz0fZdfBovxL9gTNSdRefIDUfwmnsKxJaXVunw+tHaiWT5/r6gIp6Istll7NXxDYguKpmUGyYxtq0hYJsmsoV1GIZnDZu4HTEmWy6i4+nSorbzcj7uDSD3Zxii5kW5NJVkfju1UOHeXCr+45gULv6mFl/Dxt8PT3xrq5z5LLn81P1V/XgNYtGNUxg8WfT3NblhHKt/kaBidDv4riccb1G+b+OxLCSDvLhRfwmtH/lN3kXyk3l6XdCMllJ4p0evylvqnxGmtVZDH/YT4so8dWosw5QV/XvK6jlc0dt8rBqXkWDloEolmk2fW3P4d2m91uPYMxGliTJ7tKCKmoIsPiflNIYYvU3AW0OY3Z3dqIqH4QtbAW8dFyW/Dfzb3xwqXG6EEHtilJxgmxvNaqrGFy1mv0cY8vs1aZRLafH2c80lqRmX8kwSu1XstBzDQjFW7Id1N8yQDOEc7gFxDDd5WCkwJoSjdisl2b/GF9ZI5O1EkF17aGB97EWGNuNvfWhuJu+ekFUNBo7k8yXahSPVMqUh8rw2bSmtf6VH8eg5j+N/5QjWP+bfEjOx8UMM62AKu4z/yb0s3H4UmQZTd9AEOseY6eJMwV1pbXzu91MdXtnaNjEas6WSGUdZfJP2VSq6SG3T+vsLqk1616IVWoMbJyj1onK/fcIql1W9u1bMCcdPx9BFbKIoLrzZ71TVaBp1KgaWQkj1sUDrs6JI6gZqNHrOzmps+gw6tr01Zu7Vr8tTx8iqNJ1Jea70fSdgNcIar3wdKC6zHEjqBHU+t7leEcEtV5QVVCLc9FxZkKxrAhqBLW+dxnuYDA18T0EvsWfu3X52gxImT9T/hRRRVMWkVk0rjFVlFBIGSyEYEryQcYNZKfz+HLow3LNgnfXUEffXsLHWkSvrxu3AlJNwFB2Njmxciuukbt8c3ZDIeUxyPH7fEIwOiHkmtSSvmiM2zQi1eYKcQ3B1L0xglonoex3K6Rya07fYdLx3ValYtHg+vWi/ppUvt8VVFsIpm5uWjB3I6h500dQHWDpK6TC0jaPDsUDiN3MXVcYK+Z0ZqRqLQ7lZlt9nTRpPmqEDzgOTe55SzVNUGa9RI3qKcrQ27WQZn0k3+S6ZU3qkoCu+z6un7BZneekwaBqE+jHNc/Xm5hW0cgsJJsWVT+y8/mpeWDowi0RNarNV2GYk0pNVenUpfzR0MGhoq1CewLWRnlA6jMP1dWx4hBS6p3LTPMtXpp0Shq1Kc0Y2iciqAbJGc3dbJF8xYSDQ6mluap9XldnAtb9XhRAkxpVrbcJVHVOWjd/LdS0Y40aQQ0dYpp4jvswtI6wXXM4+T/qOrjG3m1No9o+tq6e+metQAZ8B1bElE10FTwsz+57CGbaMNZ16YMbnpF9PGOumLwglzKZxMe6oE62jfzeRgcK0Zz2hdy6sU3EnOXR9oUpptOc1LZhWiOiLSrp2sG5+Xf6lHhwQS1JqbjypQ5U6aVpH9Y+gGqbCuSSKCj3cfZRGdSxuSti0ha/dVdjobCoIqg+48Z07q2mArqA2g2sbXQgH43qkiZZTPcrpgiqoPo5jqJGVWk4sBpVnVNVl2C5gto+rNME1WbuupqyElQ/SKX/oOmBe7phlkm+5sCCyluCGEMfPqC2C+u0QHWFNHfEGWbtcisisXVRTf5uoSc3r1HbkOUk8Pk8G0HVSssX1PZgbaNz1Zm+LuZuUaOmyrkJ5u7nFYJhj7xPV66/tw1Z1r+1mTsOFKimVR1FUeriE/pNoqtNoN9ouq6p7DkNISGY0lIySwVcto+xgZ3nVIwjXcW31WlRrROn5JKv1B/hnjqpztfvBwvUkQtIpkCiC6wu5Vc7UPMjvQeoDjIx76/rEnIOWa5WA2pav8P8fGF6wJa52TfXkk1ri/jXmcTzBWqdJq2PaNSFYEzJJRHU8kAzdxrVNn67bLA1XlSts63mAdTSbn/GRHlzkLMYjjHorjqTVz4WYvrOnUYt97XqdGfuQHXTmjbDSMKoyz6afVBdHEUTa1JXSNkHp5uDHzCNmsASU2BNMc0qyiWCqnFUFLWqFGAdpCio/6ZvHaidQhpBFb2vDCrLpQhrBNUKqgy7sDQd/BOzDerEkNYsZtcKMGpUPaglWOcK1Dpt4UBaBqTN92/WrMI7aoLVBrotY6bZOARkNCxsSa8u8BZJ9LrLOi+tM3UtMM51mCUZunU5h7vmBtRmIJWasw4OPazjMIYOVhfTWRe6qauLQysrt5RBLYdeqqtdhPOJWTMcLFybcWQEtbr8ze9ren53BHXcQPlqUt0OgUHtaAvPqAVWwRt3+hBHlEGTBaoco/c7JRqqZ85pyh9r1bHnl+VsCiXXnOZmdhhFUF276Exq1EIn5E5S11NcxeGqUWV5RViL2qkMa3ca1WZd2Fa6FIah0sDnFJIxiTlqVJ8OqL13JkGdPARjk5urRq3CWs3gUWHtGajW7TjFUKhdohbS5SKoIVIrPBNBrYjQF1SphU1mnIS1T6BaUgxLAHOtaw5tqu2FEdRaEdXdEEFtBFQBq3k6yfrJEuIxO4z8VpyIj7GbvraVLnqA2SctHUp1PUr3ewQ1RGqzrVGb8+6ZQdF3AAAgAElEQVSaZGfXfCkNLcuvutOaqP0+zmP1vmwJ++bfhFZ1iSWXKzTnK10a9OxaJ2SzdPZM+5COzVijXySC6jk0RFA9BTa7zqTmQzB1ziRLAsKsgGoJ61gMbaP5Xq9RbUkbTXTVnpZx0DWqGnKRoDa94l/f9PNg+rqvRy3KINT0nTetWQ6tqQHk0m+mVK6Gx5XeOpNcdh5oWBZZcf0CtbArRemDzTPUtkDVZzwE5mS003yNlIoNiRXpsjNMfvvInGfZyLsN6qOvc9QIqmgwW8x4ZLQ22wF1xCs6DsJVAhWfnMMaQS30gGZADfFSSoeSvkN27fWNoE5jYNCAmsOaBZY7rlZvTN9wj25dfNI/qd2ekhgWglHb1SflcchhEb2Ra42xWvZJse4ZaHguSZPA1bYd92jn1xlgdH6+2xsjqBp5twuqn1lqi5VGUCeBJYIaJL2DolF1cNmAU1e65ILNT6CziDpYo+rnoXBuhqRXBHWGTh6KoDqLWe2gVS1Wnl+aTNjZMH1tWtprHlq3SFtKPwRUPjzAAGpn59c5d5+AG5WhRuZFBpQyjUemavraHUZlAHVrPKXjx+Q0Mj1jF3Ubpq9Jk9bNVwueXVdIVceH1rQ36MZ5B7Wj5IQ2QJ4hULn3acb1GdGopWCj69kuOag+kEZQ9axEUMPGED+NGvKO/mrUNB05HcsQQQ1pd8MzEVQ3Ybo7jHxCIDYYzeWIEMWotK/sZAH9kCVpkJxujgpZ2TKPWOKWBATbVizm1upTKuB0EgvcerLbXSktuN1ouYszFJMhdWr6uoHqA6nJHJZfXgNqJfetH6CynIzOG+U0b+MmRvb+MRrJ9bET96MWC4ig5r0YDuouUwjrQfWFtAlQpSMKnbc9UG3atuz9NkJa2X0hrL5YxuqfBtIik9qiI6idgspOk7whypuQlb21ISl/E5i+rFHVd4a8f9zLbDDaQjD5c9mRoFqIdM6k+lOatAg0f3pcGxBHUDsFdboOIxfTN0SL6zvmJKDad/kzZDNFUNsYIRors4k5KirDm8y1bfrOEqhS0ySBawwnATVoJYwVVLNZHOr0aqwHOxUUNWpPNWrdrCkkqcG2UwNH9wubjjGo+P9gFLQ7UNHMl/NnIW4c+Vj9QvEXW2pecD5voLZ1YqiTm2YEVKOcExomk3t9IepBmxq1fvsU18wj2StsjhP9PJXr0HCHNYY9AJxkX6CZ+W4tvVrOO0t1VOFMcIxERcMLUzjJnF/6rKfJ5tvNsTgjwNmaKSDMMqIBDQKzo1MaFAb11kD1h7TOe8vjSk3fqcLaCqiW7QwY1KyW1qVkEuT85iJUFVDlRIXFpAwVltG8P7suRFBDBj3s+Ch3fWwRVIz4pmMmTM6buiyiOlCrsE8P1DptWnIO1WnUvKVL5Zr2y+UTueumEiHdJ+SZCGqI1ETrCVgbA1XMzUodI/9P1xBME6AWYe0aVBxnWA9I1YNbDJcUBzg2fXMtXZJRBdQ+ZRbJWkdQQ0AVPblhUJvx7DYF6hjW7kEdVfVYZqpK3nQmqW0fbQlqYR4q56wFUPsIKdoighpBtUog025NO5Msk78hEu3VOjmueKkDVev55Y12pbbtK6QR1FBIZ1Sj2j2YxtmYZZpmM1HF2wzzvMrUe/ySkSYLy2WmGHQyRVZHzqwKPm7CpxvVWTymsizPBcarfWrdxL0hiQvw3E66y5Q0fdmrM0nCQ5h3N0R05sYW5q0Ay+eyxifV9N9SoYh5FpWqbl7qsS8SHD+BLtpuUwEDQe0YRiSOmAbHQbpQjXTJ+b9f9/Hpat73yv7AXt9EOFGDQe0O0vGcU/fF4x0S/FIBQ+DgpWcVU3oCULOyQurCUmnYrLf3qNnYYyiCWmpF7p7eIRjvwUWOd7ZFX8oQ6g6rLxzSs13RK2OVnil1DOn1vl81EcNeF0t2lYtdHSryynPzASp/FieLFK9Ox7yaNplIozYTggntNTbTtzxpdIm3giX3Xq4uz+MsQ/UzXKAsf7Ylblq5tTc9aI5A1cDaGzGzpSTt1QDTF44S894h7posDFUfUPGGelhdQS2voZ0YVE2PsK9V7cvkac5ALcEaQQ0js2Jom1wE5l387IOHG6gpid0QxtdEoBp6QwS1kU7ChdTNUbUWffMp4RN9ULBGZX1m3RagfY1qnvWZUxXrjFu79Svm4OV7qmW65N7WuGlsZ5m2MtTXSUZXX2jUkOcm6rOWh1GXqrUhQhqmS7+aBSl6aWLuYW3YNFZJZj8Kr28WLKwLz3Tr3dULWGhNk/lrWRxuA4B9PubQiPm8l7CdqN00uPz+lhMYZmA3PsQhzSE3LEOUiwMzjHijt4RGA+3ZAvwbzs/B/8qXzB3haY5mMBq0cIrd0DAAc+0knLgnG0BqwzN27y6X6h3D9B1jx+atDtYwUKvxUMW8te3/FxhOjKD6tboN1JTPLk1poG6lYwV1HBhnVEvgqUleOlh7D2o9pF2DmnkACsZNs6Aal6epnrgAC9Ad1Ja1KTfZ0I+aKdxdByr65gAakrUOdmszaVRVg4qGK8NayMaUK4kVzdo7UCshGKcO2aVGlT1GVWvNgWqDNBdF4JyxHlTxHfX3NUDNHIEKD3+ST3GKpi8ykYoactyhVVjLoAp1MDaDuwRVqr68lXVzVOE8caJT6S3TAFXVrM2Aal7obV87qmJj9kC7wDUIkL1LuZp75gxUJI8IvZnmc1RAOh7WJXTFvo2nBiMRytONvxLWrkFVW0yunirMUWcLVAlrZQwaN5BtNwYlZ9e6J33F7WvJFBLZ8d5Xt6mA82X6QqOKnRCwwFqAWp6DjjVkdXcqmM4A0WQowbnE5nXDl8mZVH5NDur27t7YqjOmBNpq6aNRHVLrdK9y7Py60k2sipCTMHEqdCnvqy6It6X02SraRiqgo2Aqrd/1Saf+HV3Cp+8OWOMKh2g2XeCbsjCGZaQUTqjqpQO7YCkFitn2mNxmpZb/THTJ1vauYzV8gNS/fjLTsPaTKqYjJycEhGDyaJDmlSws7+lBSwn0M2DCiuWC9Zli9a07vTv8p4OirvueK7qs6nCuQZVbcWqGIuvmY5ZsyQiqLzARVF+JabX+PINqipXWe3fNixojqL7dbr5BtZmw2DK0qavG9K3GoPQvdjOLuzZ9daA6eXctzoMIqm/Xm29QbTA2afLXgKqOCHUOiHpYpw2qE6Q8B7V5ds1z1Oi91Rptcz1HnUFQpeet+fCF6xhenvSrGrW5EEwE1bU9xH2zr1F5iafxMpu3PTR91a+wHE4UGGe0dQwpQp22ltEmBpjTTyzeaPWnzjWqo+O9XH1DuMEPJJ+7bWEW0zcgfR59ovq7LkHepzZN3mtrgZElKd/2DWEnGBkml0VnUtl89c1At5u/bZi+ooYie0i7Z67yx1A3e4FhNo31zRps+s5BmIXT+LQDRwYqrwIpZQYZVrM0CaBrWdgLywRrk3NN1/pUxuTmQJ3OHBU76do2n1DhjKCGdhM3E1YPqzB9eUAtgWxadjZJLUOfPSCgSpPInoHShkbF/KG0CQO3lZiTFsMsPqAac6gsNtJB1qgSEF50UrAQinPUkQJrBNV9WEm2tvcDJ0juL5F3dgVqPidlYrN0bY9sos5DMHNg+qq9oQhr1ZkkYY2gujM0d6BWvLvyZDOP4SiCqutAft7bMaz659gMjnNUZ1LnCtQqpOJELN/c3Ajq5KDyrJYdTFkblIqU46Z/ur5z3/a6cQbmqOPVM9Uvq4mJeonCvtcQOxss5qly+mDu6Vc9vsIZW0zKEJD6VjJbUZM/596VRP0DXtj5pmHu3zSettQ7C/0lHfaExyym8AJrCMZQFYRfeuj1rTiFDfsheZyt4tgWmL8ODclPgLSQIzUSN5a37iyA7rCG0MW55OUgmom5JoYS/W58jk019dus26sqJ3WXK6o5FLPmW+RmaP4DW9NCcljmphtJpw8q9m8tX3kDOkAqNHC99ougNt3lJi+vG1D7AylPI9xWz1QTIRz6uFeL+GjUfc05hb6QRlC9mqdXN7cPKm/S0qtvdgSVmVbM4G41KrsjspGhoknVs18cNWk+73IYbaJG7VV/FVMe237NE5u+/YPUQ6PKxpKwdg8qe251viEJqiekdQ0+htljfhLnqJ1Q3R6o/YQ0AFSpWb0jHrUNaDN9hSfVkCvEOyd6wKTUJM5Ra5tlajdY9xSynqBn9k5zuqnli/pm7qpVTba2zeEZcxpdGBjqiytZSgnxIcGmGGYhRqom2geGYGQYRfuN2aZZQutWXFbmEEzHYRbnDbIKn9CjMAvL19CXLF2sfmDWP1zvOpzauFT7YmvCg4vGqX2D4YZy2UJnAlTdcrTiygsXx1Ft0oINKt4QzdSB+rPL/KyHWWxJBrZ+ZduhMLQ/9v25XoGqS65nrVba0pNBta4ZddhfN4I69b4ZQXVvgt6DqtuZQROdyb/Y2QrQgZo7piwnifXIYRQ1qntHn/U7ew2qFlJLlp4zpOwTK81YCmGeCGoXHTtqVHcp9xZUb0h9t3lRQS17EbOTwbRijBrVvXfV3BlBdRdlL0H1hzRg93oF1IomjqC696AJ7oygugsv2dyyrZ5xL0jeaXKBYyeGSiJiOk6TFs9lXt9SXMRnFUwBOnbcGmqkOKOqIRhTbMC0L5C/nNQnwldnTB4mm6zm46fN0w60qSlcEnIWkexF/fn2pmRoK6cVUMsOWXbSjlI+8Vy3CiYkwV52DHnaVY6kSl2oZ1crsWwnw5BlbDUtOetOISFy/YAoQm5NgdqvRPkuAJXv6ATUEeIuIgOQm00oTPFPHaT577YQTPa8BFUbN20S1Ow4+jYaJ4LqJlWROXSwNGlnoEKTFpXceNGpCVIGtWZj/rJG1ZpeTYHaIqRCF836+tD2NWoy4zJyG4rMd7WnUbN9dssAJXJeatl8wWWjBLdQjDRXqwJI4TByyRFuGdIIan0XPuiQsvemDWcSK0MGVTNvgaqcEFLVdNY3M1IA2bCuxkvlAzbPbm5v8KEY9T1pwjuiRjUJ8ODOScsSaQXUoSkXUMxKzTuSe2w5ZF3qlGvKUFDbcxzpuuSsgGpbBGDz+prmlZY1UZmY+rOAYMKxeOLHg0EtW43sMMo1kVCZ1cR7M4l15i6cRtJhJJWl8E4VyxTvzBwOfKMt1GKSn1mLtpMQ3g8HCUvSZTpQEpvw7JpsG3MbtG+rTMxHbwoIApUbtNS3pGcXXPDObRqzl/+mcfDYIEWkjQ0ggJrn4oo1qLwzYemYhMJ7uZKmLTUs2tbSPCLm2Q+wmu5FaFckIfhf5hCMf1nxCZ0EmgfV1sk1oLok2BdjpSLUI0DFqFBcdhZBDe/oEdRw2bX9ZGegeqcFKhpZFyuNGrX5rhFBbV6mTZXYCajekJYT7BNxCqWqLQWoVVM6atTwrhFBDZdd20+2Dqo/pG4J9hHU5rtGBLV5mTZVYqugNg+pdHRIZ1LUqE11BJQTQW1Sms2WZQXV5ACUOdhqMrbq5M2yeQu5Avk6CUeffNFrXD2teiwGhIJsIRjHFzrJtR/nkLhUNWw1i3GvR8srD+ZqFpc2MN+D/lyTI1t62ApqXS6uqTMYQzOOX1dNsLeA2kIIRl/N2YGUtaNlk+qRZRd43/NZDnKivGN31tzWEagIqbQFqb6TTRvU2YLUBqpIDzEf1+ADaszBDUW1bVBTBMTNO/zl6lxdlO25RYp+AJgmqLMHKbrP0DAdEMlcelB5jhqS7xDaXw/sc22C6gopD+eitbVrRC2No4c0y3IqZSDlxbRq+s4mpBHUvo8AbYFqWLImxVE96du8471NhFVQ5SoYyxYorYE6u5BGUA8iqLWQVhPt6xZ9m8RYBFVCmunmTjXqbEMKiY1G5nmo6YwVu+nbpPe87yC1Xb8AjXrFcvaMtF8LK2OybygfPVHYpsqxTfMwztiOHf+bmkLIeUmDwk4R4x0ezIvDxcYv/Trn0rcL2JLk7Y6f2d41wldO07o/pW6OOEnsoKa8JYp2/Xfpj/ozY+ziqx4UNSZc1a4igRA7MoxDsy6giiVpsw2qySnEWtOyqD16ZLtBtxegjoaWdZkTgqp1NBn22mVQ00GhW0ZQI6jdoFinbHqgUXWg6kIwYhbpcDCT8s11m5HVJddHUCOoEdRMAmVQC6eqleJ0rqCaQjBiP1G96SvCPf4LwKPp24euPN916J3pqwvBqE0QDqrw7paXrNVp1PG7zTs1RFDnG5I+fF3PQNVkBjWkUeUePRFUfbeLzqQ+4GiuQ7egpinpNg7E5tnycttHd/xBxlxgw6qB3LOrWY7K2po3SJrdy7prosUzPQzYrjQmyvv3k66A86+ZeCK5srXLfaguBNM2qFwZWtDWg51Vs81pXM0S2kM7eq73oF66umuMwRS3PnHMYsgE66tRxa7c5pjn7INqW+tp/m4fjRo1aTjVMwmqdhWMZX2jTjwR1KJUbGeBDiwD1HDGLYlwdLp9cuZANYVg2jd951ujRlC7Bc/3bTMFqi0EM1VQeZd8P9Pbt6Havj+C2raEJyt/hkC1h2BaB5U5rCaSi6MsZgNT63EX1i1yLHNUq+k724PXZGg1+3TvQb14ZSdv7TKMhR3qPeaoiI36gj0rnl2bZmznXJpmO+Q8lCYsv4M1SCWhoFrjgoEu2sDHOu17EdROxa19WQS1pDVtGjWCWu1DUaN2A3EENYJa29OiRq0VUes3RFANoPru0xtyxmaco7bev+fmBRFUi8PIxzkUQZ0bJnr5IRHUCGptx4ymb62IWr8hguoBqk1rzrr31tbTTDHdmGfbOp/8gpmCNJl8gzlx3OiQrOEZVfRl0zeCOpZOhLQLSOUQOUPx0wZAhWT5dANbHDWCqgvBFLOkIqRdQDpjmlSKpCFQGdYIql9HU03fCKmf7ELvnilzV/3INkCFaVs2KtQ002j6ihaQoEZIQ7Hze25mIWU1OPkcNVfOFy5vB+X6HuQ5qtgRMS4U9UPO/+6ZhjSC6t7gSOkTaX26KzVu+5Kk2MFJ/xyOJZwhd4a7sHp258xD2iWoou3E0e8V07dDhcKHFwXFfGyg9qxnznR1/A896tvn2qYy6HqJYVM+edQKT4taZCKxmb4R1L51p77WZ/5BhR2VHSZaaAQcQsZ8YoPACGrUqH1FdOxis66M73f12WY0+x3GAFZhlacFcmJCi18ZNWqLwj04RR8EjSpbswhrV8d6RlAPDk0tfulBAlXYudIMjqAq3So6k1pkrJGiDxqo0nuDE2q7OX93NjRqiiMGQ2bq0evrz2HITGtWtp8zSyNJLHNUfyE2/kTy1OXx5mZq6XXrT+t+19UUXSBsBIrANd7y2gIPpmbsRraTvaUKKp9HXD+qRlAnE3w/n46g9rNdiAqgiuWo9ZDyXR7bh479ZVGj9rUjHKwwS79bQVe7MaiOmjSHLoI6e61dW+OoUWtFNKUbclB9NaTv/VJXxznqlFra6bURVCcxTeEmBjUIuqhRp9Bcbb8ygtq2hEPLT85dGi9z8ykkCG7rahbb26PX16dt5HzT/xm5k0LIk/14hlMBDafTu3lfpv8dOmduMKhDSwaywAqvKwKWpAPCMrF4tS2B2deMZIlrti29aZbPkGpGlFZAxYeOU6zGZEZQu+oCEdSuJN30ezoHVfcBEdSmm9VUXgS1K0mHvseYq6BEX9TNC1rTqEKriu0Q0kTo8ghqaLP6PhdB9ZVY1/dbD1lj27e4bLBdUJUtTUbJKILaWW+IoHYmasuLQhyusrjyVjSdgYoK8DgRnUkd9KEIagdCrn3FJKAKXsYHNltBtbmzXfYwEqavQmYSugqmViYH9AZbC/UoGGEIl9gazbwp3Ww0tcjGdW2D8n3qDFaYwFZQbSGYsAyjaQi5sDtxqQK232x1NT1XNhfUBrD9Zu+y5q1JTR2hT8vOsDNYN2s2x1IMaZ/m+qbJc6u+ATtdmq50NKJ0MCo0+wEAVbi1xKXr2LbfXGD1KdN/YEhpmG1dWu3s+K3/1zRAbavN66XtAinXzgbqUECqwnpAQJUNZ9JAoVtT2Z4L/a3YGSSMwlVfhDWCWgdOM21Q9xb5uyukTqDKLouICcY6WwrhfJi+rmLu530qjOWd8iKo02+zUIdRrUaVn5YZYRHU6be1tQZlGFVYI6jTb7zWQc0+MYI6/bb2AlVYRGJ/nwjq9BuvM1C/fNG8esbmIp8dr+/0G9PsyCrZNxqHl4ilVa+EFqZw+nZAEJxDMwHP8TOu4Y3ptbEVVJyQaPj0wcjsCYfXt3wlZyygojPEqxkJ2LRf0VGELSjrO6hoGxmGqb9/8q/o2nsb6o0P+1KbzJPALB0RZoEzqNQ++NPQL2QVQQ1rV++n6s1U4IrG8wEV1egK1mmBKr6x7cumGW2OH1u90jzMUoI1gtp2c4aXXw+qmH0Kg6++Yxatner9JpM5/AumCapPretlpyutNVBFswqtqprBQ7/pQNSoPn1ggnvdQHV/gZijjhMeiqGbNnJ9uwa1MktT/lCG0T+RpFx6q6BKWNWXeo4nEVR3Nia6s21QRV+Qu73PI6hqb/fJBnNrNiuotgSwgSUVEKZvQ1cEtSFB1hXTBahjWNvY+2jaGlVKuJ1sI6v3dt+s/pIFi/e2WVD1R1qI+ZKfHV3XWefjd0+bJfvopueM0J7m0I3Yscp8BbQrP+Lnqexbe1tlYhOXDdSBX5hFysQUtjFRl5y9uGeo4mzEsbruDE1rxq7rz+9LDmbYLXQeyt7bJi8s9zSOlQktaJYFRlA9GyCC6imwHt0eQe1RY7RdlQhq2xKerHyfFSzqm5yT5CernngaGtXghBJrpKrqNmpUT8FHUD0F1vHtXeXeTvRZSUKJxVusKzuC6inxCKqnwDq+PYLascD7+roIal9bRtQrgtrv9gmoHZzd/qEWl/S+gMq0/Igy52GPYkiYxV9WrX6UoTriz/51TSyO3XRkLs+yowoNbJu6eW74ZjF9WxXz1Asv75s69Qq1WYHKOS62lLvJ0/Ga+BTrahbQ4c+itVoMo/OugeOiLKvVaKHBTd0iqE30qr6XoT1wybaMrNslZjrx2by31tUsgQCn6SgI/ghqy53/YGtUKdx20vFcm66NUAqNArdKDQTclkLoKgeX+6JGdZHSrN9Te4ThdIBtDdQAEza0iSOooZJzfK5RjYotN9A5EB9DPDuRh046Vqap21APnrzh/1nYnCuElEGX/N7JgZXwyTkmZIH/4b/LuePBoI5PetBKLtTzG9IMEdQQqXk8MymomNNsb2/TIBnQ0tIisTNiMOA8zdFoRLt7u7S0vEwLC4setfK/dTQc0fbONi0MElpeWhbLznngIBoO92lvf59W1g7TwuKSE6r+NRAL3VGPnd0dHqSWlpby+d5gYUD7e/u0u7tLq2urtKjIIxRUmLeGraRCqj/RMxFUZ/EFzkkC3YbQUxcvXaS11RXa29+jwWBAqyurrE3lZnD7e7u0u7tHi4uL3IGXV5ZpsGBJhLe56i1m3OaVK/x+DAzoMKjHYCC0OQ8Wu7sMyeLiEm1tb9OxEyccHSbujqYRBqytbcI/8WKAubq6Son0eKYpDyQ7Ozu0srJCm5ubdPz48VzLBjUD1oc2bN42FWZheyZN7aEZ5749vnEO5qhuewwFyKbySDoc0pUrl7nDLS0t0+IidlkQfUbniwAsw/0hXbp0gU4AEpO73rqaJaUkxTeOL2yadfr041wmNNTi0pK1v4+GQ9re2WGgjtvqkb/CzQQGnJcuXuKBCIMSa9J8QxllS5nscF504K3NLU6fw/3Ly8uOA4fSYUEUHEYNg9qU93aUpmxVuEw0fPpkBNVRWoBj8+omLS4t0vLKSt4YLs7C/f19OvflJ+iGG2+koS54XrvsDLAKywH1OPfkOTq6sUHLq8u5Fnf5DGjXK1cu0ZFrjtPCYLKlbgDl7NmzPFgswFrAuvKse6Kjyqts3rK2Hw5pa3uLTXUMeq7Q5WGZnoKK4bStVdwRVJceTildvXKZtdfK2iqlOKDZM7MEr3n085+nm265pfpsLahZJdOUTj/+GF177bU8WPBcDRrdY/ge7u/T5SuX6Jpj1xocTA7aNCE6/fhpuuHGG9jELqtzG6hS3MPhkPb29lirwnyvuwqx0xZATRfMQtStZinXV7jwsNu1R2PUfbTyewTVQVjbW1u0t7tHG0c3PKZU1Q6PPRmuXLlK60fWJWPi7U6gpnT18mXW6NBCk1xbm5vZnPXakifWAVIinm+iU4q5eZZfq5oWinblgQRS05gel69cZm18aO2Q9XMqCQ4tgDqJU6iteakqlAhqTY9np8zODq1Bk2YzsFBIYOJtb15lb/Aie2izywHU0XCftrc2aXl5hWG1XZtXrzJAhw4d1t+WOXgSWAjLq7ISUm1rnhFaQgCX0pef/DI7hKAJc+1ZBrEAqzqnHJcFM/H8hfO0fnidlpbHnuJCB9WZCz0ClS2KJGnceVRuhAhqDXUIcWxevUIbR6+pOBoxX3z00S/QQ//vIdrY2KDnfuM30tohu3bY39ujra1NOrJx1AvUq5tXeW53ZN0An/Idv/KO+2h5eYle/kOvNFoAV69cpYXFRVpdK5enIU6muacj2tra4ueW2YEF9+sC+mmuMR988EE6e+YMveS7vosHi79+6CHa29mk53zdHWJwKg1KmKsCdlgJDL3yemOqYJ9AbdHcnaJGNYdSxDhrmqvYQjAu7pxQHUg0zEIwg8ECm4nS/4o51p/96cfo3b98H3324b+lYyeO07O/6lb6hV/6ZdZSpnkjwN/Z3qZDhwFINp9x0Kjo0BgYDqkDAUIimutbv/mf0cVzT9Db/v1P07ff9Z20tFodPBA2godyYXFZmTPrZcl/zbys586do/X1dVpZHTuBpBNp8/IV+tX3vJt+7dfupx/5kR+mQ4fX6YEPfoCe/eyvpNe9/o107clTlA4UayAD/KnzT9Gxa44Vjn7AMRImUNX6lD/fNl+XyRdaoVXumgoAAAzeSURBVLUztSy8ivsOQlgB/o2ONaptv1l5pINOjG3sU1sPL0zVzSuX6cjGBvdTLMrnRRZEdPHiRfqO538rbW9inpXQzc+4hT796U/TG974o/TKV72RkgFmpJoL3tss7ilBTRIR5jFd+HqEeRDWKHhr0+KGs0mSsnPn+d/8z+lvPvUQPe36p9E9P/Xv6Lu/9/toX7On5JWrm7SyeoiWFiU8BlCVUMilS5do7dAaLS2KUIy88N6fvuceetYznkG7u5u0vn6Ikz0uXr7MCRcf/vCH6ZfuewdtbBylNAtTybc9+uijdPMtN1OqfA+f9xJw5ostzILklA54NLbjMIuvhtQhgmoBBI7AJ554gk6cPCXO+1ZAfercObr91q+iZLRLAOT5L3wB/cWDf05wPF3/9KfTG+9+E33vv/z+SviElUg2r2GYJQQWrYp4JTTg0sJiUVOnQ5EsmKb0p3/yR/T2t7+Nbr/9a+mTn/wkbawfonvfcR8trhymG2+6ufKVqMf58xfo0PoRnveaAppq6AQDBpxqmCOj06vX5tYm/eTdb6LXvvo1dOzEMbrm2DEaLiS0PxxSOhrSd7/kO+m3fv136cSJaynF8Q7KViSPPf4Y3XDDDUTKotB5A3XS+GqPQS2E+J3OY6nXkX53LA6ITp85yyYbzBUVVAD5tnveSr/+3l+ljY3DtLOzTT/8I6+k++69j/7Df/qP9Pu//wF653vup6dd//TCSyWobC4uuIIqtPAi7ufSsjE500BPPfkk3f2G19LZxx+jV776NfSL/+VeOnr0MP2vDz5Aw2TRmGhx/qmn6ND6UVpZURxbSm118U1kYyFZoRzSxxz6p978Fnr9a19Pz3ve8+jxM2doL0npt3/7v9HRo9fQO+/7OfqN+9+fgZqdxZLBClCvv/56HvDklaSDoDTBSby3fr3D/e4m4qs9A5UzyFkCfdjyZGlhQOfOnacjRze0cdNHPvc5evu//Qk6fGiFPvWpv6ZHHvmcmMolKT33ud9E9/7ye+iWZ35FCVSRF8vzJWke18xReYY+HIm5jRpzzED9vx/9CL31TXfTz//cz9Jzn/tP6bnf8A2sRd//P36PRtB8un1iKaXLly7Tyuo6LS6P5435ggJD5s+Vq1c49oksJBVWgHrPm99CP/aGH6X73/c+etvb306jQUqf+cxnOOb7+tf8EP3G/b9Dx649PoZxIOLRf/+Ff6BbbrmFwSyfUOiOg7izT6CWIla+n1LsN+YNuCcq1/Bw3VxT5nX04zTtxUFC29s7NFhY5BxW9ZKOTpidg2RI7//d36Hf/5+/R4D3xLXH6fkv+HZ67RvuZp9g4RoNOQ8Y+bAiSF4fR8U9e7u7nJ20pMZQ2ZmU0mNf/CK96e430Fc842a67atuo3ve9lP01p+8h172ilfSyJBMAA2NjKmFxZXijni2UCoRnXvqHIdTyrFc5PP+2GtfR3d923fQjTfeyKYtf1+S0t7eLr3lzXfTf3//A+x0y7UmNGqS0OknztB1152iZH/yPtcnUCc1dwv9rV+gCrNOLItqeHfygD4AxODdRZICtKr9Suns6TP08MN/QydPnaTrTj2Njl97svLI/u4ubW9v0cbRo1nSQ/2ZLujwW1ev8nz28Pq6apxiwss2yEf/5MP0X3/z1+iJM2fpRS9+Ef3Av345LSyZvc9IekgGC7SyuuYlGWhUznUuO5PSEf3vD3yAHvuHLxQcXkkyouFol2hhiX7wX/0QrayNkzXgHMMcdj/dp+XlRUr26zOU6irbJ1DZuNJU2PR327e1YPrWrWZxCafUDOt1rdXg74hdXr1yhT2/bEKGHnXPq0vgjNlhQBbZgZPl/zm4ATE3HCLlbmWFECrKHh5rJyJ67LEvcvbSrbfexvn/eVoxm7HZitAsVolYbjJYpJVVmfAgirJucwJn2mhEFy5e4CytYr7wiAeS82ef5OV1BW0wWKBrjh2npUXkJivz0EFC584/xWUt4puUsdm2LRKmAMa0dwdZNtg9OiuqJVCnrw0bkyCyeLa32ExcPwJY5dGGnm9Ih9zJz597kk6cvE5x8LgNSujgly5epJXlFVpdq9eCbHjKRH6AOhoSMpFwYR3tzs6uSLoopfvVna6Ncq8gQworZgprbcX7BiO52E8OJXhCcZopYtsf7tOQRrQM5xScR6qtgNwHA3TTDrN4tnwjt0dQXcSYpoQ1ptCEC5z6FzZsnz39RbruaTeI5/PwhhuorHwpZdP2+InjvMzO6crmsYuDAQ2HMEP3aGdnj5bXDgmt5Akqa10i+rvP/z0985nPLGpOhIpGw0KkB9iODMRtbm/S0vIKLSPsVHJesUaNoI4tpubnqHUOI6fu1bubMLccpUNaXMbibNetTcRnDEdDunL5Ch3dkNlIYaCirNz03DhKi7bF6FKCGQDYkQI66/Lly5xrvIxspcxDXTBTHZfioB5fOv0lOnnqFKcr5m5AaFQlY0qCyt7kvC4pXb16lZKFhI6sH+HdMeRWNuOeCVD1pI5jA73rJq1VKGpUD9HC8wrzbpgSraytOZ0fu7u7w6bm4cOHG9uWBeBfuHCB1tbW+P91y5QxdO5s74glaUlCa6trHAbhxIPSZTR9cT+ezy6ElmC6PnXhKTqycYRWlpayJIhEaNXsUkHFn7DyBgkccNLBe6xq0j45gjy6RSe3RlB9xZymdPkydjVY5c62BhMSGlYO/jxVw/YjIjd3tL/PME1iMuuqCPjOnz/PZaMeWCqG1SzSWSP2TRKAom7YlmXjyBHeIgUw6iBls9akUUug8r0ZrMhD5hhvSnTo8CE+Yll6NtmNlRJtbW3z7whZIA6LOS7PoZWF9BFUc2eMoGplY/YqyrARFj0DQmyDgm1O4GwCBDBHkekzGg3FfknLy5TwDgiBTijLQMIpfXt7DCrWdQLG3Z1dBhTZQ0ichxYFwNhNQViSqIfZ8+4DKsOaecKxsdloH1ODJY75QnPiN67Hygqv/MGIAbMbYRmxUiaC6qonkjMXt42tlpBpu44+zUNlyMT1k+vv4/4sNUvp9ATe+LI0BwMobFZSwpuLLSxgneZAqJJ8nhXmgKqvrbhDmpNyxwV4RgEva1DXQkRB2rttK1bkmlSxVQymBkMePAbY7yCBPBbGuzgw2D4VivfygGgDlW/Qwto3UCcPlJe7g4BVuDjLXbcAq8MStba6WugJ2rb6IFVx4kuZBlTkWsrwmvhdB6SAWlBFplAZhPkHVQxS4tLpGAErNGbzg4Rr3+stqJYPiPNQ19Yt3ucAquiy2R7wedftQ4qfqEx9Cl6YaPLSPfZJmuRN+mddd+iraC7HMEv5uSY0qnXjN8+TtpuX6GyW6AhqGdaDoVH70KTBoAYsuuaUCstZoK7yiFrTVVLu93mAKmEVXsODolHdRdnOnaGg0r5LTnU7dY6gNi9XT1DHmjWC2nxj6EqMoHYj576/JQDUtj5pkjBL//39ocDZkuTVTKFKqzSsUHneGeeXbXX+2nJ7Bur0PKi1kprwhlZAbSKU4vhdEVRHQbV0WwS1JcFWvKmBhxpZNWoEtaPWm/5rIqgdtUHUqB0Jek5fE0HtqGFnAlTsnGCc7sfUv466ivY1EdSOpD8LoMZ5aEedIeA1nYNaTUcUtRaLhE3DecMuzABBTfpIBHVSCR7s59sB1Zr/aoLRfUuS3jaZxmGU72xgSOkDwLaUO2umkMlBZT0NIqGFgLNPeivzmaxYQkNbG6gL9BOsQUrrV88EySFoRcl8gprLTwMq78qLg5osjRaUextBDeq23T3kDirqxEsV65a5BVV+jkFVt7ssy6aws4m01vMlOEVLQkKKdMwFiwUSQQ3qgT1/yA9UhjWC6tem1qVlsijeplNc44N+x6Dy7p3jffJp0MAS0MJXRI3q16hTuBun65kunIhQUQIR1Kq4bFrTtuYtV57ZFp3Y9qQCaraJEC9ryB5oA9TUkO5n2bp6Ct314L7SBir6mDgQZHxFjarpKwxqgKOZZ9k5pCi4BKqEND9qURwB2jyoOICq//nPBxdT4vNqrVcJ1ghqg6DiHJgi4Qqo2U8V07kNHxqfFBdB7fNAUAsqKo+IgJxCWU3fIKdQn8UzrptNa9Yd68AwajhQT8xWjBahNgM0NMqwnaBtc0LNRivMdy3NMGLxSb1jQuzbJTqOXaNGUC09qQprFdTMqxMIaQR1tkGOoDbQfpNpVFmBIqwVUKEOJ4A0gtpAQ0+xiAhqA8JvBlS2TXIzeAwqNKmyN7BHfcWG1uMHhhbSo+nrIdgp3BpBbUDozYE6hlWAOpm5y04gJVPJppCju6iBjtBiEZOCylXLHEpxjqppqHpnkq51gf5QeH8mMHfLoLbYj2LRLUsggtqAgJvVqKJCnEAfuJOD/KQIagON25MiGgGVD+5K6f8DZ020J4koxS0AAAAASUVORK5CYII=;" vertex="1" parent="1">
          <mxGeometry x="930" y="60" width="279" height="620" as="geometry" />
        </mxCell>
        <mxCell id="DLbalJQPhRF_PF3FXGdx-4" value="" style="rounded=0;whiteSpace=wrap;html=1;" vertex="1" parent="1">
          <mxGeometry x="120" y="70" width="380" height="620" as="geometry" />
        </mxCell>
        <mxCell id="DLbalJQPhRF_PF3FXGdx-5" value="欢迎登录" style="text;html=1;strokeColor=none;fillColor=none;align=center;verticalAlign=middle;whiteSpace=wrap;rounded=0;" vertex="1" parent="1">
          <mxGeometry x="270" y="120" width="60" height="30" as="geometry" />
        </mxCell>
        <mxCell id="DLbalJQPhRF_PF3FXGdx-7" value="请输入账号" style="rounded=0;whiteSpace=wrap;html=1;" vertex="1" parent="1">
          <mxGeometry x="180" y="220" width="280" height="40" as="geometry" />
        </mxCell>
        <mxCell id="DLbalJQPhRF_PF3FXGdx-8" value="请输入密码" style="rounded=0;whiteSpace=wrap;html=1;" vertex="1" parent="1">
          <mxGeometry x="180" y="290" width="280" height="40" as="geometry" />
        </mxCell>
        <mxCell id="DLbalJQPhRF_PF3FXGdx-9" value="确认登录" style="rounded=0;whiteSpace=wrap;html=1;" vertex="1" parent="1">
          <mxGeometry x="180" y="490" width="280" height="40" as="geometry" />
        </mxCell>
        <mxCell id="DLbalJQPhRF_PF3FXGdx-10" value="已同意协议" style="text;html=1;strokeColor=none;fillColor=none;align=center;verticalAlign=middle;whiteSpace=wrap;rounded=0;" vertex="1" parent="1">
          <mxGeometry x="200" y="380" width="80" height="30" as="geometry" />
        </mxCell>
        <mxCell id="DLbalJQPhRF_PF3FXGdx-11" value="" style="ellipse;whiteSpace=wrap;html=1;aspect=fixed;" vertex="1" parent="1">
          <mxGeometry x="180" y="380" width="25" height="25" as="geometry" />
        </mxCell>
        <mxCell id="DLbalJQPhRF_PF3FXGdx-12" value="去注册" style="text;html=1;strokeColor=none;fillColor=none;align=center;verticalAlign=middle;whiteSpace=wrap;rounded=0;" vertex="1" parent="1">
          <mxGeometry x="384" y="540" width="60" height="30" as="geometry" />
        </mxCell>
        <mxCell id="DLbalJQPhRF_PF3FXGdx-13" value="" style="shape=partialRectangle;whiteSpace=wrap;html=1;bottom=0;right=0;fillColor=none;rotation=-220;" vertex="1" parent="1">
          <mxGeometry x="444" y="550" width="10" height="10" as="geometry" />
        </mxCell>
        <mxCell id="DLbalJQPhRF_PF3FXGdx-14" value="Facebook" style="ellipse;whiteSpace=wrap;html=1;aspect=fixed;" vertex="1" parent="1">
          <mxGeometry x="180" y="590" width="80" height="80" as="geometry" />
        </mxCell>
        <mxCell id="DLbalJQPhRF_PF3FXGdx-15" value="Google" style="ellipse;whiteSpace=wrap;html=1;aspect=fixed;" vertex="1" parent="1">
          <mxGeometry x="360" y="590" width="80" height="80" as="geometry" />
        </mxCell>
      </root>
    </mxGraphModel>
  </diagram>
</mxfile>
